<svg width="100" height="100" viewBox="0 0 100 100" fill="none" xmlns="http://www.w3.org/2000/svg">
<g filter="url(#filter0_d_147_244)">
<path fill-rule="evenodd" clip-rule="evenodd" d="M50 77.5709C32.6311 77.5709 18.5 63.3689 18.5 45.9999C18.5 28.631 32.6311 14.4999 50 14.4999C67.3689 14.4999 81.5 28.6311 81.5 45.9999C81.5 63.3687 67.3689 77.5709 50 77.5709ZM52.25 43.75H65.75C66.992 43.75 68 44.758 68 46C68 47.242 66.992 48.25 65.75 48.25H52.25V61.75C52.25 62.992 51.242 64 50 64C48.758 64 47.75 62.992 47.75 61.75V48.25H34.25C33.008 48.25 32 47.242 32 46C32 44.758 33.008 43.75 34.25 43.75H47.75V30.25C47.75 29.008 48.758 28 50 28C51.242 28 52.25 29.008 52.25 30.25V43.75Z" fill="white"/>
<path fill-rule="evenodd" clip-rule="evenodd" d="M14 46C14 26.1179 30.1179 10 50 10C69.8833 10 86 26.1179 86 46C86 65.8833 69.8833 82 50 82C30.1179 82 14 65.8833 14 46ZM18.5 45.9999C18.5 63.3689 32.6311 77.5709 50 77.5709C67.3689 77.5709 81.5 63.3687 81.5 45.9999C81.5 28.6311 67.3689 14.4999 50 14.4999C32.6311 14.4999 18.5 28.631 18.5 45.9999Z" fill="white"/>
<path d="M65.75 43.75H52.25V30.25C52.25 29.008 51.242 28 50 28C48.758 28 47.75 29.008 47.75 30.25V43.75H34.25C33.008 43.75 32 44.758 32 46C32 47.242 33.008 48.25 34.25 48.25H47.75V61.75C47.75 62.992 48.758 64 50 64C51.242 64 52.25 62.992 52.25 61.75V48.25H65.75C66.992 48.25 68 47.242 68 46C68 44.758 66.992 43.75 65.75 43.75Z" fill="white"/>
</g>
<path fill-rule="evenodd" clip-rule="evenodd" d="M50 77.5709C32.6311 77.5709 18.5 63.3689 18.5 45.9999C18.5 28.631 32.6311 14.4999 50 14.4999C67.3689 14.4999 81.5 28.6311 81.5 45.9999C81.5 63.3687 67.3689 77.5709 50 77.5709ZM52.25 43.75H65.75C66.992 43.75 68 44.758 68 46C68 47.242 66.992 48.25 65.75 48.25H52.25V61.75C52.25 62.992 51.242 64 50 64C48.758 64 47.75 62.992 47.75 61.75V48.25H34.25C33.008 48.25 32 47.242 32 46C32 44.758 33.008 43.75 34.25 43.75H47.75V30.25C47.75 29.008 48.758 28 50 28C51.242 28 52.25 29.008 52.25 30.25V43.75Z" fill="url(#paint0_linear_147_244)"/>
<path fill-rule="evenodd" clip-rule="evenodd" d="M14 46C14 26.1179 30.1179 10 50 10C69.8833 10 86 26.1179 86 46C86 65.8833 69.8833 82 50 82C30.1179 82 14 65.8833 14 46ZM18.5 45.9999C18.5 63.3689 32.6311 77.5709 50 77.5709C67.3689 77.5709 81.5 63.3687 81.5 45.9999C81.5 28.6311 67.3689 14.4999 50 14.4999C32.6311 14.4999 18.5 28.631 18.5 45.9999Z" fill="url(#paint1_linear_147_244)"/>
<defs>
<filter id="filter0_d_147_244" x="0" y="0" width="100" height="100" filterUnits="userSpaceOnUse" color-interpolation-filters="sRGB">
<feFlood flood-opacity="0" result="BackgroundImageFix"/>
<feColorMatrix in="SourceAlpha" type="matrix" values="0 0 0 0 0 0 0 0 0 0 0 0 0 0 0 0 0 0 127 0" result="hardAlpha"/>
<feOffset dy="4"/>
<feGaussianBlur stdDeviation="7"/>
<feComposite in2="hardAlpha" operator="out"/>
<feColorMatrix type="matrix" values="0 0 0 0 0.377661 0 0 0 0 0.471527 0 0 0 0 0.878281 0 0 0 0.5 0"/>
<feBlend mode="normal" in2="BackgroundImageFix" result="effect1_dropShadow_147_244"/>
<feBlend mode="normal" in="SourceGraphic" in2="effect1_dropShadow_147_244" result="shape"/>
</filter>
<linearGradient id="paint0_linear_147_244" x1="25" y1="20.5" x2="106" y2="102.5" gradientUnits="userSpaceOnUse">
<stop stop-color="#6078E0"/>
<stop offset="1" stop-color="#E6D4F6"/>
</linearGradient>
<linearGradient id="paint1_linear_147_244" x1="25" y1="20.5" x2="106" y2="102.5" gradientUnits="userSpaceOnUse">
<stop stop-color="#6078E0"/>
<stop offset="1" stop-color="#E6D4F6"/>
</linearGradient>
</defs>
</svg>
