<svg width="208" height="160" viewBox="0 0 208 160" fill="none" xmlns="http://www.w3.org/2000/svg">
<g filter="url(#filter0_d_259_357)">
<mask id="mask0_259_357" style="mask-type:alpha" maskUnits="userSpaceOnUse" x="14" y="14" width="180" height="128">
<rect x="14" y="14" width="180" height="128" rx="12" fill="white"/>
</mask>
<g mask="url(#mask0_259_357)">
<rect x="14" y="14" width="180" height="128" fill="white"/>
<g opacity="0.15">
<path fill-rule="evenodd" clip-rule="evenodd" d="M167.669 55H51.4563C47.9053 55 45 58.0264 45 61.7253L45.3227 102.077C48.3751 133.726 72.7226 159.088 103.106 162.268C105.231 162.49 107.384 162.604 109.563 162.604C111.741 162.604 113.894 162.49 116.019 162.268C146.402 159.088 170.75 133.726 173.802 102.077L174.125 61.7253C174.125 58.0264 171.22 55 167.669 55ZM57.9125 70.372H65.9828V83.8225H57.9125H51.4563V70.372H57.9125ZM82.1234 70.372H90.1938H99.8781V83.8225H90.1938H82.1234V70.372ZM128.931 70.372H119.247V83.8225H128.931H137.002V70.372H128.931ZM153.142 70.372H161.213H167.669V83.8225H161.213H153.142V70.372Z" fill="#EBAC45"/>
<path d="M82.9501 130.034C89.8224 136.906 93.7195 146.203 93.8021 155.922V162.172C72.2887 157.762 55.2226 140.695 50.8125 119.182H57.0624C66.7806 119.265 76.0777 123.162 82.9501 130.034Z" stroke="white" stroke-width="10" stroke-linejoin="round"/>
<path d="M136.175 130.034C129.303 136.906 125.405 146.203 125.323 155.922V162.172C146.836 157.762 163.902 140.695 168.313 119.182H162.063C152.344 119.265 143.047 123.162 136.175 130.034Z" stroke="white" stroke-width="10" stroke-linejoin="round"/>
</g>
<path d="M39.88 65V51H46C47.52 51 48.8533 51.2933 50 51.88C51.1467 52.4667 52.04 53.28 52.68 54.32C53.32 55.36 53.64 56.5867 53.64 58C53.64 59.4 53.32 60.6267 52.68 61.68C52.04 62.72 51.1467 63.5333 50 64.12C48.8533 64.7067 47.52 65 46 65H39.88ZM42.48 62.8H45.88C46.9333 62.8 47.84 62.6 48.6 62.2C49.3733 61.8 49.9667 61.24 50.38 60.52C50.8067 59.8 51.02 58.96 51.02 58C51.02 57.0267 50.8067 56.1867 50.38 55.48C49.9667 54.76 49.3733 54.2 48.6 53.8C47.84 53.4 46.9333 53.2 45.88 53.2H42.48V62.8ZM56.1634 65V54.32H58.6634V65H56.1634ZM57.4234 52.56C56.9568 52.56 56.5701 52.4133 56.2634 52.12C55.9701 51.8267 55.8234 51.4733 55.8234 51.06C55.8234 50.6333 55.9701 50.28 56.2634 50C56.5701 49.7067 56.9568 49.56 57.4234 49.56C57.8901 49.56 58.2701 49.7 58.5634 49.98C58.8701 50.2467 59.0234 50.5867 59.0234 51C59.0234 51.44 58.8768 51.8133 58.5834 52.12C58.2901 52.4133 57.9034 52.56 57.4234 52.56ZM68.5247 65V62.84L68.3847 62.38V58.6C68.3847 57.8667 68.1647 57.3 67.7247 56.9C67.2847 56.4867 66.618 56.28 65.7247 56.28C65.1247 56.28 64.5314 56.3733 63.9447 56.56C63.3714 56.7467 62.8847 57.0067 62.4847 57.34L61.5047 55.52C62.078 55.08 62.758 54.7533 63.5447 54.54C64.3447 54.3133 65.1714 54.2 66.0247 54.2C67.5714 54.2 68.7647 54.5733 69.6047 55.32C70.458 56.0533 70.8847 57.1933 70.8847 58.74V65H68.5247ZM65.1647 65.14C64.3647 65.14 63.6647 65.0067 63.0647 64.74C62.4647 64.46 61.998 64.08 61.6647 63.6C61.3447 63.1067 61.1847 62.5533 61.1847 61.94C61.1847 61.34 61.3247 60.8 61.6047 60.32C61.898 59.84 62.3714 59.46 63.0247 59.18C63.678 58.9 64.5447 58.76 65.6247 58.76H68.7247V60.42H65.8047C64.9514 60.42 64.378 60.56 64.0847 60.84C63.7914 61.1067 63.6447 61.44 63.6447 61.84C63.6447 62.2933 63.8247 62.6533 64.1847 62.92C64.5447 63.1867 65.0447 63.32 65.6847 63.32C66.298 63.32 66.8447 63.18 67.3247 62.9C67.818 62.62 68.1714 62.2067 68.3847 61.66L68.8047 63.16C68.5647 63.7867 68.1314 64.2733 67.5047 64.62C66.8914 64.9667 66.1114 65.14 65.1647 65.14ZM80.0131 65.14C79.1465 65.14 78.3531 64.94 77.6331 64.54C76.9265 64.14 76.3598 63.54 75.9331 62.74C75.5198 61.9267 75.3131 60.9 75.3131 59.66C75.3131 58.4067 75.5131 57.38 75.9131 56.58C76.3265 55.78 76.8865 55.1867 77.5931 54.8C78.2998 54.4 79.1065 54.2 80.0131 54.2C81.0665 54.2 81.9931 54.4267 82.7931 54.88C83.6065 55.3333 84.2465 55.9667 84.7131 56.78C85.1931 57.5933 85.4331 58.5533 85.4331 59.66C85.4331 60.7667 85.1931 61.7333 84.7131 62.56C84.2465 63.3733 83.6065 64.0067 82.7931 64.46C81.9931 64.9133 81.0665 65.14 80.0131 65.14ZM74.0931 68.88V54.32H76.4731V56.84L76.3931 59.68L76.5931 62.52V68.88H74.0931ZM79.7331 63C80.3331 63 80.8665 62.8667 81.3331 62.6C81.8131 62.3333 82.1931 61.9467 82.4731 61.44C82.7531 60.9333 82.8931 60.34 82.8931 59.66C82.8931 58.9667 82.7531 58.3733 82.4731 57.88C82.1931 57.3733 81.8131 56.9867 81.3331 56.72C80.8665 56.4533 80.3331 56.32 79.7331 56.32C79.1331 56.32 78.5931 56.4533 78.1131 56.72C77.6331 56.9867 77.2531 57.3733 76.9731 57.88C76.6931 58.3733 76.5531 58.9667 76.5531 59.66C76.5531 60.34 76.6931 60.9333 76.9731 61.44C77.2531 61.9467 77.6331 62.3333 78.1131 62.6C78.5931 62.8667 79.1331 63 79.7331 63ZM92.8241 65.14C91.6374 65.14 90.5974 64.9067 89.7041 64.44C88.8241 63.96 88.1374 63.3067 87.6441 62.48C87.1641 61.6533 86.9241 60.7133 86.9241 59.66C86.9241 58.5933 87.1574 57.6533 87.6241 56.84C88.1041 56.0133 88.7574 55.3667 89.5841 54.9C90.4241 54.4333 91.3774 54.2 92.4441 54.2C93.4841 54.2 94.4107 54.4267 95.2241 54.88C96.0374 55.3333 96.6774 55.9733 97.1441 56.8C97.6107 57.6267 97.8441 58.6 97.8441 59.72C97.8441 59.8267 97.8374 59.9467 97.8241 60.08C97.8241 60.2133 97.8174 60.34 97.8041 60.46H88.9041V58.8H96.4841L95.5041 59.32C95.5174 58.7067 95.3907 58.1667 95.1241 57.7C94.8574 57.2333 94.4907 56.8667 94.0241 56.6C93.5707 56.3333 93.0441 56.2 92.4441 56.2C91.8307 56.2 91.2907 56.3333 90.8241 56.6C90.3707 56.8667 90.0107 57.24 89.7441 57.72C89.4907 58.1867 89.3641 58.74 89.3641 59.38V59.78C89.3641 60.42 89.5107 60.9867 89.8041 61.48C90.0974 61.9733 90.5107 62.3533 91.0441 62.62C91.5774 62.8867 92.1907 63.02 92.8841 63.02C93.4841 63.02 94.0241 62.9267 94.5041 62.74C94.9841 62.5533 95.4107 62.26 95.7841 61.86L97.1241 63.4C96.6441 63.96 96.0374 64.3933 95.3041 64.7C94.5841 64.9933 93.7574 65.14 92.8241 65.14ZM100.245 65V54.32H102.625V57.26L102.345 56.4C102.665 55.68 103.165 55.1333 103.845 54.76C104.539 54.3867 105.399 54.2 106.425 54.2V56.58C106.319 56.5533 106.219 56.54 106.125 56.54C106.032 56.5267 105.939 56.52 105.845 56.52C104.899 56.52 104.145 56.8 103.585 57.36C103.025 57.9067 102.745 58.7267 102.745 59.82V65H100.245Z" fill="#3C3C43"/>
<path d="M39.368 101V92.6H42.512C43.224 92.6 43.836 92.716 44.348 92.948C44.86 93.172 45.252 93.5 45.524 93.932C45.804 94.356 45.944 94.872 45.944 95.48C45.944 96.072 45.804 96.584 45.524 97.016C45.252 97.44 44.86 97.768 44.348 98C43.836 98.232 43.224 98.348 42.512 98.348H39.86L40.256 97.928V101H39.368ZM40.256 98L39.86 97.568H42.488C43.328 97.568 43.964 97.388 44.396 97.028C44.836 96.66 45.056 96.144 45.056 95.48C45.056 94.808 44.836 94.288 44.396 93.92C43.964 93.552 43.328 93.368 42.488 93.368H39.86L40.256 92.948V98ZM50.2169 101.06C49.6089 101.06 49.0609 100.924 48.5729 100.652C48.0929 100.372 47.7129 99.992 47.4329 99.512C47.1529 99.024 47.0129 98.468 47.0129 97.844C47.0129 97.212 47.1529 96.656 47.4329 96.176C47.7129 95.696 48.0929 95.32 48.5729 95.048C49.0529 94.776 49.6009 94.64 50.2169 94.64C50.8409 94.64 51.3929 94.776 51.8729 95.048C52.3609 95.32 52.7409 95.696 53.0129 96.176C53.2929 96.656 53.4329 97.212 53.4329 97.844C53.4329 98.468 53.2929 99.024 53.0129 99.512C52.7409 99.992 52.3609 100.372 51.8729 100.652C51.3849 100.924 50.8329 101.06 50.2169 101.06ZM50.2169 100.304C50.6729 100.304 51.0769 100.204 51.4289 100.004C51.7809 99.796 52.0569 99.508 52.2569 99.14C52.4649 98.764 52.5689 98.332 52.5689 97.844C52.5689 97.348 52.4649 96.916 52.2569 96.548C52.0569 96.18 51.7809 95.896 51.4289 95.696C51.0769 95.488 50.6769 95.384 50.2289 95.384C49.7809 95.384 49.3809 95.488 49.0289 95.696C48.6769 95.896 48.3969 96.18 48.1889 96.548C47.9809 96.916 47.8769 97.348 47.8769 97.844C47.8769 98.332 47.9809 98.764 48.1889 99.14C48.3969 99.508 48.6769 99.796 49.0289 100.004C49.3809 100.204 49.7769 100.304 50.2169 100.304ZM57.7404 101.06C57.1324 101.06 56.5844 100.924 56.0964 100.652C55.6164 100.372 55.2364 99.992 54.9564 99.512C54.6764 99.024 54.5364 98.468 54.5364 97.844C54.5364 97.212 54.6764 96.656 54.9564 96.176C55.2364 95.696 55.6164 95.32 56.0964 95.048C56.5764 94.776 57.1244 94.64 57.7404 94.64C58.3644 94.64 58.9164 94.776 59.3964 95.048C59.8844 95.32 60.2644 95.696 60.5364 96.176C60.8164 96.656 60.9564 97.212 60.9564 97.844C60.9564 98.468 60.8164 99.024 60.5364 99.512C60.2644 99.992 59.8844 100.372 59.3964 100.652C58.9084 100.924 58.3564 101.06 57.7404 101.06ZM57.7404 100.304C58.1964 100.304 58.6004 100.204 58.9524 100.004C59.3044 99.796 59.5804 99.508 59.7804 99.14C59.9884 98.764 60.0924 98.332 60.0924 97.844C60.0924 97.348 59.9884 96.916 59.7804 96.548C59.5804 96.18 59.3044 95.896 58.9524 95.696C58.6004 95.488 58.2004 95.384 57.7524 95.384C57.3044 95.384 56.9044 95.488 56.5524 95.696C56.2004 95.896 55.9204 96.18 55.7124 96.548C55.5044 96.916 55.4004 97.348 55.4004 97.844C55.4004 98.332 55.5044 98.764 55.7124 99.14C55.9204 99.508 56.2004 99.796 56.5524 100.004C56.9044 100.204 57.3004 100.304 57.7404 100.304ZM68.0564 101.072C67.5124 101.072 67.0284 100.984 66.6044 100.808C66.1804 100.624 65.8444 100.372 65.5964 100.052C65.3564 99.732 65.2364 99.36 65.2364 98.936C65.2364 98.576 65.3164 98.248 65.4764 97.952C65.6364 97.648 65.8924 97.352 66.2444 97.064C66.6044 96.768 67.0804 96.46 67.6724 96.14C68.1764 95.86 68.5684 95.62 68.8484 95.42C69.1364 95.212 69.3404 95.016 69.4604 94.832C69.5804 94.64 69.6404 94.436 69.6404 94.22C69.6404 93.908 69.5324 93.656 69.3164 93.464C69.1084 93.272 68.8084 93.176 68.4164 93.176C67.9924 93.176 67.6644 93.284 67.4324 93.5C67.2004 93.708 67.0844 93.98 67.0844 94.316C67.0844 94.484 67.1084 94.644 67.1564 94.796C67.2124 94.948 67.3124 95.116 67.4564 95.3C67.6084 95.484 67.8164 95.716 68.0804 95.996L72.5204 100.568L72.0284 101.132L67.3964 96.368C67.1164 96.072 66.8924 95.816 66.7244 95.6C66.5644 95.376 66.4524 95.164 66.3884 94.964C66.3244 94.764 66.2924 94.552 66.2924 94.328C66.2924 93.968 66.3764 93.656 66.5444 93.392C66.7204 93.12 66.9684 92.912 67.2884 92.768C67.6084 92.616 67.9844 92.54 68.4164 92.54C68.8084 92.54 69.1484 92.608 69.4364 92.744C69.7324 92.872 69.9604 93.06 70.1204 93.308C70.2884 93.556 70.3724 93.856 70.3724 94.208C70.3724 94.512 70.2964 94.796 70.1444 95.06C70.0004 95.324 69.7604 95.584 69.4244 95.84C69.0884 96.088 68.6324 96.368 68.0564 96.68C67.5524 96.96 67.1524 97.216 66.8564 97.448C66.5684 97.68 66.3644 97.908 66.2444 98.132C66.1244 98.348 66.0644 98.588 66.0644 98.852C66.0644 99.156 66.1484 99.424 66.3164 99.656C66.4924 99.88 66.7324 100.056 67.0364 100.184C67.3484 100.304 67.7044 100.364 68.1044 100.364C68.6644 100.364 69.1644 100.248 69.6044 100.016C70.0444 99.784 70.4124 99.432 70.7084 98.96C71.0124 98.488 71.2324 97.896 71.3684 97.184L72.0524 97.4C71.9004 98.2 71.6404 98.872 71.2724 99.416C70.9044 99.96 70.4484 100.372 69.9044 100.652C69.3604 100.932 68.7444 101.072 68.0564 101.072ZM80.2564 101.06C79.7124 101.06 79.2204 100.936 78.7804 100.688C78.3404 100.432 77.9884 100.068 77.7244 99.596C77.4684 99.116 77.3404 98.532 77.3404 97.844C77.3404 97.156 77.4684 96.576 77.7244 96.104C77.9804 95.624 78.3284 95.26 78.7684 95.012C79.2084 94.764 79.7044 94.64 80.2564 94.64C80.8564 94.64 81.3924 94.776 81.8644 95.048C82.3444 95.312 82.7204 95.688 82.9924 96.176C83.2644 96.656 83.4004 97.212 83.4004 97.844C83.4004 98.484 83.2644 99.044 82.9924 99.524C82.7204 100.004 82.3444 100.38 81.8644 100.652C81.3924 100.924 80.8564 101.06 80.2564 101.06ZM77.0044 103.328V94.7H77.8204V96.596L77.7364 97.856L77.8564 99.128V103.328H77.0044ZM80.1964 100.304C80.6444 100.304 81.0444 100.204 81.3964 100.004C81.7484 99.796 82.0284 99.508 82.2364 99.14C82.4444 98.764 82.5484 98.332 82.5484 97.844C82.5484 97.356 82.4444 96.928 82.2364 96.56C82.0284 96.192 81.7484 95.904 81.3964 95.696C81.0444 95.488 80.6444 95.384 80.1964 95.384C79.7484 95.384 79.3444 95.488 78.9844 95.696C78.6324 95.904 78.3524 96.192 78.1444 96.56C77.9444 96.928 77.8444 97.356 77.8444 97.844C77.8444 98.332 77.9444 98.764 78.1444 99.14C78.3524 99.508 78.6324 99.796 78.9844 100.004C79.3444 100.204 79.7484 100.304 80.1964 100.304ZM87.8132 101.06C87.1572 101.06 86.5812 100.924 86.0852 100.652C85.5892 100.372 85.2012 99.992 84.9212 99.512C84.6412 99.024 84.5012 98.468 84.5012 97.844C84.5012 97.22 84.6332 96.668 84.8972 96.188C85.1692 95.708 85.5372 95.332 86.0012 95.06C86.4732 94.78 87.0012 94.64 87.5852 94.64C88.1772 94.64 88.7012 94.776 89.1572 95.048C89.6212 95.312 89.9852 95.688 90.2492 96.176C90.5132 96.656 90.6452 97.212 90.6452 97.844C90.6452 97.884 90.6412 97.928 90.6332 97.976C90.6332 98.016 90.6332 98.06 90.6332 98.108H85.1492V97.472H90.1772L89.8412 97.724C89.8412 97.268 89.7412 96.864 89.5412 96.512C89.3492 96.152 89.0852 95.872 88.7492 95.672C88.4132 95.472 88.0252 95.372 87.5852 95.372C87.1532 95.372 86.7652 95.472 86.4212 95.672C86.0772 95.872 85.8092 96.152 85.6172 96.512C85.4252 96.872 85.3292 97.284 85.3292 97.748V97.88C85.3292 98.36 85.4332 98.784 85.6412 99.152C85.8572 99.512 86.1532 99.796 86.5292 100.004C86.9132 100.204 87.3492 100.304 87.8372 100.304C88.2212 100.304 88.5772 100.236 88.9052 100.1C89.2412 99.964 89.5292 99.756 89.7692 99.476L90.2492 100.028C89.9692 100.364 89.6172 100.62 89.1932 100.796C88.7772 100.972 88.3172 101.06 87.8132 101.06ZM95.0554 101.06C94.3994 101.06 93.8234 100.924 93.3274 100.652C92.8314 100.372 92.4434 99.992 92.1634 99.512C91.8834 99.024 91.7434 98.468 91.7434 97.844C91.7434 97.22 91.8754 96.668 92.1394 96.188C92.4114 95.708 92.7794 95.332 93.2434 95.06C93.7154 94.78 94.2434 94.64 94.8274 94.64C95.4194 94.64 95.9434 94.776 96.3994 95.048C96.8634 95.312 97.2274 95.688 97.4914 96.176C97.7554 96.656 97.8874 97.212 97.8874 97.844C97.8874 97.884 97.8834 97.928 97.8754 97.976C97.8754 98.016 97.8754 98.06 97.8754 98.108H92.3914V97.472H97.4194L97.0834 97.724C97.0834 97.268 96.9834 96.864 96.7834 96.512C96.5914 96.152 96.3274 95.872 95.9914 95.672C95.6554 95.472 95.2674 95.372 94.8274 95.372C94.3954 95.372 94.0074 95.472 93.6634 95.672C93.3194 95.872 93.0514 96.152 92.8594 96.512C92.6674 96.872 92.5714 97.284 92.5714 97.748V97.88C92.5714 98.36 92.6754 98.784 92.8834 99.152C93.0994 99.512 93.3954 99.796 93.7714 100.004C94.1554 100.204 94.5914 100.304 95.0794 100.304C95.4634 100.304 95.8194 100.236 96.1474 100.1C96.4834 99.964 96.7714 99.756 97.0114 99.476L97.4914 100.028C97.2114 100.364 96.8594 100.62 96.4354 100.796C96.0194 100.972 95.5594 101.06 95.0554 101.06ZM102.762 101V94.7H103.578V96.416L103.494 96.116C103.67 95.636 103.966 95.272 104.382 95.024C104.798 94.768 105.314 94.64 105.93 94.64V95.468C105.898 95.468 105.866 95.468 105.834 95.468C105.802 95.46 105.77 95.456 105.738 95.456C105.074 95.456 104.554 95.66 104.178 96.068C103.802 96.468 103.614 97.04 103.614 97.784V101H102.762ZM110.102 101.06C109.446 101.06 108.87 100.924 108.374 100.652C107.878 100.372 107.49 99.992 107.21 99.512C106.93 99.024 106.79 98.468 106.79 97.844C106.79 97.22 106.922 96.668 107.186 96.188C107.458 95.708 107.826 95.332 108.29 95.06C108.762 94.78 109.29 94.64 109.874 94.64C110.466 94.64 110.99 94.776 111.446 95.048C111.91 95.312 112.274 95.688 112.538 96.176C112.802 96.656 112.934 97.212 112.934 97.844C112.934 97.884 112.93 97.928 112.922 97.976C112.922 98.016 112.922 98.06 112.922 98.108H107.438V97.472H112.466L112.13 97.724C112.13 97.268 112.03 96.864 111.83 96.512C111.638 96.152 111.374 95.872 111.038 95.672C110.702 95.472 110.314 95.372 109.874 95.372C109.442 95.372 109.054 95.472 108.71 95.672C108.366 95.872 108.098 96.152 107.906 96.512C107.714 96.872 107.618 97.284 107.618 97.748V97.88C107.618 98.36 107.722 98.784 107.93 99.152C108.146 99.512 108.442 99.796 108.818 100.004C109.202 100.204 109.638 100.304 110.126 100.304C110.51 100.304 110.866 100.236 111.194 100.1C111.53 99.964 111.818 99.756 112.058 99.476L112.538 100.028C112.258 100.364 111.906 100.62 111.482 100.796C111.066 100.972 110.606 101.06 110.102 101.06ZM117.284 101.06C116.66 101.06 116.1 100.924 115.604 100.652C115.116 100.372 114.732 99.992 114.452 99.512C114.172 99.024 114.032 98.468 114.032 97.844C114.032 97.212 114.172 96.656 114.452 96.176C114.732 95.696 115.116 95.32 115.604 95.048C116.1 94.776 116.66 94.64 117.284 94.64C117.82 94.64 118.304 94.744 118.736 94.952C119.168 95.16 119.508 95.472 119.756 95.888L119.12 96.32C118.904 96 118.636 95.764 118.316 95.612C117.996 95.46 117.648 95.384 117.272 95.384C116.824 95.384 116.42 95.488 116.06 95.696C115.7 95.896 115.416 96.18 115.208 96.548C115 96.916 114.896 97.348 114.896 97.844C114.896 98.34 115 98.772 115.208 99.14C115.416 99.508 115.7 99.796 116.06 100.004C116.42 100.204 116.824 100.304 117.272 100.304C117.648 100.304 117.996 100.228 118.316 100.076C118.636 99.924 118.904 99.692 119.12 99.38L119.756 99.812C119.508 100.22 119.168 100.532 118.736 100.748C118.304 100.956 117.82 101.06 117.284 101.06ZM123.893 101.06C123.285 101.06 122.737 100.924 122.249 100.652C121.769 100.372 121.389 99.992 121.109 99.512C120.829 99.024 120.689 98.468 120.689 97.844C120.689 97.212 120.829 96.656 121.109 96.176C121.389 95.696 121.769 95.32 122.249 95.048C122.729 94.776 123.277 94.64 123.893 94.64C124.517 94.64 125.069 94.776 125.549 95.048C126.037 95.32 126.417 95.696 126.689 96.176C126.969 96.656 127.109 97.212 127.109 97.844C127.109 98.468 126.969 99.024 126.689 99.512C126.417 99.992 126.037 100.372 125.549 100.652C125.061 100.924 124.509 101.06 123.893 101.06ZM123.893 100.304C124.349 100.304 124.753 100.204 125.105 100.004C125.457 99.796 125.733 99.508 125.933 99.14C126.141 98.764 126.245 98.332 126.245 97.844C126.245 97.348 126.141 96.916 125.933 96.548C125.733 96.18 125.457 95.896 125.105 95.696C124.753 95.488 124.353 95.384 123.905 95.384C123.457 95.384 123.057 95.488 122.705 95.696C122.353 95.896 122.073 96.18 121.865 96.548C121.657 96.916 121.553 97.348 121.553 97.844C121.553 98.332 121.657 98.764 121.865 99.14C122.073 99.508 122.353 99.796 122.705 100.004C123.057 100.204 123.453 100.304 123.893 100.304ZM128.848 101V94.7H129.664V96.416L129.58 96.116C129.756 95.636 130.052 95.272 130.468 95.024C130.884 94.768 131.4 94.64 132.016 94.64V95.468C131.984 95.468 131.952 95.468 131.92 95.468C131.888 95.46 131.856 95.456 131.824 95.456C131.16 95.456 130.64 95.66 130.264 96.068C129.888 96.468 129.7 97.04 129.7 97.784V101H128.848ZM136.02 101.06C135.42 101.06 134.88 100.924 134.4 100.652C133.928 100.38 133.556 100.004 133.284 99.524C133.012 99.036 132.876 98.476 132.876 97.844C132.876 97.204 133.012 96.644 133.284 96.164C133.556 95.684 133.928 95.312 134.4 95.048C134.88 94.776 135.42 94.64 136.02 94.64C136.572 94.64 137.064 94.764 137.496 95.012C137.936 95.26 138.284 95.624 138.54 96.104C138.804 96.576 138.936 97.156 138.936 97.844C138.936 98.524 138.808 99.104 138.552 99.584C138.296 100.064 137.948 100.432 137.508 100.688C137.076 100.936 136.58 101.06 136.02 101.06ZM136.08 100.304C136.528 100.304 136.928 100.204 137.28 100.004C137.64 99.796 137.92 99.508 138.12 99.14C138.328 98.764 138.432 98.332 138.432 97.844C138.432 97.348 138.328 96.916 138.12 96.548C137.92 96.18 137.64 95.896 137.28 95.696C136.928 95.488 136.528 95.384 136.08 95.384C135.64 95.384 135.244 95.488 134.892 95.696C134.54 95.896 134.26 96.18 134.052 96.548C133.844 96.916 133.74 97.348 133.74 97.844C133.74 98.332 133.844 98.764 134.052 99.14C134.26 99.508 134.54 99.796 134.892 100.004C135.244 100.204 135.64 100.304 136.08 100.304ZM138.456 101V99.104L138.54 97.832L138.42 96.56V92.096H139.272V101H138.456Z" fill="#3C3C43"/>
</g>
</g>
<defs>
<filter id="filter0_d_259_357" x="0" y="0" width="208" height="156" filterUnits="userSpaceOnUse" color-interpolation-filters="sRGB">
<feFlood flood-opacity="0" result="BackgroundImageFix"/>
<feColorMatrix in="SourceAlpha" type="matrix" values="0 0 0 0 0 0 0 0 0 0 0 0 0 0 0 0 0 0 127 0" result="hardAlpha"/>
<feOffset/>
<feGaussianBlur stdDeviation="7"/>
<feComposite in2="hardAlpha" operator="out"/>
<feColorMatrix type="matrix" values="0 0 0 0 0.377661 0 0 0 0 0.471527 0 0 0 0 0.878281 0 0 0 0.13 0"/>
<feBlend mode="normal" in2="BackgroundImageFix" result="effect1_dropShadow_259_357"/>
<feBlend mode="normal" in="SourceGraphic" in2="effect1_dropShadow_259_357" result="shape"/>
</filter>
</defs>
</svg>
