<svg width="202" height="160" viewBox="0 0 202 160" fill="none" xmlns="http://www.w3.org/2000/svg">
<g filter="url(#filter0_d_60_1619)">
<mask id="mask0_60_1619" style="mask-type:alpha" maskUnits="userSpaceOnUse" x="8" y="14" width="180" height="128">
<rect x="8" y="14" width="180" height="128" rx="12" fill="white"/>
</mask>
<g mask="url(#mask0_60_1619)">
<rect x="8" y="14" width="180" height="128" fill="white"/>
<g opacity="0.5">
<path d="M89.7481 81.4146L52.9461 117.514C51.7847 118.654 50.8634 120.008 50.2348 121.499C49.6063 122.989 49.2827 124.586 49.2827 126.199C49.2827 127.812 49.6063 129.41 50.2348 130.9C50.8634 132.39 51.7847 133.744 52.9461 134.884L76.7695 158.207C77.9298 159.348 79.3077 160.253 80.8243 160.871C82.3409 161.489 83.9665 161.806 85.6082 161.806C87.2499 161.806 88.8755 161.489 90.3921 160.871C91.9087 160.253 93.2865 159.348 94.4469 158.207L122.643 130.716C123.022 130.341 123.263 129.852 123.326 129.328C123.389 128.803 123.272 128.272 122.992 127.821L97.3463 82.3288C95.7181 79.7004 91.9966 79.2433 89.7481 81.4146ZM100.652 100.462C101.815 101.605 101.815 103.395 100.652 104.5C99.5277 105.605 97.6669 105.605 96.5427 104.5L89.6811 97.7577C88.5569 96.6531 88.5569 94.8247 89.6811 93.72C90.2282 93.1887 90.9665 92.8907 91.7357 92.8907C92.5049 92.8907 93.2432 93.1887 93.7903 93.72L100.652 100.462ZM87.6652 113.261C88.7895 114.404 88.7895 116.194 87.6652 117.299C86.541 118.404 84.6802 118.404 83.556 117.299L76.6944 110.557C75.5702 109.452 75.5702 107.624 76.6944 106.519C77.2415 105.988 77.9798 105.69 78.749 105.69C79.5182 105.69 80.2565 105.988 80.8036 106.519L87.6652 113.261ZM106.816 80.9211L113.677 87.6634C114.84 88.8061 114.84 90.5964 113.677 91.7011C112.553 92.8058 110.692 92.8058 109.568 91.7011L102.707 84.9588C101.582 83.8542 101.582 82.0258 102.707 80.9211C103.254 80.3898 103.992 80.0918 104.761 80.0918C105.53 80.0918 106.269 80.3898 106.816 80.9211Z" fill="#FF8B58" fill-opacity="0.35"/>
<path d="M156.979 67.2466L159.615 64.6564C161.142 63.1561 162 61.1214 162 58.9997C162 56.8781 161.142 54.8433 159.615 53.3431C158.089 51.8428 156.018 51 153.859 51C151.699 51 149.629 51.8428 148.102 53.3431L145.466 55.9333C144.458 56.9237 142.946 57.3046 141.55 56.8475L135.309 54.7906C132.557 53.8763 129.533 54.6001 127.517 56.619L125.075 58.9807L124.881 58.7902C124.163 58.0946 123.195 57.7047 122.187 57.7047C121.178 57.7047 120.211 58.0946 119.492 58.7902L119.078 59.1978C115.25 56.1406 110.415 54.5668 105.486 54.7738C100.558 54.9809 95.8773 56.9544 92.3289 60.3215L92.3095 60.3405L40.5136 111.51C38.4488 113.536 36.8107 115.942 35.693 118.59C34.5753 121.239 34 124.078 34 126.945C34 129.812 34.5753 132.651 35.693 135.3C36.8107 137.948 38.4488 140.354 40.5136 142.38L69.3169 170.682C71.3786 172.711 73.8271 174.321 76.5225 175.419C79.2178 176.517 82.1071 177.082 85.025 177.082C87.9429 177.082 90.8322 176.517 93.5275 175.419C96.2229 174.321 98.6714 172.711 100.733 170.682L152.645 119.402L152.734 119.231C156.074 115.724 158.004 111.146 158.168 106.347C158.332 101.547 156.718 96.8525 153.626 93.1339L154.033 92.7301C155.545 91.2826 155.545 88.9209 154.072 87.4734L153.878 87.283L156.282 84.8832C158.336 82.9024 159.073 79.9312 158.142 77.2267L156.049 71.0939C155.584 69.7226 155.971 68.237 156.979 67.2466ZM146.795 97.0612C149.089 99.3204 150.391 102.372 150.423 105.563C150.455 108.754 149.214 111.831 146.966 114.134L145.66 115.418L145.66 115.494L95.2515 165.296C93.9098 166.618 92.3158 167.666 90.561 168.382C88.8062 169.097 86.9249 169.466 85.025 169.466C83.1251 169.466 81.2438 169.097 79.489 168.382C77.7342 167.666 76.1402 166.618 74.7985 165.296L45.9952 136.994C44.65 135.675 43.5828 134.109 42.8546 132.385C42.1265 130.66 41.7516 128.812 41.7516 126.945C41.7516 125.078 42.1265 123.23 42.8546 121.505C43.5828 119.781 44.65 118.215 45.9952 116.896L97.7484 65.7725C100.092 63.5635 103.223 62.3441 106.471 62.3755C109.718 62.4068 112.824 63.6863 115.123 65.9401L146.795 97.0612Z" fill="#FF8B58" fill-opacity="0.35"/>
</g>
<path d="M36.26 57.44H43.24V59.64H36.26V57.44ZM36.48 65H33.88V51H44.1V53.18H36.48V65ZM51.1014 65.14C49.9147 65.14 48.8747 64.9067 47.9814 64.44C47.1014 63.96 46.4147 63.3067 45.9214 62.48C45.4414 61.6533 45.2014 60.7133 45.2014 59.66C45.2014 58.5933 45.4347 57.6533 45.9014 56.84C46.3814 56.0133 47.0347 55.3667 47.8614 54.9C48.7014 54.4333 49.6547 54.2 50.7214 54.2C51.7614 54.2 52.6881 54.4267 53.5014 54.88C54.3147 55.3333 54.9547 55.9733 55.4214 56.8C55.8881 57.6267 56.1214 58.6 56.1214 59.72C56.1214 59.8267 56.1147 59.9467 56.1014 60.08C56.1014 60.2133 56.0947 60.34 56.0814 60.46H47.1814V58.8H54.7614L53.7814 59.32C53.7947 58.7067 53.6681 58.1667 53.4014 57.7C53.1347 57.2333 52.7681 56.8667 52.3014 56.6C51.8481 56.3333 51.3214 56.2 50.7214 56.2C50.1081 56.2 49.5681 56.3333 49.1014 56.6C48.6481 56.8667 48.2881 57.24 48.0214 57.72C47.7681 58.1867 47.6414 58.74 47.6414 59.38V59.78C47.6414 60.42 47.7881 60.9867 48.0814 61.48C48.3747 61.9733 48.7881 62.3533 49.3214 62.62C49.8547 62.8867 50.4681 63.02 51.1614 63.02C51.7614 63.02 52.3014 62.9267 52.7814 62.74C53.2614 62.5533 53.6881 62.26 54.0614 61.86L55.4014 63.4C54.9214 63.96 54.3147 64.3933 53.5814 64.7C52.8614 64.9933 52.0347 65.14 51.1014 65.14ZM63.5428 65.14C62.3561 65.14 61.3161 64.9067 60.4228 64.44C59.5428 63.96 58.8561 63.3067 58.3628 62.48C57.8828 61.6533 57.6428 60.7133 57.6428 59.66C57.6428 58.5933 57.8761 57.6533 58.3428 56.84C58.8228 56.0133 59.4761 55.3667 60.3028 54.9C61.1428 54.4333 62.0961 54.2 63.1628 54.2C64.2028 54.2 65.1295 54.4267 65.9428 54.88C66.7561 55.3333 67.3961 55.9733 67.8628 56.8C68.3295 57.6267 68.5628 58.6 68.5628 59.72C68.5628 59.8267 68.5561 59.9467 68.5428 60.08C68.5428 60.2133 68.5361 60.34 68.5228 60.46H59.6228V58.8H67.2028L66.2228 59.32C66.2361 58.7067 66.1095 58.1667 65.8428 57.7C65.5761 57.2333 65.2095 56.8667 64.7428 56.6C64.2895 56.3333 63.7628 56.2 63.1628 56.2C62.5495 56.2 62.0095 56.3333 61.5428 56.6C61.0895 56.8667 60.7295 57.24 60.4628 57.72C60.2095 58.1867 60.0828 58.74 60.0828 59.38V59.78C60.0828 60.42 60.2295 60.9867 60.5228 61.48C60.8161 61.9733 61.2295 62.3533 61.7628 62.62C62.2961 62.8867 62.9095 63.02 63.6028 63.02C64.2028 63.02 64.7428 62.9267 65.2228 62.74C65.7028 62.5533 66.1295 62.26 66.5028 61.86L67.8428 63.4C67.3628 63.96 66.7561 64.3933 66.0228 64.7C65.3028 64.9933 64.4761 65.14 63.5428 65.14ZM75.4842 65.14C74.4576 65.14 73.5309 64.9133 72.7042 64.46C71.8909 63.9933 71.2509 63.3533 70.7842 62.54C70.3176 61.7267 70.0842 60.7667 70.0842 59.66C70.0842 58.5533 70.3176 57.5933 70.7842 56.78C71.2509 55.9667 71.8909 55.3333 72.7042 54.88C73.5309 54.4267 74.4576 54.2 75.4842 54.2C76.3776 54.2 77.1776 54.4 77.8842 54.8C78.5909 55.1867 79.1509 55.78 79.5642 56.58C79.9776 57.38 80.1842 58.4067 80.1842 59.66C80.1842 60.9 79.9842 61.9267 79.5842 62.74C79.1842 63.54 78.6309 64.14 77.9242 64.54C77.2176 64.94 76.4042 65.14 75.4842 65.14ZM75.7842 63C76.3842 63 76.9176 62.8667 77.3842 62.6C77.8642 62.3333 78.2442 61.9467 78.5242 61.44C78.8176 60.9333 78.9642 60.34 78.9642 59.66C78.9642 58.9667 78.8176 58.3733 78.5242 57.88C78.2442 57.3733 77.8642 56.9867 77.3842 56.72C76.9176 56.4533 76.3842 56.32 75.7842 56.32C75.1842 56.32 74.6442 56.4533 74.1642 56.72C73.6976 56.9867 73.3176 57.3733 73.0242 57.88C72.7442 58.3733 72.6042 58.9667 72.6042 59.66C72.6042 60.34 72.7442 60.9333 73.0242 61.44C73.3176 61.9467 73.6976 62.3333 74.1642 62.6C74.6442 62.8667 75.1842 63 75.7842 63ZM79.0242 65V62.48L79.1242 59.64L78.9242 56.8V50.16H81.4042V65H79.0242ZM84.6947 65V54.32H87.1947V65H84.6947ZM85.9547 52.56C85.488 52.56 85.1014 52.4133 84.7947 52.12C84.5014 51.8267 84.3547 51.4733 84.3547 51.06C84.3547 50.6333 84.5014 50.28 84.7947 50C85.1014 49.7067 85.488 49.56 85.9547 49.56C86.4214 49.56 86.8014 49.7 87.0947 49.98C87.4014 50.2467 87.5547 50.5867 87.5547 51C87.5547 51.44 87.408 51.8133 87.1147 52.12C86.8214 52.4133 86.4347 52.56 85.9547 52.56ZM96.5359 54.2C97.3893 54.2 98.1493 54.3667 98.8159 54.7C99.4959 55.0333 100.029 55.5467 100.416 56.24C100.803 56.92 100.996 57.8 100.996 58.88V65H98.4959V59.2C98.4959 58.2533 98.2693 57.5467 97.8159 57.08C97.3759 56.6133 96.7559 56.38 95.9559 56.38C95.3693 56.38 94.8493 56.5 94.3959 56.74C93.9426 56.98 93.5893 57.34 93.3359 57.82C93.0959 58.2867 92.9759 58.88 92.9759 59.6V65H90.4759V54.32H92.8559V57.2L92.4359 56.32C92.8093 55.64 93.3493 55.12 94.0559 54.76C94.7759 54.3867 95.6026 54.2 96.5359 54.2ZM109.027 69.02C108.04 69.02 107.074 68.8867 106.127 68.62C105.194 68.3667 104.427 67.9933 103.827 67.5L104.947 65.62C105.414 66.0067 106 66.3133 106.707 66.54C107.427 66.78 108.154 66.9 108.887 66.9C110.06 66.9 110.92 66.6267 111.467 66.08C112.014 65.5467 112.287 64.74 112.287 63.66V61.76L112.487 59.34L112.407 56.92V54.32H114.787V63.38C114.787 65.3133 114.294 66.7333 113.307 67.64C112.32 68.56 110.894 69.02 109.027 69.02ZM108.707 64.52C107.694 64.52 106.774 64.3067 105.947 63.88C105.134 63.44 104.487 62.8333 104.007 62.06C103.54 61.2867 103.307 60.38 103.307 59.34C103.307 58.3133 103.54 57.4133 104.007 56.64C104.487 55.8667 105.134 55.2667 105.947 54.84C106.774 54.4133 107.694 54.2 108.707 54.2C109.614 54.2 110.427 54.38 111.147 54.74C111.867 55.1 112.44 55.66 112.867 56.42C113.307 57.18 113.527 58.1533 113.527 59.34C113.527 60.5267 113.307 61.5067 112.867 62.28C112.44 63.04 111.867 63.6067 111.147 63.98C110.427 64.34 109.614 64.52 108.707 64.52ZM109.087 62.4C109.714 62.4 110.274 62.2733 110.767 62.02C111.26 61.7533 111.64 61.3933 111.907 60.94C112.187 60.4733 112.327 59.94 112.327 59.34C112.327 58.74 112.187 58.2133 111.907 57.76C111.64 57.2933 111.26 56.94 110.767 56.7C110.274 56.4467 109.714 56.32 109.087 56.32C108.46 56.32 107.894 56.4467 107.387 56.7C106.894 56.94 106.507 57.2933 106.227 57.76C105.96 58.2133 105.827 58.74 105.827 59.34C105.827 59.94 105.96 60.4733 106.227 60.94C106.507 61.3933 106.894 61.7533 107.387 62.02C107.894 62.2733 108.46 62.4 109.087 62.4Z" fill="#3C3C43"/>
<path d="M33.368 101V92.6H36.992C37.928 92.6 38.652 92.788 39.164 93.164C39.684 93.54 39.944 94.072 39.944 94.76C39.944 95.216 39.836 95.6 39.62 95.912C39.412 96.224 39.124 96.46 38.756 96.62C38.396 96.78 38 96.86 37.568 96.86L37.772 96.572C38.308 96.572 38.768 96.656 39.152 96.824C39.544 96.984 39.848 97.228 40.064 97.556C40.28 97.876 40.388 98.276 40.388 98.756C40.388 99.468 40.124 100.02 39.596 100.412C39.076 100.804 38.288 101 37.232 101H33.368ZM34.256 100.268H37.22C37.956 100.268 38.52 100.144 38.912 99.896C39.304 99.64 39.5 99.236 39.5 98.684C39.5 98.14 39.304 97.744 38.912 97.496C38.52 97.24 37.956 97.112 37.22 97.112H34.16V96.38H36.932C37.604 96.38 38.124 96.252 38.492 95.996C38.868 95.74 39.056 95.36 39.056 94.856C39.056 94.344 38.868 93.964 38.492 93.716C38.124 93.46 37.604 93.332 36.932 93.332H34.256V100.268ZM42.2349 101V94.7H43.0509V96.416L42.9669 96.116C43.1429 95.636 43.4389 95.272 43.8549 95.024C44.2709 94.768 44.7869 94.64 45.4029 94.64V95.468C45.3709 95.468 45.3389 95.468 45.3069 95.468C45.2749 95.46 45.2429 95.456 45.2109 95.456C44.5469 95.456 44.0269 95.66 43.6509 96.068C43.2749 96.468 43.0869 97.04 43.0869 97.784V101H42.2349ZM49.5749 101.06C48.9189 101.06 48.3429 100.924 47.8469 100.652C47.3509 100.372 46.9629 99.992 46.6829 99.512C46.4029 99.024 46.2629 98.468 46.2629 97.844C46.2629 97.22 46.3949 96.668 46.6589 96.188C46.9309 95.708 47.2989 95.332 47.7629 95.06C48.2349 94.78 48.7629 94.64 49.3469 94.64C49.9389 94.64 50.4629 94.776 50.9189 95.048C51.3829 95.312 51.7469 95.688 52.0109 96.176C52.2749 96.656 52.4069 97.212 52.4069 97.844C52.4069 97.884 52.4029 97.928 52.3949 97.976C52.3949 98.016 52.3949 98.06 52.3949 98.108H46.9109V97.472H51.9389L51.6029 97.724C51.6029 97.268 51.5029 96.864 51.3029 96.512C51.1109 96.152 50.8469 95.872 50.5109 95.672C50.1749 95.472 49.7869 95.372 49.3469 95.372C48.9149 95.372 48.5269 95.472 48.1829 95.672C47.8389 95.872 47.5709 96.152 47.3789 96.512C47.1869 96.872 47.0909 97.284 47.0909 97.748V97.88C47.0909 98.36 47.1949 98.784 47.4029 99.152C47.6189 99.512 47.9149 99.796 48.2909 100.004C48.6749 100.204 49.1109 100.304 49.5989 100.304C49.9829 100.304 50.3389 100.236 50.6669 100.1C51.0029 99.964 51.2909 99.756 51.5309 99.476L52.0109 100.028C51.7309 100.364 51.3789 100.62 50.9549 100.796C50.5389 100.972 50.0789 101.06 49.5749 101.06ZM57.9133 101V99.608L57.8773 99.38V97.052C57.8773 96.516 57.7253 96.104 57.4213 95.816C57.1253 95.528 56.6813 95.384 56.0893 95.384C55.6813 95.384 55.2933 95.452 54.9253 95.588C54.5573 95.724 54.2453 95.904 53.9893 96.128L53.6053 95.492C53.9253 95.22 54.3093 95.012 54.7573 94.868C55.2053 94.716 55.6773 94.64 56.1733 94.64C56.9893 94.64 57.6173 94.844 58.0573 95.252C58.5053 95.652 58.7293 96.264 58.7293 97.088V101H57.9133ZM55.7413 101.06C55.2693 101.06 54.8573 100.984 54.5053 100.832C54.1613 100.672 53.8973 100.456 53.7133 100.184C53.5293 99.904 53.4373 99.584 53.4373 99.224C53.4373 98.896 53.5133 98.6 53.6653 98.336C53.8253 98.064 54.0813 97.848 54.4333 97.688C54.7933 97.52 55.2733 97.436 55.8733 97.436H58.0453V98.072H55.8973C55.2893 98.072 54.8653 98.18 54.6253 98.396C54.3933 98.612 54.2773 98.88 54.2773 99.2C54.2773 99.56 54.4173 99.848 54.6973 100.064C54.9773 100.28 55.3693 100.388 55.8733 100.388C56.3533 100.388 56.7653 100.28 57.1093 100.064C57.4613 99.84 57.7173 99.52 57.8773 99.104L58.0693 99.692C57.9093 100.108 57.6293 100.44 57.2293 100.688C56.8373 100.936 56.3413 101.06 55.7413 101.06ZM62.7355 101.06C62.2155 101.06 61.7235 100.988 61.2595 100.844C60.7955 100.692 60.4315 100.504 60.1675 100.28L60.5515 99.608C60.8075 99.8 61.1355 99.968 61.5355 100.112C61.9355 100.248 62.3555 100.316 62.7955 100.316C63.3955 100.316 63.8275 100.224 64.0915 100.04C64.3555 99.848 64.4875 99.596 64.4875 99.284C64.4875 99.052 64.4115 98.872 64.2595 98.744C64.1155 98.608 63.9235 98.508 63.6835 98.444C63.4435 98.372 63.1755 98.312 62.8795 98.264C62.5835 98.216 62.2875 98.16 61.9915 98.096C61.7035 98.032 61.4395 97.94 61.1995 97.82C60.9595 97.692 60.7635 97.52 60.6115 97.304C60.4675 97.088 60.3955 96.8 60.3955 96.44C60.3955 96.096 60.4915 95.788 60.6835 95.516C60.8755 95.244 61.1555 95.032 61.5235 94.88C61.8995 94.72 62.3555 94.64 62.8915 94.64C63.2995 94.64 63.7075 94.696 64.1155 94.808C64.5235 94.912 64.8595 95.052 65.1235 95.228L64.7515 95.912C64.4715 95.72 64.1715 95.584 63.8515 95.504C63.5315 95.416 63.2115 95.372 62.8915 95.372C62.3235 95.372 61.9035 95.472 61.6315 95.672C61.3675 95.864 61.2355 96.112 61.2355 96.416C61.2355 96.656 61.3075 96.844 61.4515 96.98C61.6035 97.116 61.7995 97.224 62.0395 97.304C62.2875 97.376 62.5555 97.436 62.8435 97.484C63.1395 97.532 63.4315 97.592 63.7195 97.664C64.0155 97.728 64.2835 97.82 64.5235 97.94C64.7715 98.052 64.9675 98.216 65.1115 98.432C65.2635 98.64 65.3395 98.916 65.3395 99.26C65.3395 99.628 65.2355 99.948 65.0275 100.22C64.8275 100.484 64.5315 100.692 64.1395 100.844C63.7555 100.988 63.2875 101.06 62.7355 101.06ZM68.8948 101.06C68.3028 101.06 67.8468 100.9 67.5268 100.58C67.2068 100.26 67.0468 99.808 67.0468 99.224V93.308H67.8988V99.176C67.8988 99.544 67.9908 99.828 68.1748 100.028C68.3668 100.228 68.6388 100.328 68.9908 100.328C69.3668 100.328 69.6788 100.22 69.9268 100.004L70.2268 100.616C70.0588 100.768 69.8548 100.88 69.6148 100.952C69.3828 101.024 69.1428 101.06 68.8948 101.06ZM65.9188 95.408V94.7H69.8188V95.408H65.9188ZM71.9218 101V93.908C71.9218 93.348 72.0858 92.896 72.4138 92.552C72.7418 92.208 73.2138 92.036 73.8298 92.036C74.0698 92.036 74.3018 92.068 74.5258 92.132C74.7498 92.196 74.9378 92.296 75.0898 92.432L74.8018 93.068C74.6818 92.964 74.5418 92.888 74.3818 92.84C74.2218 92.784 74.0498 92.756 73.8658 92.756C73.5058 92.756 73.2298 92.856 73.0378 93.056C72.8458 93.256 72.7498 93.552 72.7498 93.944V94.904L72.7738 95.3V101H71.9218ZM70.7938 95.408V94.7H74.6938V95.408H70.7938ZM78.4148 101.06C77.7588 101.06 77.1828 100.924 76.6868 100.652C76.1908 100.372 75.8028 99.992 75.5228 99.512C75.2428 99.024 75.1028 98.468 75.1028 97.844C75.1028 97.22 75.2348 96.668 75.4988 96.188C75.7708 95.708 76.1388 95.332 76.6028 95.06C77.0748 94.78 77.6028 94.64 78.1868 94.64C78.7788 94.64 79.3028 94.776 79.7588 95.048C80.2228 95.312 80.5868 95.688 80.8508 96.176C81.1148 96.656 81.2468 97.212 81.2468 97.844C81.2468 97.884 81.2428 97.928 81.2348 97.976C81.2348 98.016 81.2348 98.06 81.2348 98.108H75.7508V97.472H80.7788L80.4428 97.724C80.4428 97.268 80.3428 96.864 80.1428 96.512C79.9508 96.152 79.6868 95.872 79.3508 95.672C79.0148 95.472 78.6268 95.372 78.1868 95.372C77.7548 95.372 77.3668 95.472 77.0228 95.672C76.6788 95.872 76.4108 96.152 76.2188 96.512C76.0268 96.872 75.9308 97.284 75.9308 97.748V97.88C75.9308 98.36 76.0348 98.784 76.2428 99.152C76.4588 99.512 76.7548 99.796 77.1308 100.004C77.5148 100.204 77.9508 100.304 78.4388 100.304C78.8228 100.304 79.1788 100.236 79.5068 100.1C79.8428 99.964 80.1308 99.756 80.3708 99.476L80.8508 100.028C80.5708 100.364 80.2188 100.62 79.7948 100.796C79.3788 100.972 78.9188 101.06 78.4148 101.06ZM85.657 101.06C85.001 101.06 84.425 100.924 83.929 100.652C83.433 100.372 83.045 99.992 82.765 99.512C82.485 99.024 82.345 98.468 82.345 97.844C82.345 97.22 82.477 96.668 82.741 96.188C83.013 95.708 83.381 95.332 83.845 95.06C84.317 94.78 84.845 94.64 85.429 94.64C86.021 94.64 86.545 94.776 87.001 95.048C87.465 95.312 87.829 95.688 88.093 96.176C88.357 96.656 88.489 97.212 88.489 97.844C88.489 97.884 88.485 97.928 88.477 97.976C88.477 98.016 88.477 98.06 88.477 98.108H82.993V97.472H88.021L87.685 97.724C87.685 97.268 87.585 96.864 87.385 96.512C87.193 96.152 86.929 95.872 86.593 95.672C86.257 95.472 85.869 95.372 85.429 95.372C84.997 95.372 84.609 95.472 84.265 95.672C83.921 95.872 83.653 96.152 83.461 96.512C83.269 96.872 83.173 97.284 83.173 97.748V97.88C83.173 98.36 83.277 98.784 83.485 99.152C83.701 99.512 83.997 99.796 84.373 100.004C84.757 100.204 85.193 100.304 85.681 100.304C86.065 100.304 86.421 100.236 86.749 100.1C87.085 99.964 87.373 99.756 87.613 99.476L88.093 100.028C87.813 100.364 87.461 100.62 87.037 100.796C86.621 100.972 86.161 101.06 85.657 101.06ZM92.7312 101.06C92.1312 101.06 91.5912 100.924 91.1112 100.652C90.6392 100.38 90.2672 100.004 89.9952 99.524C89.7232 99.036 89.5872 98.476 89.5872 97.844C89.5872 97.204 89.7232 96.644 89.9952 96.164C90.2672 95.684 90.6392 95.312 91.1112 95.048C91.5912 94.776 92.1312 94.64 92.7312 94.64C93.2832 94.64 93.7752 94.764 94.2072 95.012C94.6472 95.26 94.9952 95.624 95.2512 96.104C95.5152 96.576 95.6472 97.156 95.6472 97.844C95.6472 98.524 95.5192 99.104 95.2632 99.584C95.0072 100.064 94.6592 100.432 94.2192 100.688C93.7872 100.936 93.2912 101.06 92.7312 101.06ZM92.7912 100.304C93.2392 100.304 93.6392 100.204 93.9912 100.004C94.3512 99.796 94.6312 99.508 94.8312 99.14C95.0392 98.764 95.1432 98.332 95.1432 97.844C95.1432 97.348 95.0392 96.916 94.8312 96.548C94.6312 96.18 94.3512 95.896 93.9912 95.696C93.6392 95.488 93.2392 95.384 92.7912 95.384C92.3512 95.384 91.9552 95.488 91.6032 95.696C91.2512 95.896 90.9712 96.18 90.7632 96.548C90.5552 96.916 90.4512 97.348 90.4512 97.844C90.4512 98.332 90.5552 98.764 90.7632 99.14C90.9712 99.508 91.2512 99.796 91.6032 100.004C91.9552 100.204 92.3512 100.304 92.7912 100.304ZM95.1672 101V99.104L95.2512 97.832L95.1312 96.56V92.096H95.9832V101H95.1672ZM97.84 102.752L98.368 100.532L98.464 101.048C98.28 101.048 98.124 100.988 97.996 100.868C97.876 100.748 97.816 100.592 97.816 100.4C97.816 100.208 97.876 100.052 97.996 99.932C98.124 99.812 98.276 99.752 98.452 99.752C98.636 99.752 98.784 99.816 98.896 99.944C99.016 100.072 99.076 100.224 99.076 100.4C99.076 100.464 99.072 100.528 99.064 100.592C99.056 100.656 99.04 100.728 99.016 100.808C98.992 100.888 98.96 100.984 98.92 101.096L98.416 102.752H97.84ZM111.912 94.64C112.424 94.64 112.868 94.74 113.244 94.94C113.628 95.132 113.924 95.428 114.132 95.828C114.348 96.228 114.456 96.732 114.456 97.34V101H113.604V97.424C113.604 96.76 113.444 96.26 113.124 95.924C112.812 95.58 112.368 95.408 111.792 95.408C111.36 95.408 110.984 95.5 110.664 95.684C110.352 95.86 110.108 96.12 109.932 96.464C109.764 96.8 109.68 97.208 109.68 97.688V101H108.828V97.424C108.828 96.76 108.668 96.26 108.348 95.924C108.028 95.58 107.58 95.408 107.004 95.408C106.58 95.408 106.208 95.5 105.888 95.684C105.568 95.86 105.32 96.12 105.144 96.464C104.976 96.8 104.892 97.208 104.892 97.688V101H104.04V94.7H104.856V96.404L104.724 96.104C104.916 95.648 105.224 95.292 105.648 95.036C106.08 94.772 106.588 94.64 107.172 94.64C107.788 94.64 108.312 94.796 108.744 95.108C109.176 95.412 109.456 95.872 109.584 96.488L109.248 96.356C109.432 95.844 109.756 95.432 110.22 95.12C110.692 94.8 111.256 94.64 111.912 94.64ZM116.766 101V94.7H117.618V101H116.766ZM117.198 93.308C117.022 93.308 116.874 93.248 116.754 93.128C116.634 93.008 116.574 92.864 116.574 92.696C116.574 92.528 116.634 92.388 116.754 92.276C116.874 92.156 117.022 92.096 117.198 92.096C117.374 92.096 117.522 92.152 117.642 92.264C117.762 92.376 117.822 92.516 117.822 92.684C117.822 92.86 117.762 93.008 117.642 93.128C117.53 93.248 117.382 93.308 117.198 93.308ZM119.989 101V92.096H120.841V101H119.989ZM123.883 99.368L123.907 98.276L127.831 94.7H128.875L126.103 97.352L125.623 97.76L123.883 99.368ZM123.211 101V92.096H124.063V101H123.211ZM128.095 101L125.467 97.724L126.019 97.064L129.139 101H128.095ZM130.02 102.752L130.548 100.532L130.644 101.048C130.46 101.048 130.304 100.988 130.176 100.868C130.056 100.748 129.996 100.592 129.996 100.4C129.996 100.208 130.056 100.052 130.176 99.932C130.304 99.812 130.456 99.752 130.632 99.752C130.816 99.752 130.964 99.816 131.076 99.944C131.196 100.072 131.256 100.224 131.256 100.4C131.256 100.464 131.252 100.528 131.244 100.592C131.236 100.656 131.22 100.728 131.196 100.808C131.172 100.888 131.14 100.984 131.1 101.096L130.596 102.752H130.02ZM138.895 101.06C138.239 101.06 137.663 100.924 137.167 100.652C136.671 100.372 136.283 99.992 136.003 99.512C135.723 99.024 135.583 98.468 135.583 97.844C135.583 97.22 135.715 96.668 135.979 96.188C136.251 95.708 136.619 95.332 137.083 95.06C137.555 94.78 138.083 94.64 138.667 94.64C139.259 94.64 139.783 94.776 140.239 95.048C140.703 95.312 141.067 95.688 141.331 96.176C141.595 96.656 141.727 97.212 141.727 97.844C141.727 97.884 141.723 97.928 141.715 97.976C141.715 98.016 141.715 98.06 141.715 98.108H136.231V97.472H141.259L140.923 97.724C140.923 97.268 140.823 96.864 140.623 96.512C140.431 96.152 140.167 95.872 139.831 95.672C139.495 95.472 139.107 95.372 138.667 95.372C138.235 95.372 137.847 95.472 137.503 95.672C137.159 95.872 136.891 96.152 136.699 96.512C136.507 96.872 136.411 97.284 136.411 97.748V97.88C136.411 98.36 136.515 98.784 136.723 99.152C136.939 99.512 137.235 99.796 137.611 100.004C137.995 100.204 138.431 100.304 138.919 100.304C139.303 100.304 139.659 100.236 139.987 100.1C140.323 99.964 140.611 99.756 140.851 99.476L141.331 100.028C141.051 100.364 140.699 100.62 140.275 100.796C139.859 100.972 139.399 101.06 138.895 101.06ZM145.453 101.06C144.861 101.06 144.405 100.9 144.085 100.58C143.765 100.26 143.605 99.808 143.605 99.224V93.308H144.457V99.176C144.457 99.544 144.549 99.828 144.733 100.028C144.925 100.228 145.197 100.328 145.549 100.328C145.925 100.328 146.237 100.22 146.485 100.004L146.785 100.616C146.617 100.768 146.413 100.88 146.173 100.952C145.941 101.024 145.701 101.06 145.453 101.06ZM142.477 95.408V94.7H146.377V95.408H142.477ZM150.73 101.06C150.106 101.06 149.546 100.924 149.05 100.652C148.562 100.372 148.178 99.992 147.898 99.512C147.618 99.024 147.478 98.468 147.478 97.844C147.478 97.212 147.618 96.656 147.898 96.176C148.178 95.696 148.562 95.32 149.05 95.048C149.546 94.776 150.106 94.64 150.73 94.64C151.266 94.64 151.75 94.744 152.182 94.952C152.614 95.16 152.954 95.472 153.202 95.888L152.566 96.32C152.35 96 152.082 95.764 151.762 95.612C151.442 95.46 151.094 95.384 150.718 95.384C150.27 95.384 149.866 95.488 149.506 95.696C149.146 95.896 148.862 96.18 148.654 96.548C148.446 96.916 148.342 97.348 148.342 97.844C148.342 98.34 148.446 98.772 148.654 99.14C148.862 99.508 149.146 99.796 149.506 100.004C149.866 100.204 150.27 100.304 150.718 100.304C151.094 100.304 151.442 100.228 151.762 100.076C152.082 99.924 152.35 99.692 152.566 99.38L153.202 99.812C152.954 100.22 152.614 100.532 152.182 100.748C151.75 100.956 151.266 101.06 150.73 101.06Z" fill="#3C3C43"/>
</g>
</g>
<defs>
<filter id="filter0_d_60_1619" x="-6" y="0" width="208" height="156" filterUnits="userSpaceOnUse" color-interpolation-filters="sRGB">
<feFlood flood-opacity="0" result="BackgroundImageFix"/>
<feColorMatrix in="SourceAlpha" type="matrix" values="0 0 0 0 0 0 0 0 0 0 0 0 0 0 0 0 0 0 127 0" result="hardAlpha"/>
<feOffset/>
<feGaussianBlur stdDeviation="7"/>
<feComposite in2="hardAlpha" operator="out"/>
<feColorMatrix type="matrix" values="0 0 0 0 0.377661 0 0 0 0 0.471527 0 0 0 0 0.878281 0 0 0 0.13 0"/>
<feBlend mode="normal" in2="BackgroundImageFix" result="effect1_dropShadow_60_1619"/>
<feBlend mode="normal" in="SourceGraphic" in2="effect1_dropShadow_60_1619" result="shape"/>
</filter>
</defs>
</svg>
