<svg width="390" height="852" viewBox="0 0 390 852" fill="none" xmlns="http://www.w3.org/2000/svg">
<g clip-path="url(#clip0_176_89)">
<rect width="390" height="852" fill="white"/>
<path d="M41.656 88.4341H46.84V106.61H58.072V110.834H41.656V88.4341ZM68.2755 111.09C66.4622 111.09 64.8302 110.717 63.3795 109.97C61.9502 109.202 60.8302 108.146 60.0195 106.802C59.2088 105.458 58.8035 103.933 58.8035 102.226C58.8035 100.519 59.2088 98.9941 60.0195 97.6501C60.8302 96.3061 61.9502 95.2608 63.3795 94.5141C64.8302 93.7461 66.4622 93.3621 68.2755 93.3621C70.0888 93.3621 71.7102 93.7461 73.1395 94.5141C74.5688 95.2608 75.6888 96.3061 76.4995 97.6501C77.3102 98.9941 77.7155 100.519 77.7155 102.226C77.7155 103.933 77.3102 105.458 76.4995 106.802C75.6888 108.146 74.5688 109.202 73.1395 109.97C71.7102 110.717 70.0888 111.09 68.2755 111.09ZM68.2755 106.994C69.5555 106.994 70.6008 106.567 71.4115 105.714C72.2435 104.839 72.6595 103.677 72.6595 102.226C72.6595 100.775 72.2435 99.6234 71.4115 98.7701C70.6008 97.8954 69.5555 97.4581 68.2755 97.4581C66.9955 97.4581 65.9395 97.8954 65.1075 98.7701C64.2755 99.6234 63.8595 100.775 63.8595 102.226C63.8595 103.677 64.2755 104.839 65.1075 105.714C65.9395 106.567 66.9955 106.994 68.2755 106.994ZM98.4042 93.6181V107.954C98.4042 111.111 97.5829 113.458 95.9402 114.994C94.2976 116.53 91.8976 117.298 88.7402 117.298C87.0762 117.298 85.4976 117.095 84.0042 116.69C82.5109 116.285 81.2736 115.698 80.2922 114.93L82.2762 111.346C83.0016 111.943 83.9189 112.413 85.0282 112.754C86.1376 113.117 87.2469 113.298 88.3562 113.298C90.0842 113.298 91.3536 112.903 92.1642 112.114C92.9962 111.346 93.4122 110.173 93.4122 108.594V107.858C92.1109 109.287 90.2976 110.002 87.9722 110.002C86.3936 110.002 84.9429 109.661 83.6202 108.978C82.3189 108.274 81.2842 107.293 80.5162 106.034C79.7482 104.775 79.3642 103.325 79.3642 101.682C79.3642 100.039 79.7482 98.5888 80.5162 97.3301C81.2842 96.0714 82.3189 95.1008 83.6202 94.4181C84.9429 93.7141 86.3936 93.3621 87.9722 93.3621C90.4682 93.3621 92.3669 94.1834 93.6682 95.8261V93.6181H98.4042ZM88.9642 105.906C90.2869 105.906 91.3642 105.522 92.1962 104.754C93.0496 103.965 93.4762 102.941 93.4762 101.682C93.4762 100.423 93.0496 99.4101 92.1962 98.6421C91.3642 97.8528 90.2869 97.4581 88.9642 97.4581C87.6416 97.4581 86.5536 97.8528 85.7002 98.6421C84.8469 99.4101 84.4202 100.423 84.4202 101.682C84.4202 102.941 84.8469 103.965 85.7002 104.754C86.5536 105.522 87.6416 105.906 88.9642 105.906ZM111.649 88.4341H116.833V110.834H111.649V88.4341ZM131.853 93.3621C133.986 93.3621 135.704 94.0021 137.005 95.2821C138.328 96.5621 138.989 98.4608 138.989 100.978V110.834H133.997V101.746C133.997 100.381 133.698 99.3674 133.101 98.7061C132.504 98.0234 131.64 97.6821 130.509 97.6821C129.25 97.6821 128.248 98.0768 127.501 98.8661C126.754 99.6341 126.381 100.786 126.381 102.322V110.834H121.389V93.6181H126.157V95.6341C126.818 94.9088 127.64 94.3541 128.621 93.9701C129.602 93.5648 130.68 93.3621 131.853 93.3621Z" fill="#6078E0"/>
<path d="M240.981 379.908V382.464H245.037V383.784H240.981V387H239.421V378.6H245.553V379.908H240.981ZM249.622 387.084C248.974 387.084 248.39 386.944 247.87 386.664C247.35 386.384 246.942 385.996 246.646 385.5C246.358 384.996 246.214 384.428 246.214 383.796C246.214 383.164 246.358 382.6 246.646 382.104C246.942 381.608 247.35 381.22 247.87 380.94C248.39 380.66 248.974 380.52 249.622 380.52C250.278 380.52 250.866 380.66 251.386 380.94C251.906 381.22 252.31 381.608 252.598 382.104C252.894 382.6 253.042 383.164 253.042 383.796C253.042 384.428 252.894 384.996 252.598 385.5C252.31 385.996 251.906 386.384 251.386 386.664C250.866 386.944 250.278 387.084 249.622 387.084ZM249.622 385.8C250.174 385.8 250.63 385.616 250.99 385.248C251.35 384.88 251.53 384.396 251.53 383.796C251.53 383.196 251.35 382.712 250.99 382.344C250.63 381.976 250.174 381.792 249.622 381.792C249.07 381.792 248.614 381.976 248.254 382.344C247.902 382.712 247.726 383.196 247.726 383.796C247.726 384.396 247.902 384.88 248.254 385.248C248.614 385.616 249.07 385.8 249.622 385.8ZM255.904 381.528C256.336 380.856 257.096 380.52 258.184 380.52V381.948C258.056 381.924 257.94 381.912 257.836 381.912C257.252 381.912 256.796 382.084 256.468 382.428C256.14 382.764 255.976 383.252 255.976 383.892V387H254.476V380.592H255.904V381.528ZM265.758 380.592V386.028C265.758 388.284 264.606 389.412 262.302 389.412C261.686 389.412 261.102 389.332 260.55 389.172C259.998 389.02 259.542 388.796 259.182 388.5L259.854 387.372C260.134 387.604 260.486 387.788 260.91 387.924C261.342 388.068 261.778 388.14 262.218 388.14C262.922 388.14 263.438 387.98 263.766 387.66C264.094 387.34 264.258 386.852 264.258 386.196V385.86C264.002 386.14 263.69 386.352 263.322 386.496C262.954 386.64 262.55 386.712 262.11 386.712C261.502 386.712 260.95 386.584 260.454 386.328C259.966 386.064 259.578 385.696 259.29 385.224C259.01 384.752 258.87 384.212 258.87 383.604C258.87 382.996 259.01 382.46 259.29 381.996C259.578 381.524 259.966 381.16 260.454 380.904C260.95 380.648 261.502 380.52 262.11 380.52C262.574 380.52 262.994 380.596 263.37 380.748C263.754 380.9 264.074 381.132 264.33 381.444V380.592H265.758ZM262.338 385.44C262.906 385.44 263.37 385.272 263.73 384.936C264.098 384.592 264.282 384.148 264.282 383.604C264.282 383.068 264.098 382.632 263.73 382.296C263.37 381.96 262.906 381.792 262.338 381.792C261.762 381.792 261.29 381.96 260.922 382.296C260.562 382.632 260.382 383.068 260.382 383.604C260.382 384.148 260.562 384.592 260.922 384.936C261.29 385.272 261.762 385.44 262.338 385.44ZM273.754 383.832C273.754 383.936 273.746 384.084 273.73 384.276H268.702C268.79 384.748 269.018 385.124 269.386 385.404C269.762 385.676 270.226 385.812 270.778 385.812C271.482 385.812 272.062 385.58 272.518 385.116L273.322 386.04C273.034 386.384 272.67 386.644 272.23 386.82C271.79 386.996 271.294 387.084 270.742 387.084C270.038 387.084 269.418 386.944 268.882 386.664C268.346 386.384 267.93 385.996 267.634 385.5C267.346 384.996 267.202 384.428 267.202 383.796C267.202 383.172 267.342 382.612 267.622 382.116C267.91 381.612 268.306 381.22 268.81 380.94C269.314 380.66 269.882 380.52 270.514 380.52C271.138 380.52 271.694 380.66 272.182 380.94C272.678 381.212 273.062 381.6 273.334 382.104C273.614 382.6 273.754 383.176 273.754 383.832ZM270.514 381.72C270.034 381.72 269.626 381.864 269.29 382.152C268.962 382.432 268.762 382.808 268.69 383.28H272.326C272.262 382.816 272.066 382.44 271.738 382.152C271.41 381.864 271.002 381.72 270.514 381.72ZM279.047 386.652C278.871 386.796 278.655 386.904 278.399 386.976C278.151 387.048 277.887 387.084 277.607 387.084C276.903 387.084 276.359 386.9 275.975 386.532C275.591 386.164 275.399 385.628 275.399 384.924V381.84H274.343V380.64H275.399V379.176H276.899V380.64H278.615V381.84H276.899V384.888C276.899 385.2 276.975 385.44 277.127 385.608C277.279 385.768 277.499 385.848 277.787 385.848C278.123 385.848 278.403 385.76 278.627 385.584L279.047 386.652ZM287.149 380.52C287.773 380.52 288.329 380.656 288.817 380.928C289.313 381.2 289.701 381.584 289.981 382.08C290.261 382.576 290.401 383.148 290.401 383.796C290.401 384.444 290.261 385.02 289.981 385.524C289.701 386.02 289.313 386.404 288.817 386.676C288.329 386.948 287.773 387.084 287.149 387.084C286.285 387.084 285.601 386.796 285.097 386.22V389.328H283.597V380.592H285.025V381.432C285.273 381.128 285.577 380.9 285.937 380.748C286.305 380.596 286.709 380.52 287.149 380.52ZM286.981 385.8C287.533 385.8 287.985 385.616 288.337 385.248C288.697 384.88 288.877 384.396 288.877 383.796C288.877 383.196 288.697 382.712 288.337 382.344C287.985 381.976 287.533 381.792 286.981 381.792C286.621 381.792 286.297 381.876 286.009 382.044C285.721 382.204 285.493 382.436 285.325 382.74C285.157 383.044 285.073 383.396 285.073 383.796C285.073 384.196 285.157 384.548 285.325 384.852C285.493 385.156 285.721 385.392 286.009 385.56C286.297 385.72 286.621 385.8 286.981 385.8ZM294.19 380.52C295.134 380.52 295.854 380.748 296.35 381.204C296.854 381.652 297.106 382.332 297.106 383.244V387H295.69V386.22C295.506 386.5 295.242 386.716 294.898 386.868C294.562 387.012 294.154 387.084 293.674 387.084C293.194 387.084 292.774 387.004 292.414 386.844C292.054 386.676 291.774 386.448 291.574 386.16C291.382 385.864 291.286 385.532 291.286 385.164C291.286 384.588 291.498 384.128 291.922 383.784C292.354 383.432 293.03 383.256 293.95 383.256H295.606V383.16C295.606 382.712 295.47 382.368 295.198 382.128C294.934 381.888 294.538 381.768 294.01 381.768C293.65 381.768 293.294 381.824 292.942 381.936C292.598 382.048 292.306 382.204 292.066 382.404L291.478 381.312C291.814 381.056 292.218 380.86 292.69 380.724C293.162 380.588 293.662 380.52 294.19 380.52ZM293.986 385.992C294.362 385.992 294.694 385.908 294.982 385.74C295.278 385.564 295.486 385.316 295.606 384.996V384.252H294.058C293.194 384.252 292.762 384.536 292.762 385.104C292.762 385.376 292.87 385.592 293.086 385.752C293.302 385.912 293.602 385.992 293.986 385.992ZM301.011 387.084C300.491 387.084 299.983 387.016 299.487 386.88C298.991 386.744 298.595 386.572 298.299 386.364L298.875 385.224C299.163 385.416 299.507 385.572 299.907 385.692C300.315 385.804 300.715 385.86 301.107 385.86C302.003 385.86 302.451 385.624 302.451 385.152C302.451 384.928 302.335 384.772 302.103 384.684C301.879 384.596 301.515 384.512 301.011 384.432C300.483 384.352 300.051 384.26 299.715 384.156C299.387 384.052 299.099 383.872 298.851 383.616C298.611 383.352 298.491 382.988 298.491 382.524C298.491 381.916 298.743 381.432 299.247 381.072C299.759 380.704 300.447 380.52 301.311 380.52C301.751 380.52 302.191 380.572 302.631 380.676C303.071 380.772 303.431 380.904 303.711 381.072L303.135 382.212C302.591 381.892 301.979 381.732 301.299 381.732C300.859 381.732 300.523 381.8 300.291 381.936C300.067 382.064 299.955 382.236 299.955 382.452C299.955 382.692 300.075 382.864 300.315 382.968C300.563 383.064 300.943 383.156 301.455 383.244C301.967 383.324 302.387 383.416 302.715 383.52C303.043 383.624 303.323 383.8 303.555 384.048C303.795 384.296 303.915 384.648 303.915 385.104C303.915 385.704 303.655 386.184 303.135 386.544C302.615 386.904 301.907 387.084 301.011 387.084ZM307.187 387.084C306.667 387.084 306.159 387.016 305.663 386.88C305.167 386.744 304.771 386.572 304.475 386.364L305.051 385.224C305.339 385.416 305.683 385.572 306.083 385.692C306.491 385.804 306.891 385.86 307.283 385.86C308.179 385.86 308.627 385.624 308.627 385.152C308.627 384.928 308.511 384.772 308.279 384.684C308.055 384.596 307.691 384.512 307.187 384.432C306.659 384.352 306.227 384.26 305.891 384.156C305.563 384.052 305.275 383.872 305.027 383.616C304.787 383.352 304.667 382.988 304.667 382.524C304.667 381.916 304.919 381.432 305.423 381.072C305.935 380.704 306.623 380.52 307.487 380.52C307.927 380.52 308.367 380.572 308.807 380.676C309.247 380.772 309.607 380.904 309.887 381.072L309.311 382.212C308.767 381.892 308.155 381.732 307.475 381.732C307.035 381.732 306.699 381.8 306.467 381.936C306.243 382.064 306.131 382.236 306.131 382.452C306.131 382.692 306.251 382.864 306.491 382.968C306.739 383.064 307.119 383.156 307.631 383.244C308.143 383.324 308.563 383.416 308.891 383.52C309.219 383.624 309.499 383.8 309.731 384.048C309.971 384.296 310.091 384.648 310.091 385.104C310.091 385.704 309.831 386.184 309.311 386.544C308.791 386.904 308.083 387.084 307.187 387.084ZM321.261 380.592L318.897 387H317.457L315.801 382.584L314.121 387H312.681L310.329 380.592H311.745L313.437 385.32L315.201 380.592H316.461L318.189 385.344L319.929 380.592H321.261ZM324.997 387.084C324.349 387.084 323.765 386.944 323.245 386.664C322.725 386.384 322.317 385.996 322.021 385.5C321.733 384.996 321.589 384.428 321.589 383.796C321.589 383.164 321.733 382.6 322.021 382.104C322.317 381.608 322.725 381.22 323.245 380.94C323.765 380.66 324.349 380.52 324.997 380.52C325.653 380.52 326.241 380.66 326.761 380.94C327.281 381.22 327.685 381.608 327.973 382.104C328.269 382.6 328.417 383.164 328.417 383.796C328.417 384.428 328.269 384.996 327.973 385.5C327.685 385.996 327.281 386.384 326.761 386.664C326.241 386.944 325.653 387.084 324.997 387.084ZM324.997 385.8C325.549 385.8 326.005 385.616 326.365 385.248C326.725 384.88 326.905 384.396 326.905 383.796C326.905 383.196 326.725 382.712 326.365 382.344C326.005 381.976 325.549 381.792 324.997 381.792C324.445 381.792 323.989 381.976 323.629 382.344C323.277 382.712 323.101 383.196 323.101 383.796C323.101 384.396 323.277 384.88 323.629 385.248C323.989 385.616 324.445 385.8 324.997 385.8ZM331.279 381.528C331.711 380.856 332.471 380.52 333.559 380.52V381.948C333.431 381.924 333.315 381.912 333.211 381.912C332.627 381.912 332.171 382.084 331.843 382.428C331.515 382.764 331.351 383.252 331.351 383.892V387H329.851V380.592H331.279V381.528ZM341.049 378.096V387H339.609V386.172C339.361 386.476 339.053 386.704 338.685 386.856C338.325 387.008 337.925 387.084 337.485 387.084C336.869 387.084 336.313 386.948 335.817 386.676C335.329 386.404 334.945 386.02 334.665 385.524C334.385 385.02 334.245 384.444 334.245 383.796C334.245 383.148 334.385 382.576 334.665 382.08C334.945 381.584 335.329 381.2 335.817 380.928C336.313 380.656 336.869 380.52 337.485 380.52C337.909 380.52 338.297 380.592 338.649 380.736C339.001 380.88 339.301 381.096 339.549 381.384V378.096H341.049ZM337.665 385.8C338.025 385.8 338.349 385.72 338.637 385.56C338.925 385.392 339.153 385.156 339.321 384.852C339.489 384.548 339.573 384.196 339.573 383.796C339.573 383.396 339.489 383.044 339.321 382.74C339.153 382.436 338.925 382.204 338.637 382.044C338.349 381.876 338.025 381.792 337.665 381.792C337.305 381.792 336.981 381.876 336.693 382.044C336.405 382.204 336.177 382.436 336.009 382.74C335.841 383.044 335.757 383.396 335.757 383.796C335.757 384.196 335.841 384.548 336.009 384.852C336.177 385.156 336.405 385.392 336.693 385.56C336.981 385.72 337.305 385.8 337.665 385.8ZM344.691 384.216C344.691 383.784 344.787 383.428 344.979 383.148C345.179 382.86 345.467 382.548 345.843 382.212C346.131 381.956 346.343 381.736 346.479 381.552C346.623 381.36 346.695 381.144 346.695 380.904C346.695 380.568 346.559 380.296 346.287 380.088C346.015 379.88 345.651 379.776 345.195 379.776C344.331 379.776 343.679 380.084 343.239 380.7L342.075 379.944C342.419 379.472 342.863 379.112 343.407 378.864C343.951 378.608 344.591 378.48 345.327 378.48C346.223 378.48 346.935 378.676 347.463 379.068C347.999 379.452 348.267 379.984 348.267 380.664C348.267 380.992 348.211 381.28 348.099 381.528C347.995 381.776 347.867 381.988 347.715 382.164C347.563 382.332 347.363 382.528 347.115 382.752C346.811 383.024 346.583 383.264 346.431 383.472C346.287 383.68 346.215 383.928 346.215 384.216H344.691ZM345.459 387.084C345.179 387.084 344.947 386.996 344.763 386.82C344.587 386.636 344.499 386.412 344.499 386.148C344.499 385.884 344.587 385.664 344.763 385.488C344.947 385.312 345.179 385.224 345.459 385.224C345.731 385.224 345.955 385.312 346.131 385.488C346.315 385.664 346.407 385.884 346.407 386.148C346.407 386.412 346.315 386.636 346.131 386.82C345.955 386.996 345.731 387.084 345.459 387.084Z" fill="#6078E0"/>
<path d="M23.4034 27.792L27.9634 20.672H30.1394V27.968H31.7874V29.696H30.1394V32H28.2194V29.696H23.4034V27.792ZM28.1874 23.392L25.3554 27.968H28.2194V23.392H28.1874ZM34.6961 24.208C35.3521 24.208 35.9761 24.704 35.9761 25.424C35.9761 26.128 35.4001 26.672 34.6961 26.672C34.0241 26.672 33.4161 26.128 33.4161 25.456C33.4161 24.768 34.0081 24.208 34.6961 24.208ZM34.6961 29.632C35.3681 29.632 35.9761 30.144 35.9761 30.848C35.9761 31.568 35.3841 32.096 34.6961 32.096C34.0241 32.096 33.4161 31.568 33.4161 30.88C33.4161 30.192 34.0081 29.632 34.6961 29.632ZM41.9265 20.48C44.1185 20.48 45.5905 21.648 45.5905 23.696C45.5905 24.88 45.0945 25.872 43.8625 27.008L40.3425 30.272H45.5905V32H38.0065V29.968L42.4065 25.712C43.3505 24.8 43.5745 24.336 43.5745 23.792C43.5745 22.864 42.8225 22.304 41.9265 22.304C40.9985 22.304 40.3105 22.912 40.1825 23.84L38.1665 23.68C38.3745 21.584 39.8465 20.48 41.9265 20.48ZM51.2673 20.48C53.8433 20.48 55.3633 22.464 55.3633 26.336C55.3633 30.192 53.8593 32.192 51.2673 32.192C48.6753 32.192 47.1713 30.192 47.1713 26.336C47.1713 22.464 48.6913 20.48 51.2673 20.48ZM49.0913 26.336C49.0913 28.768 49.7953 30.368 51.2673 30.368C52.7073 30.368 53.4433 28.848 53.4433 26.336C53.4433 23.792 52.7073 22.304 51.2513 22.304C49.8593 22.304 49.0913 23.776 49.0913 26.336Z" fill="#3C3C43"/>
<g filter="url(#filter0_b_176_89)">
<g clip-path="url(#clip1_176_89)">
<rect opacity="0.2" x="319.5" y="22.5" width="3.5" height="11.5" rx="1" fill="#3C3C43"/>
<path d="M314.5 26C314.5 25.4477 314.948 25 315.5 25H317C317.552 25 318 25.4477 318 26V33C318 33.5523 317.552 34 317 34H315.5C314.948 34 314.5 33.5523 314.5 33V26Z" fill="#3C3C43"/>
<path d="M309.5 28.5C309.5 27.9477 309.948 27.5 310.5 27.5H312C312.552 27.5 313 27.9477 313 28.5V33C313 33.5523 312.552 34 312 34H310.5C309.948 34 309.5 33.5523 309.5 33V28.5Z" fill="#3C3C43"/>
<path d="M304.5 30.5C304.5 29.9477 304.948 29.5 305.5 29.5H307C307.552 29.5 308 29.9477 308 30.5V33C308 33.5523 307.552 34 307 34H305.5C304.948 34 304.5 33.5523 304.5 33V30.5Z" fill="#3C3C43"/>
<path d="M338.325 31.789C338.39 31.7255 338.426 31.638 338.424 31.5473C338.422 31.4566 338.383 31.3706 338.316 31.3098C336.979 30.1783 335.022 30.1783 333.686 31.3098C333.618 31.3706 333.579 31.4565 333.577 31.5472C333.575 31.6379 333.611 31.7254 333.676 31.789L335.768 33.9029C335.83 33.965 335.913 34 336.001 34C336.088 34 336.171 33.965 336.233 33.9029L338.325 31.789Z" fill="#3C3C43"/>
<path d="M336 28.869C337.276 28.869 338.506 29.3435 339.451 30.2006C339.579 30.3222 339.781 30.3195 339.905 30.1946L341.115 28.9711C341.179 28.9069 341.214 28.8199 341.213 28.7294C341.212 28.6389 341.175 28.5526 341.11 28.4898C338.231 25.8088 333.772 25.8088 330.893 28.4898C330.828 28.5526 330.791 28.639 330.79 28.7295C330.789 28.82 330.825 28.907 330.889 28.9711L332.098 30.1946C332.222 30.3195 332.424 30.3222 332.552 30.2006C333.497 29.3441 334.726 28.8696 336 28.869Z" fill="#3C3C43"/>
<path opacity="0.2" d="M336 24.8883C338.322 24.8884 340.555 25.7813 342.237 27.3825C342.364 27.5061 342.566 27.5045 342.691 27.379L343.902 26.1555C343.965 26.0918 344.001 26.0055 344 25.9158C343.999 25.826 343.963 25.7402 343.899 25.6772C339.483 21.4409 332.517 21.4409 328.101 25.6772C328.037 25.7401 328.001 25.826 328 25.9157C327.999 26.0055 328.035 26.0917 328.098 26.1555L329.309 27.379C329.434 27.5047 329.637 27.5063 329.763 27.3825C331.446 25.7812 333.679 24.8883 336 24.8883Z" fill="#3C3C43"/>
<g clip-path="url(#clip2_176_89)">
<path d="M350 25.25C350 24.5596 350.56 24 351.25 24H352V32.5H351.25C350.56 32.5 350 31.9404 350 31.25V25.25Z" fill="#3C3C43"/>
<path d="M352 24H354V32.5H352V24Z" fill="#3C3C43"/>
<path d="M354 24H356V32.5H354V24Z" fill="#3C3C43"/>
<path d="M356 24H358V32.5H356V24Z" fill="#3C3C43"/>
<path d="M358 24H360V32.5H358V24Z" fill="#3C3C43"/>
<path d="M360 24H362V32.5H360V24Z" fill="#3C3C43"/>
<path d="M362 24H364V32.5H362V24Z" fill="#3C3C43"/>
<path d="M366 25.25C366 24.5596 365.44 24 364.75 24H364V32.5H364.75C365.44 32.5 366 31.9404 366 31.25V25.25Z" fill="#3C3C43"/>
</g>
<g opacity="0.5">
<path fill-rule="evenodd" clip-rule="evenodd" d="M348 25C348 23.3431 349.343 22 351 22H369C370.657 22 372 23.3431 372 25V31.5C372 33.1569 370.657 34.5 369 34.5H351C349.343 34.5 348 33.1569 348 31.5V25ZM351 23C349.895 23 349 23.8954 349 25V31.5C349 32.6046 349.895 33.5 351 33.5H369C370.105 33.5 371 32.6046 371 31.5V25C371 23.8954 370.105 23 369 23H351Z" fill="#3C3C43"/>
<path d="M373 30.542C373.883 30.1562 374.5 29.2751 374.5 28.25C374.5 27.2248 373.883 26.3438 373 25.958V30.542Z" fill="#3C3C43"/>
</g>
</g>
</g>
<path d="M136.5 843L252.5 843" stroke="black" stroke-width="4" stroke-linecap="round"/>
</g>
<defs>
<filter id="filter0_b_176_89" x="248" y="-36.5" width="184" height="128" filterUnits="userSpaceOnUse" color-interpolation-filters="sRGB">
<feFlood flood-opacity="0" result="BackgroundImageFix"/>
<feGaussianBlur in="BackgroundImageFix" stdDeviation="28"/>
<feComposite in2="SourceAlpha" operator="in" result="effect1_backgroundBlur_176_89"/>
<feBlend mode="normal" in="SourceGraphic" in2="effect1_backgroundBlur_176_89" result="shape"/>
</filter>
<clipPath id="clip0_176_89">
<rect width="390" height="852" fill="white"/>
</clipPath>
<clipPath id="clip1_176_89">
<rect width="72" height="16" fill="white" transform="translate(304 19.5)"/>
</clipPath>
<clipPath id="clip2_176_89">
<rect width="16" height="8.5" fill="white" transform="translate(350 24)"/>
</clipPath>
</defs>
</svg>
