<svg width="390" height="852" viewBox="0 0 390 852" fill="none" xmlns="http://www.w3.org/2000/svg">
<g clip-path="url(#clip0_200_320)">
<rect width="390" height="852" fill="white"/>
<path d="M32.395 26.408V24.92L36.891 17.672H38.539V25.16H40.171V26.408H38.539V29H37.195V26.408H32.395ZM37.163 19.24L33.547 25.16H37.195V19.24H37.163ZM43.5896 22.28C43.5896 22.792 43.1256 23.24 42.6296 23.24C42.1656 23.24 41.6696 22.808 41.6696 22.28C41.6696 21.752 42.1176 21.32 42.6296 21.32C43.1896 21.32 43.5896 21.784 43.5896 22.28ZM43.5896 28.136C43.5896 28.648 43.1416 29.096 42.6296 29.096C42.1336 29.096 41.6696 28.648 41.6696 28.136C41.6696 27.608 42.1016 27.176 42.6296 27.176C43.1576 27.176 43.5896 27.624 43.5896 28.136ZM49.0987 17.48C51.1147 17.48 52.5547 18.664 52.5547 20.552C52.5547 22.28 51.6907 23.16 50.3467 24.44L46.8587 27.72V27.752H52.6347V29H45.3387V27.464L49.6907 23.224C51.1627 21.8 51.2107 21.176 51.2107 20.552C51.2107 19.416 50.3147 18.632 49.1467 18.632C48.0107 18.632 47.2107 19.336 47.0027 20.44L45.5467 20.312C45.8507 18.504 47.2267 17.48 49.0987 17.48ZM57.5574 17.48C60.0694 17.48 61.3974 19.688 61.3974 23.336C61.3974 27 60.0694 29.192 57.5574 29.192C55.0454 29.192 53.7174 26.984 53.7174 23.336C53.7174 19.688 55.0454 17.48 57.5574 17.48ZM55.0614 23.336C55.0614 26.392 55.9414 28.04 57.5574 28.04C59.1734 28.04 60.0534 26.408 60.0534 23.336C60.0534 20.28 59.1894 18.632 57.5414 18.632C55.9734 18.632 55.0614 20.216 55.0614 23.336Z" fill="white"/>
<g filter="url(#filter0_b_200_320)">
<g clip-path="url(#clip1_200_320)">
<rect opacity="0.2" x="317.5" y="19" width="3.5" height="11.5" rx="1" fill="white"/>
<path d="M312.5 22.5C312.5 21.9477 312.948 21.5 313.5 21.5H315C315.552 21.5 316 21.9477 316 22.5V29.5C316 30.0523 315.552 30.5 315 30.5H313.5C312.948 30.5 312.5 30.0523 312.5 29.5V22.5Z" fill="white"/>
<path d="M307.5 25C307.5 24.4477 307.948 24 308.5 24H310C310.552 24 311 24.4477 311 25V29.5C311 30.0523 310.552 30.5 310 30.5H308.5C307.948 30.5 307.5 30.0523 307.5 29.5V25Z" fill="white"/>
<path d="M302.5 27C302.5 26.4477 302.948 26 303.5 26H305C305.552 26 306 26.4477 306 27V29.5C306 30.0523 305.552 30.5 305 30.5H303.5C302.948 30.5 302.5 30.0523 302.5 29.5V27Z" fill="white"/>
<path d="M336.325 28.289C336.39 28.2255 336.426 28.138 336.424 28.0473C336.422 27.9566 336.383 27.8706 336.316 27.8098C334.979 26.6783 333.022 26.6783 331.686 27.8098C331.618 27.8706 331.579 27.9565 331.577 28.0472C331.575 28.1379 331.611 28.2254 331.676 28.289L333.768 30.4029C333.83 30.465 333.913 30.5 334.001 30.5C334.088 30.5 334.171 30.465 334.233 30.4029L336.325 28.289Z" fill="white"/>
<path d="M334 25.3691C335.276 25.369 336.506 25.8436 337.451 26.7006C337.579 26.8222 337.781 26.8196 337.905 26.6947L339.115 25.4712C339.179 25.407 339.214 25.3199 339.213 25.2295C339.212 25.139 339.175 25.0527 339.11 24.9898C336.231 22.3089 331.772 22.3089 328.893 24.9898C328.828 25.0527 328.791 25.139 328.79 25.2295C328.789 25.32 328.825 25.4071 328.889 25.4712L330.098 26.6947C330.222 26.8196 330.424 26.8222 330.552 26.7006C331.497 25.8442 332.726 25.3696 334 25.3691Z" fill="white"/>
<path opacity="0.2" d="M334 21.3883C336.322 21.3884 338.555 22.2813 340.237 23.8825C340.364 24.0061 340.566 24.0045 340.691 23.879L341.902 22.6555C341.965 22.5918 342.001 22.5055 342 22.4158C341.999 22.326 341.963 22.2402 341.899 22.1772C337.483 17.9409 330.517 17.9409 326.101 22.1772C326.037 22.2401 326.001 22.326 326 22.4157C325.999 22.5055 326.035 22.5917 326.098 22.6555L327.309 23.879C327.434 24.0047 327.637 24.0063 327.763 23.8825C329.446 22.2812 331.679 21.3883 334 21.3883Z" fill="white"/>
<g clip-path="url(#clip2_200_320)">
<path d="M348 21.75C348 21.0596 348.56 20.5 349.25 20.5H350V29H349.25C348.56 29 348 28.4404 348 27.75V21.75Z" fill="white"/>
<path d="M350 20.5H352V29H350V20.5Z" fill="white"/>
<path d="M352 20.5H354V29H352V20.5Z" fill="white"/>
<path d="M354 20.5H356V29H354V20.5Z" fill="white"/>
<path d="M356 20.5H358V29H356V20.5Z" fill="white"/>
<path d="M358 20.5H360V29H358V20.5Z" fill="white"/>
<path d="M360 20.5H362V29H360V20.5Z" fill="white"/>
<path d="M364 21.75C364 21.0596 363.44 20.5 362.75 20.5H362V29H362.75C363.44 29 364 28.4404 364 27.75V21.75Z" fill="white"/>
</g>
<g opacity="0.5">
<path fill-rule="evenodd" clip-rule="evenodd" d="M346 21.5C346 19.8431 347.343 18.5 349 18.5H367C368.657 18.5 370 19.8431 370 21.5V28C370 29.6569 368.657 31 367 31H349C347.343 31 346 29.6569 346 28V21.5ZM349 19.5C347.895 19.5 347 20.3954 347 21.5V28C347 29.1046 347.895 30 349 30H367C368.105 30 369 29.1046 369 28V21.5C369 20.3954 368.105 19.5 367 19.5H349Z" fill="white"/>
<path d="M371 27.042C371.883 26.6562 372.5 25.7751 372.5 24.75C372.5 23.7248 371.883 22.8438 371 22.458V27.042Z" fill="white"/>
</g>
</g>
</g>
<path d="M75.512 120.643L68.184 143.043H62.616L57.688 127.875L52.6 143.043H47.064L39.704 120.643H45.08L50.136 136.387L55.416 120.643H60.216L65.336 136.515L70.552 120.643H75.512ZM93.6368 134.499C93.6368 134.563 93.6048 135.011 93.5408 135.843H80.5168C80.7514 136.909 81.3061 137.752 82.1808 138.371C83.0554 138.989 84.1434 139.299 85.4448 139.299C86.3408 139.299 87.1301 139.171 87.8128 138.915C88.5168 138.637 89.1674 138.211 89.7648 137.635L92.4208 140.515C90.7994 142.371 88.4314 143.299 85.3168 143.299C83.3754 143.299 81.6581 142.925 80.1648 142.179C78.6714 141.411 77.5194 140.355 76.7088 139.011C75.8981 137.667 75.4928 136.141 75.4928 134.435C75.4928 132.749 75.8874 131.235 76.6768 129.891C77.4874 128.525 78.5861 127.469 79.9728 126.723C81.3808 125.955 82.9488 125.571 84.6768 125.571C86.3621 125.571 87.8874 125.933 89.2528 126.659C90.6181 127.384 91.6848 128.429 92.4528 129.795C93.2421 131.139 93.6368 132.707 93.6368 134.499ZM84.7088 129.347C83.5781 129.347 82.6288 129.667 81.8608 130.307C81.0928 130.947 80.6234 131.821 80.4528 132.931H88.9328C88.7621 131.843 88.2928 130.979 87.5248 130.339C86.7568 129.677 85.8181 129.347 84.7088 129.347ZM96.9603 119.299H101.952V143.043H96.9603V119.299ZM114.905 143.299C113.071 143.299 111.417 142.925 109.945 142.179C108.495 141.411 107.353 140.355 106.521 139.011C105.711 137.667 105.305 136.141 105.305 134.435C105.305 132.728 105.711 131.203 106.521 129.859C107.353 128.515 108.495 127.469 109.945 126.723C111.417 125.955 113.071 125.571 114.905 125.571C116.719 125.571 118.297 125.955 119.641 126.723C121.007 127.469 121.999 128.547 122.617 129.955L118.745 132.035C117.849 130.456 116.559 129.667 114.873 129.667C113.572 129.667 112.495 130.093 111.641 130.947C110.788 131.8 110.361 132.963 110.361 134.435C110.361 135.907 110.788 137.069 111.641 137.923C112.495 138.776 113.572 139.203 114.873 139.203C116.58 139.203 117.871 138.413 118.745 136.835L122.617 138.947C121.999 140.312 121.007 141.379 119.641 142.147C118.297 142.915 116.719 143.299 114.905 143.299ZM133.465 143.299C131.651 143.299 130.019 142.925 128.569 142.179C127.139 141.411 126.019 140.355 125.209 139.011C124.398 137.667 123.993 136.141 123.993 134.435C123.993 132.728 124.398 131.203 125.209 129.859C126.019 128.515 127.139 127.469 128.569 126.723C130.019 125.955 131.651 125.571 133.465 125.571C135.278 125.571 136.899 125.955 138.329 126.723C139.758 127.469 140.878 128.515 141.689 129.859C142.499 131.203 142.905 132.728 142.905 134.435C142.905 136.141 142.499 137.667 141.689 139.011C140.878 140.355 139.758 141.411 138.329 142.179C136.899 142.925 135.278 143.299 133.465 143.299ZM133.465 139.203C134.745 139.203 135.79 138.776 136.601 137.923C137.433 137.048 137.849 135.885 137.849 134.435C137.849 132.984 137.433 131.832 136.601 130.979C135.79 130.104 134.745 129.667 133.465 129.667C132.185 129.667 131.129 130.104 130.297 130.979C129.465 131.832 129.049 132.984 129.049 134.435C129.049 135.885 129.465 137.048 130.297 137.923C131.129 138.776 132.185 139.203 133.465 139.203ZM168.29 125.571C170.444 125.571 172.151 126.211 173.41 127.491C174.69 128.749 175.33 130.648 175.33 133.187V143.043H170.338V133.955C170.338 132.589 170.05 131.576 169.474 130.915C168.919 130.232 168.119 129.891 167.074 129.891C165.9 129.891 164.972 130.275 164.29 131.043C163.607 131.789 163.266 132.909 163.266 134.403V143.043H158.274V133.955C158.274 131.245 157.186 129.891 155.01 129.891C153.858 129.891 152.94 130.275 152.258 131.043C151.575 131.789 151.234 132.909 151.234 134.403V143.043H146.242V125.827H151.01V127.811C151.65 127.085 152.428 126.531 153.345 126.147C154.284 125.763 155.308 125.571 156.418 125.571C157.634 125.571 158.732 125.816 159.714 126.307C160.695 126.776 161.484 127.469 162.082 128.387C162.786 127.491 163.671 126.797 164.738 126.307C165.826 125.816 167.01 125.571 168.29 125.571ZM196.856 134.499C196.856 134.563 196.824 135.011 196.76 135.843H183.736C183.97 136.909 184.525 137.752 185.4 138.371C186.274 138.989 187.362 139.299 188.664 139.299C189.56 139.299 190.349 139.171 191.032 138.915C191.736 138.637 192.386 138.211 192.984 137.635L195.64 140.515C194.018 142.371 191.65 143.299 188.536 143.299C186.594 143.299 184.877 142.925 183.384 142.179C181.89 141.411 180.738 140.355 179.928 139.011C179.117 137.667 178.712 136.141 178.712 134.435C178.712 132.749 179.106 131.235 179.896 129.891C180.706 128.525 181.805 127.469 183.192 126.723C184.6 125.955 186.168 125.571 187.896 125.571C189.581 125.571 191.106 125.933 192.472 126.659C193.837 127.384 194.904 128.429 195.672 129.795C196.461 131.139 196.856 132.707 196.856 134.499ZM187.928 129.347C186.797 129.347 185.848 129.667 185.08 130.307C184.312 130.947 183.842 131.821 183.672 132.931H192.152C191.981 131.843 191.512 130.979 190.744 130.339C189.976 129.677 189.037 129.347 187.928 129.347ZM214.234 124.867H207.066V120.643H226.586V124.867H219.418V143.043H214.234V124.867ZM235.465 143.299C233.651 143.299 232.019 142.925 230.569 142.179C229.139 141.411 228.019 140.355 227.209 139.011C226.398 137.667 225.993 136.141 225.993 134.435C225.993 132.728 226.398 131.203 227.209 129.859C228.019 128.515 229.139 127.469 230.569 126.723C232.019 125.955 233.651 125.571 235.465 125.571C237.278 125.571 238.899 125.955 240.329 126.723C241.758 127.469 242.878 128.515 243.689 129.859C244.499 131.203 244.905 132.728 244.905 134.435C244.905 136.141 244.499 137.667 243.689 139.011C242.878 140.355 241.758 141.411 240.329 142.179C238.899 142.925 237.278 143.299 235.465 143.299ZM235.465 139.203C236.745 139.203 237.79 138.776 238.601 137.923C239.433 137.048 239.849 135.885 239.849 134.435C239.849 132.984 239.433 131.832 238.601 130.979C237.79 130.104 236.745 129.667 235.465 129.667C234.185 129.667 233.129 130.104 232.297 130.979C231.465 131.832 231.049 132.984 231.049 134.435C231.049 135.885 231.465 137.048 232.297 137.923C233.129 138.776 234.185 139.203 235.465 139.203ZM58.104 173.395C59.384 173.8 60.3867 174.483 61.112 175.443C61.8373 176.381 62.2 177.544 62.2 178.931C62.2 180.893 61.432 182.408 59.896 183.475C58.3813 184.52 56.1627 185.043 53.24 185.043H41.656V162.643H52.6C55.3307 162.643 57.4213 163.165 58.872 164.211C60.344 165.256 61.08 166.675 61.08 168.467C61.08 169.555 60.8133 170.525 60.28 171.379C59.768 172.232 59.0427 172.904 58.104 173.395ZM46.808 166.547V171.827H51.96C53.24 171.827 54.2107 171.603 54.872 171.155C55.5333 170.707 55.864 170.045 55.864 169.171C55.864 168.296 55.5333 167.645 54.872 167.219C54.2107 166.771 53.24 166.547 51.96 166.547H46.808ZM52.856 181.139C54.2213 181.139 55.2453 180.915 55.928 180.467C56.632 180.019 56.984 179.325 56.984 178.387C56.984 176.531 55.608 175.603 52.856 175.603H46.808V181.139H52.856ZM72.7168 167.571C75.3834 167.571 77.4314 168.211 78.8608 169.491C80.2901 170.749 81.0048 172.659 81.0048 175.219V185.043H76.3328V182.899C75.3941 184.499 73.6448 185.299 71.0848 185.299C69.7621 185.299 68.6101 185.075 67.6288 184.627C66.6688 184.179 65.9328 183.56 65.4208 182.771C64.9088 181.981 64.6528 181.085 64.6528 180.083C64.6528 178.483 65.2501 177.224 66.4448 176.307C67.6608 175.389 69.5274 174.931 72.0448 174.931H76.0128C76.0128 173.843 75.6821 173.011 75.0208 172.435C74.3594 171.837 73.3674 171.539 72.0448 171.539C71.1274 171.539 70.2208 171.688 69.3248 171.987C68.4501 172.264 67.7034 172.648 67.0848 173.139L65.2928 169.651C66.2314 168.989 67.3514 168.477 68.6528 168.115C69.9754 167.752 71.3301 167.571 72.7168 167.571ZM72.3328 181.939C73.1861 181.939 73.9434 181.747 74.6048 181.363C75.2661 180.957 75.7354 180.371 76.0128 179.603V177.843H72.5888C70.5408 177.843 69.5168 178.515 69.5168 179.859C69.5168 180.499 69.7621 181.011 70.2528 181.395C70.7648 181.757 71.4581 181.939 72.3328 181.939ZM95.6988 167.571C97.2988 167.571 98.7494 167.944 100.051 168.691C101.373 169.416 102.408 170.451 103.155 171.795C103.901 173.117 104.275 174.664 104.275 176.435C104.275 178.205 103.901 179.763 103.155 181.107C102.408 182.429 101.373 183.464 100.051 184.211C98.7494 184.936 97.2988 185.299 95.6988 185.299C93.3308 185.299 91.5281 184.552 90.2908 183.059V185.043H85.5228V161.299H90.5148V169.651C91.7734 168.264 93.5014 167.571 95.6988 167.571ZM94.8348 181.203C96.1148 181.203 97.1601 180.776 97.9708 179.923C98.8028 179.048 99.2188 177.885 99.2188 176.435C99.2188 174.984 98.8028 173.832 97.9708 172.979C97.1601 172.104 96.1148 171.667 94.8348 171.667C93.5548 171.667 92.4988 172.104 91.6667 172.979C90.8561 173.832 90.4508 174.984 90.4508 176.435C90.4508 177.885 90.8561 179.048 91.6667 179.923C92.4988 180.776 93.5548 181.203 94.8348 181.203ZM124.236 167.827L116.46 186.099C115.67 188.083 114.689 189.48 113.516 190.291C112.364 191.101 110.966 191.507 109.324 191.507C108.428 191.507 107.542 191.368 106.668 191.091C105.793 190.813 105.078 190.429 104.524 189.939L106.348 186.387C106.732 186.728 107.169 186.995 107.66 187.187C108.172 187.379 108.673 187.475 109.164 187.475C109.846 187.475 110.401 187.304 110.828 186.963C111.254 186.643 111.638 186.099 111.98 185.331L112.044 185.171L104.588 167.827H109.74L114.572 179.507L119.436 167.827H124.236ZM137.22 185.427C134.937 185.427 132.868 184.936 131.012 183.955C129.177 182.952 127.726 181.576 126.66 179.827C125.614 178.056 125.092 176.061 125.092 173.843C125.092 171.624 125.614 169.64 126.66 167.891C127.726 166.12 129.177 164.744 131.012 163.763C132.868 162.76 134.948 162.259 137.252 162.259C139.193 162.259 140.942 162.6 142.5 163.283C144.078 163.965 145.401 164.947 146.468 166.227L143.14 169.299C141.625 167.549 139.748 166.675 137.508 166.675C136.121 166.675 134.884 166.984 133.796 167.603C132.708 168.2 131.854 169.043 131.236 170.131C130.638 171.219 130.34 172.456 130.34 173.843C130.34 175.229 130.638 176.467 131.236 177.555C131.854 178.643 132.708 179.496 133.796 180.115C134.884 180.712 136.121 181.011 137.508 181.011C139.748 181.011 141.625 180.125 143.14 178.355L146.468 181.427C145.401 182.728 144.078 183.72 142.5 184.403C140.921 185.085 139.161 185.427 137.22 185.427ZM156.436 167.571C159.102 167.571 161.15 168.211 162.58 169.491C164.009 170.749 164.724 172.659 164.724 175.219V185.043H160.052V182.899C159.113 184.499 157.364 185.299 154.804 185.299C153.481 185.299 152.329 185.075 151.348 184.627C150.388 184.179 149.652 183.56 149.14 182.771C148.628 181.981 148.372 181.085 148.372 180.083C148.372 178.483 148.969 177.224 150.164 176.307C151.38 175.389 153.246 174.931 155.764 174.931H159.732C159.732 173.843 159.401 173.011 158.74 172.435C158.078 171.837 157.086 171.539 155.764 171.539C154.846 171.539 153.94 171.688 153.044 171.987C152.169 172.264 151.422 172.648 150.804 173.139L149.012 169.651C149.95 168.989 151.07 168.477 152.372 168.115C153.694 167.752 155.049 167.571 156.436 167.571ZM156.052 181.939C156.905 181.939 157.662 181.747 158.324 181.363C158.985 180.957 159.454 180.371 159.732 179.603V177.843H156.308C154.26 177.843 153.236 178.515 153.236 179.859C153.236 180.499 153.481 181.011 153.972 181.395C154.484 181.757 155.177 181.939 156.052 181.939ZM174.01 170.099C174.607 169.267 175.407 168.637 176.41 168.211C177.434 167.784 178.607 167.571 179.93 167.571V172.179C179.375 172.136 179.002 172.115 178.81 172.115C177.38 172.115 176.26 172.52 175.45 173.331C174.639 174.12 174.234 175.315 174.234 176.915V185.043H169.242V167.827H174.01V170.099ZM199.606 176.499C199.606 176.563 199.574 177.011 199.51 177.843H186.486C186.72 178.909 187.275 179.752 188.15 180.371C189.024 180.989 190.112 181.299 191.414 181.299C192.31 181.299 193.099 181.171 193.782 180.915C194.486 180.637 195.136 180.211 195.734 179.635L198.39 182.515C196.768 184.371 194.4 185.299 191.286 185.299C189.344 185.299 187.627 184.925 186.134 184.179C184.64 183.411 183.488 182.355 182.678 181.011C181.867 179.667 181.462 178.141 181.462 176.435C181.462 174.749 181.856 173.235 182.646 171.891C183.456 170.525 184.555 169.469 185.942 168.723C187.35 167.955 188.918 167.571 190.646 167.571C192.331 167.571 193.856 167.933 195.222 168.659C196.587 169.384 197.654 170.429 198.422 171.795C199.211 173.139 199.606 174.707 199.606 176.499ZM190.678 171.347C189.547 171.347 188.598 171.667 187.83 172.307C187.062 172.947 186.592 173.821 186.422 174.931H194.902C194.731 173.843 194.262 172.979 193.494 172.339C192.726 171.677 191.787 171.347 190.678 171.347ZM202.289 162.643H208.241L207.249 177.267H203.281L202.289 162.643ZM205.265 185.299C204.39 185.299 203.654 185.021 203.057 184.467C202.481 183.891 202.193 183.197 202.193 182.387C202.193 181.576 202.481 180.904 203.057 180.371C203.633 179.816 204.369 179.539 205.265 179.539C206.161 179.539 206.897 179.816 207.473 180.371C208.049 180.904 208.337 181.576 208.337 182.387C208.337 183.197 208.038 183.891 207.441 184.467C206.865 185.021 206.14 185.299 205.265 185.299Z" fill="#6078E0"/>
<path d="M47.816 255.465H41.864L40.632 258.265H38.984L44.056 247.065H45.64L50.728 258.265H49.048L47.816 255.465ZM47.256 254.185L44.84 248.697L42.424 254.185H47.256ZM53.6468 251.209C53.9134 250.719 54.3081 250.345 54.8307 250.089C55.3534 249.833 55.9881 249.705 56.7348 249.705V251.193C56.6494 251.183 56.5321 251.177 56.3828 251.177C55.5508 251.177 54.8948 251.428 54.4148 251.929C53.9454 252.42 53.7108 253.124 53.7108 254.041V258.265H52.1748V249.785H53.6468V251.209ZM66.2138 254.073C66.2138 254.191 66.2031 254.345 66.1818 254.537H59.3018C59.3978 255.284 59.7231 255.887 60.2778 256.345C60.8431 256.793 61.5418 257.017 62.3738 257.017C63.3871 257.017 64.2031 256.676 64.8218 255.993L65.6698 256.985C65.2858 257.433 64.8058 257.775 64.2298 258.009C63.6644 258.244 63.0298 258.361 62.3258 258.361C61.4298 258.361 60.6351 258.18 59.9418 257.817C59.2484 257.444 58.7098 256.927 58.3258 256.265C57.9524 255.604 57.7658 254.857 57.7658 254.025C57.7658 253.204 57.9471 252.463 58.3098 251.801C58.6831 251.14 59.1898 250.628 59.8298 250.265C60.4804 249.892 61.2111 249.705 62.0218 249.705C62.8324 249.705 63.5524 249.892 64.1818 250.265C64.8218 250.628 65.3178 251.14 65.6698 251.801C66.0324 252.463 66.2138 253.22 66.2138 254.073ZM62.0218 251.001C61.2858 251.001 60.6671 251.225 60.1658 251.673C59.6751 252.121 59.3871 252.708 59.3018 253.433H64.7418C64.6564 252.719 64.3631 252.137 63.8618 251.689C63.3711 251.231 62.7578 251.001 62.0218 251.001ZM80.1475 249.785L76.0355 259.113C75.6728 259.977 75.2462 260.585 74.7555 260.937C74.2755 261.289 73.6942 261.465 73.0115 261.465C72.5955 261.465 72.1902 261.396 71.7955 261.257C71.4115 261.129 71.0915 260.937 70.8355 260.681L71.4915 259.529C71.9288 259.945 72.4355 260.153 73.0115 260.153C73.3848 260.153 73.6942 260.052 73.9395 259.849C74.1955 259.657 74.4248 259.321 74.6275 258.841L74.8995 258.249L71.1555 249.785H72.7555L75.7155 256.569L78.6435 249.785H80.1475ZM84.9786 258.361C84.136 258.361 83.3786 258.175 82.7066 257.801C82.0346 257.428 81.5066 256.916 81.1226 256.265C80.7493 255.604 80.5626 254.857 80.5626 254.025C80.5626 253.193 80.7493 252.452 81.1226 251.801C81.5066 251.14 82.0346 250.628 82.7066 250.265C83.3786 249.892 84.136 249.705 84.9786 249.705C85.8213 249.705 86.5733 249.892 87.2346 250.265C87.9066 250.628 88.4293 251.14 88.8026 251.801C89.1866 252.452 89.3786 253.193 89.3786 254.025C89.3786 254.857 89.1866 255.604 88.8026 256.265C88.4293 256.916 87.9066 257.428 87.2346 257.801C86.5733 258.175 85.8213 258.361 84.9786 258.361ZM84.9786 257.017C85.5226 257.017 86.008 256.895 86.4346 256.649C86.872 256.393 87.2133 256.041 87.4586 255.593C87.704 255.135 87.8266 254.612 87.8266 254.025C87.8266 253.439 87.704 252.921 87.4586 252.473C87.2133 252.015 86.872 251.663 86.4346 251.417C86.008 251.172 85.5226 251.049 84.9786 251.049C84.4346 251.049 83.944 251.172 83.5066 251.417C83.08 251.663 82.7386 252.015 82.4826 252.473C82.2373 252.921 82.1146 253.439 82.1146 254.025C82.1146 254.612 82.2373 255.135 82.4826 255.593C82.7386 256.041 83.08 256.393 83.5066 256.649C83.944 256.895 84.4346 257.017 84.9786 257.017ZM99.4069 249.785V258.265H97.9509V256.985C97.6415 257.423 97.2309 257.764 96.7189 258.009C96.2175 258.244 95.6682 258.361 95.0709 258.361C93.9402 258.361 93.0495 258.052 92.3989 257.433C91.7482 256.804 91.4229 255.881 91.4229 254.665V249.785H92.9589V254.489C92.9589 255.311 93.1562 255.935 93.5509 256.361C93.9455 256.777 94.5109 256.985 95.2469 256.985C96.0575 256.985 96.6975 256.74 97.1669 256.249C97.6362 255.759 97.8709 255.065 97.8709 254.169V249.785H99.4069ZM108.1 251.209C108.367 250.719 108.761 250.345 109.284 250.089C109.807 249.833 110.441 249.705 111.188 249.705V251.193C111.103 251.183 110.985 251.177 110.836 251.177C110.004 251.177 109.348 251.428 108.868 251.929C108.399 252.42 108.164 253.124 108.164 254.041V258.265H106.628V249.785H108.1V251.209ZM120.667 254.073C120.667 254.191 120.656 254.345 120.635 254.537H113.755C113.851 255.284 114.176 255.887 114.731 256.345C115.296 256.793 115.995 257.017 116.827 257.017C117.84 257.017 118.656 256.676 119.275 255.993L120.123 256.985C119.739 257.433 119.259 257.775 118.683 258.009C118.118 258.244 117.483 258.361 116.779 258.361C115.883 258.361 115.088 258.18 114.395 257.817C113.702 257.444 113.163 256.927 112.779 256.265C112.406 255.604 112.219 254.857 112.219 254.025C112.219 253.204 112.4 252.463 112.763 251.801C113.136 251.14 113.643 250.628 114.283 250.265C114.934 249.892 115.664 249.705 116.475 249.705C117.286 249.705 118.006 249.892 118.635 250.265C119.275 250.628 119.771 251.14 120.123 251.801C120.486 252.463 120.667 253.22 120.667 254.073ZM116.475 251.001C115.739 251.001 115.12 251.225 114.619 251.673C114.128 252.121 113.84 252.708 113.755 253.433H119.195C119.11 252.719 118.816 252.137 118.315 251.689C117.824 251.231 117.211 251.001 116.475 251.001ZM130.912 249.785V257.113C130.912 258.596 130.544 259.689 129.808 260.393C129.072 261.108 127.973 261.465 126.512 261.465C125.712 261.465 124.949 261.353 124.224 261.129C123.498 260.916 122.912 260.607 122.464 260.201L123.2 259.017C123.594 259.359 124.08 259.625 124.656 259.817C125.242 260.02 125.845 260.121 126.464 260.121C127.456 260.121 128.186 259.887 128.656 259.417C129.136 258.948 129.376 258.233 129.376 257.273V256.601C129.013 257.039 128.565 257.369 128.032 257.593C127.509 257.807 126.938 257.913 126.32 257.913C125.509 257.913 124.773 257.743 124.112 257.401C123.461 257.049 122.949 256.564 122.576 255.945C122.202 255.316 122.016 254.601 122.016 253.801C122.016 253.001 122.202 252.292 122.576 251.673C122.949 251.044 123.461 250.559 124.112 250.217C124.773 249.876 125.509 249.705 126.32 249.705C126.96 249.705 127.552 249.823 128.096 250.057C128.65 250.292 129.104 250.639 129.456 251.097V249.785H130.912ZM126.496 256.569C127.05 256.569 127.546 256.452 127.984 256.217C128.432 255.983 128.778 255.657 129.024 255.241C129.28 254.815 129.408 254.335 129.408 253.801C129.408 252.98 129.136 252.319 128.592 251.817C128.048 251.305 127.349 251.049 126.496 251.049C125.632 251.049 124.928 251.305 124.384 251.817C123.84 252.319 123.568 252.98 123.568 253.801C123.568 254.335 123.69 254.815 123.936 255.241C124.192 255.657 124.538 255.983 124.976 256.217C125.424 256.452 125.93 256.569 126.496 256.569ZM133.847 249.785H135.383V258.265H133.847V249.785ZM134.615 248.153C134.316 248.153 134.065 248.057 133.863 247.865C133.671 247.673 133.575 247.439 133.575 247.161C133.575 246.884 133.671 246.649 133.863 246.457C134.065 246.255 134.316 246.153 134.615 246.153C134.913 246.153 135.159 246.249 135.351 246.441C135.553 246.623 135.655 246.852 135.655 247.129C135.655 247.417 135.553 247.663 135.351 247.865C135.159 248.057 134.913 248.153 134.615 248.153ZM140.747 258.361C140.054 258.361 139.387 258.271 138.747 258.089C138.107 257.897 137.606 257.657 137.243 257.369L137.883 256.153C138.257 256.42 138.71 256.633 139.243 256.793C139.777 256.953 140.315 257.033 140.859 257.033C142.203 257.033 142.875 256.649 142.875 255.881C142.875 255.625 142.785 255.423 142.603 255.273C142.422 255.124 142.193 255.017 141.915 254.953C141.649 254.879 141.265 254.799 140.763 254.713C140.081 254.607 139.521 254.484 139.083 254.345C138.657 254.207 138.289 253.972 137.979 253.641C137.67 253.311 137.515 252.847 137.515 252.249C137.515 251.481 137.835 250.868 138.475 250.409C139.115 249.94 139.974 249.705 141.051 249.705C141.617 249.705 142.182 249.775 142.747 249.913C143.313 250.052 143.777 250.239 144.139 250.473L143.483 251.689C142.79 251.241 141.974 251.017 141.035 251.017C140.385 251.017 139.889 251.124 139.547 251.337C139.206 251.551 139.035 251.833 139.035 252.185C139.035 252.463 139.131 252.681 139.323 252.841C139.515 253.001 139.75 253.119 140.027 253.193C140.315 253.268 140.715 253.353 141.227 253.449C141.91 253.567 142.459 253.695 142.875 253.833C143.302 253.961 143.665 254.185 143.963 254.505C144.262 254.825 144.411 255.273 144.411 255.849C144.411 256.617 144.081 257.231 143.419 257.689C142.769 258.137 141.878 258.361 140.747 258.361ZM151.099 257.769C150.875 257.961 150.598 258.111 150.267 258.217C149.936 258.313 149.595 258.361 149.243 258.361C148.39 258.361 147.728 258.132 147.259 257.673C146.79 257.215 146.555 256.559 146.555 255.705V251.049H145.115V249.785H146.555V247.929H148.091V249.785H150.523V251.049H148.091V255.641C148.091 256.1 148.203 256.452 148.427 256.697C148.662 256.943 148.992 257.065 149.419 257.065C149.888 257.065 150.288 256.932 150.619 256.665L151.099 257.769ZM160.339 254.073C160.339 254.191 160.328 254.345 160.307 254.537H153.427C153.523 255.284 153.848 255.887 154.403 256.345C154.968 256.793 155.667 257.017 156.499 257.017C157.512 257.017 158.328 256.676 158.947 255.993L159.795 256.985C159.411 257.433 158.931 257.775 158.355 258.009C157.789 258.244 157.155 258.361 156.451 258.361C155.555 258.361 154.76 258.18 154.067 257.817C153.373 257.444 152.835 256.927 152.451 256.265C152.077 255.604 151.891 254.857 151.891 254.025C151.891 253.204 152.072 252.463 152.435 251.801C152.808 251.14 153.315 250.628 153.955 250.265C154.605 249.892 155.336 249.705 156.147 249.705C156.957 249.705 157.677 249.892 158.307 250.265C158.947 250.628 159.443 251.14 159.795 251.801C160.157 252.463 160.339 253.22 160.339 254.073ZM156.147 251.001C155.411 251.001 154.792 251.225 154.291 251.673C153.8 252.121 153.512 252.708 153.427 253.433H158.867C158.781 252.719 158.488 252.137 157.987 251.689C157.496 251.231 156.883 251.001 156.147 251.001ZM163.944 251.209C164.21 250.719 164.605 250.345 165.128 250.089C165.65 249.833 166.285 249.705 167.032 249.705V251.193C166.946 251.183 166.829 251.177 166.68 251.177C165.848 251.177 165.192 251.428 164.712 251.929C164.242 252.42 164.008 253.124 164.008 254.041V258.265H162.472V249.785H163.944V251.209ZM168.925 249.785H170.461V258.265H168.925V249.785ZM169.693 248.153C169.394 248.153 169.143 248.057 168.941 247.865C168.749 247.673 168.653 247.439 168.653 247.161C168.653 246.884 168.749 246.649 168.941 246.457C169.143 246.255 169.394 246.153 169.693 246.153C169.991 246.153 170.237 246.249 170.429 246.441C170.631 246.623 170.733 246.852 170.733 247.129C170.733 247.417 170.631 247.663 170.429 247.865C170.237 248.057 169.991 248.153 169.693 248.153ZM177.922 249.705C178.999 249.705 179.852 250.02 180.482 250.649C181.122 251.268 181.442 252.18 181.442 253.385V258.265H179.906V253.561C179.906 252.74 179.708 252.121 179.314 251.705C178.919 251.289 178.354 251.081 177.618 251.081C176.786 251.081 176.13 251.327 175.65 251.817C175.17 252.297 174.93 252.991 174.93 253.897V258.265H173.394V249.785H174.866V251.065C175.175 250.628 175.591 250.292 176.114 250.057C176.647 249.823 177.25 249.705 177.922 249.705ZM192.443 249.785V257.113C192.443 258.596 192.075 259.689 191.339 260.393C190.603 261.108 189.504 261.465 188.043 261.465C187.243 261.465 186.48 261.353 185.755 261.129C185.03 260.916 184.443 260.607 183.995 260.201L184.731 259.017C185.126 259.359 185.611 259.625 186.187 259.817C186.774 260.02 187.376 260.121 187.995 260.121C188.987 260.121 189.718 259.887 190.187 259.417C190.667 258.948 190.907 258.233 190.907 257.273V256.601C190.544 257.039 190.096 257.369 189.563 257.593C189.04 257.807 188.47 257.913 187.851 257.913C187.04 257.913 186.304 257.743 185.643 257.401C184.992 257.049 184.48 256.564 184.107 255.945C183.734 255.316 183.547 254.601 183.547 253.801C183.547 253.001 183.734 252.292 184.107 251.673C184.48 251.044 184.992 250.559 185.643 250.217C186.304 249.876 187.04 249.705 187.851 249.705C188.491 249.705 189.083 249.823 189.627 250.057C190.182 250.292 190.635 250.639 190.987 251.097V249.785H192.443ZM188.027 256.569C188.582 256.569 189.078 256.452 189.515 256.217C189.963 255.983 190.31 255.657 190.555 255.241C190.811 254.815 190.939 254.335 190.939 253.801C190.939 252.98 190.667 252.319 190.123 251.817C189.579 251.305 188.88 251.049 188.027 251.049C187.163 251.049 186.459 251.305 185.915 251.817C185.371 252.319 185.099 252.98 185.099 253.801C185.099 254.335 185.222 254.815 185.467 255.241C185.723 255.657 186.07 255.983 186.507 256.217C186.955 256.452 187.462 256.569 188.027 256.569ZM202.763 249.705C203.936 249.705 204.832 249.993 205.451 250.569C206.08 251.145 206.395 252.004 206.395 253.145V258.265H204.939V257.145C204.683 257.54 204.315 257.844 203.835 258.057C203.365 258.26 202.805 258.361 202.155 258.361C201.205 258.361 200.443 258.132 199.867 257.673C199.301 257.215 199.019 256.612 199.019 255.865C199.019 255.119 199.291 254.521 199.835 254.073C200.379 253.615 201.243 253.385 202.427 253.385H204.859V253.081C204.859 252.42 204.667 251.913 204.283 251.561C203.899 251.209 203.333 251.033 202.587 251.033C202.085 251.033 201.595 251.119 201.115 251.289C200.635 251.449 200.229 251.668 199.899 251.945L199.259 250.793C199.696 250.441 200.219 250.175 200.827 249.993C201.435 249.801 202.08 249.705 202.763 249.705ZM202.411 257.177C202.997 257.177 203.504 257.049 203.931 256.793C204.357 256.527 204.667 256.153 204.859 255.673V254.489H202.491C201.189 254.489 200.539 254.927 200.539 255.801C200.539 256.228 200.704 256.564 201.035 256.809C201.365 257.055 201.824 257.177 202.411 257.177ZM211.669 258.361C210.976 258.361 210.309 258.271 209.669 258.089C209.029 257.897 208.528 257.657 208.165 257.369L208.805 256.153C209.179 256.42 209.632 256.633 210.165 256.793C210.699 256.953 211.237 257.033 211.781 257.033C213.125 257.033 213.797 256.649 213.797 255.881C213.797 255.625 213.707 255.423 213.525 255.273C213.344 255.124 213.115 255.017 212.837 254.953C212.571 254.879 212.187 254.799 211.685 254.713C211.003 254.607 210.443 254.484 210.005 254.345C209.579 254.207 209.211 253.972 208.901 253.641C208.592 253.311 208.437 252.847 208.437 252.249C208.437 251.481 208.757 250.868 209.397 250.409C210.037 249.94 210.896 249.705 211.973 249.705C212.539 249.705 213.104 249.775 213.669 249.913C214.235 250.052 214.699 250.239 215.061 250.473L214.405 251.689C213.712 251.241 212.896 251.017 211.957 251.017C211.307 251.017 210.811 251.124 210.469 251.337C210.128 251.551 209.957 251.833 209.957 252.185C209.957 252.463 210.053 252.681 210.245 252.841C210.437 253.001 210.672 253.119 210.949 253.193C211.237 253.268 211.637 253.353 212.149 253.449C212.832 253.567 213.381 253.695 213.797 253.833C214.224 253.961 214.587 254.185 214.885 254.505C215.184 254.825 215.333 255.273 215.333 255.849C215.333 256.617 215.003 257.231 214.341 257.689C213.691 258.137 212.8 258.361 211.669 258.361ZM224.638 249.705C225.811 249.705 226.707 249.993 227.326 250.569C227.955 251.145 228.27 252.004 228.27 253.145V258.265H226.814V257.145C226.558 257.54 226.19 257.844 225.71 258.057C225.24 258.26 224.68 258.361 224.03 258.361C223.08 258.361 222.318 258.132 221.742 257.673C221.176 257.215 220.894 256.612 220.894 255.865C220.894 255.119 221.166 254.521 221.71 254.073C222.254 253.615 223.118 253.385 224.302 253.385H226.734V253.081C226.734 252.42 226.542 251.913 226.158 251.561C225.774 251.209 225.208 251.033 224.462 251.033C223.96 251.033 223.47 251.119 222.99 251.289C222.51 251.449 222.104 251.668 221.774 251.945L221.134 250.793C221.571 250.441 222.094 250.175 222.702 249.993C223.31 249.801 223.955 249.705 224.638 249.705ZM224.286 257.177C224.872 257.177 225.379 257.049 225.806 256.793C226.232 256.527 226.542 256.153 226.734 255.673V254.489H224.366C223.064 254.489 222.414 254.927 222.414 255.801C222.414 256.228 222.579 256.564 222.91 256.809C223.24 257.055 223.699 257.177 224.286 257.177ZM231.48 251.897C231.182 251.897 230.926 251.796 230.712 251.593C230.499 251.38 230.392 251.113 230.392 250.793C230.392 250.484 230.499 250.228 230.712 250.025C230.926 249.812 231.182 249.705 231.48 249.705C231.779 249.705 232.03 249.807 232.232 250.009C232.435 250.212 232.536 250.473 232.536 250.793C232.536 251.113 232.43 251.38 232.216 251.593C232.014 251.796 231.768 251.897 231.48 251.897ZM231.48 258.361C231.182 258.361 230.926 258.26 230.712 258.057C230.499 257.844 230.392 257.577 230.392 257.257C230.392 256.948 230.499 256.692 230.712 256.489C230.926 256.276 231.182 256.169 231.48 256.169C231.779 256.169 232.03 256.271 232.232 256.473C232.435 256.676 232.536 256.937 232.536 257.257C232.536 257.577 232.43 257.844 232.216 258.057C232.014 258.26 231.768 258.361 231.48 258.361Z" fill="#6078E0"/>
<rect x="40" y="461" width="312" height="77" rx="8" fill="#F5F6FA"/>
<path d="M76.9746 487.46V490.868H82.3826V492.628H76.9746V496.916H74.8946V485.716H83.0706V487.46H76.9746ZM87.8885 488.276C89.1472 488.276 90.1072 488.58 90.7685 489.188C91.4405 489.785 91.7765 490.692 91.7765 491.908V496.916H89.8885V495.876C89.6432 496.249 89.2912 496.537 88.8325 496.74C88.3845 496.932 87.8405 497.028 87.2005 497.028C86.5605 497.028 86.0005 496.921 85.5205 496.708C85.0405 496.484 84.6672 496.18 84.4005 495.796C84.1445 495.401 84.0165 494.959 84.0165 494.468C84.0165 493.7 84.2992 493.087 84.8645 492.628C85.4405 492.159 86.3418 491.924 87.5685 491.924H89.7765V491.796C89.7765 491.199 89.5952 490.74 89.2325 490.42C88.8805 490.1 88.3525 489.94 87.6485 489.94C87.1685 489.94 86.6938 490.015 86.2245 490.164C85.7658 490.313 85.3765 490.521 85.0565 490.788L84.2725 489.332C84.7205 488.991 85.2592 488.729 85.8885 488.548C86.5178 488.367 87.1845 488.276 87.8885 488.276ZM87.6165 495.572C88.1178 495.572 88.5605 495.46 88.9445 495.236C89.3392 495.001 89.6165 494.671 89.7765 494.244V493.252H87.7125C86.5605 493.252 85.9845 493.631 85.9845 494.388C85.9845 494.751 86.1285 495.039 86.4165 495.252C86.7045 495.465 87.1045 495.572 87.6165 495.572ZM105.127 488.276C106.205 488.276 107.058 488.591 107.687 489.22C108.317 489.839 108.631 490.772 108.631 492.02V496.916H106.631V492.276C106.631 491.529 106.466 490.969 106.135 490.596C105.805 490.212 105.33 490.02 104.711 490.02C104.039 490.02 103.501 490.244 103.095 490.692C102.69 491.129 102.487 491.759 102.487 492.58V496.916H100.487V492.276C100.487 491.529 100.322 490.969 99.9913 490.596C99.6606 490.212 99.1859 490.02 98.5673 490.02C97.8846 490.02 97.3406 490.239 96.9353 490.676C96.5406 491.113 96.3433 491.748 96.3433 492.58V496.916H94.3433V488.372H96.2473V489.46C96.5673 489.076 96.9673 488.783 97.4473 488.58C97.9273 488.377 98.4606 488.276 99.0473 488.276C99.6873 488.276 100.253 488.399 100.743 488.644C101.245 488.879 101.639 489.231 101.927 489.7C102.279 489.252 102.733 488.905 103.287 488.66C103.842 488.404 104.455 488.276 105.127 488.276ZM111.187 488.372H113.187V496.916H111.187V488.372ZM112.195 486.964C111.832 486.964 111.528 486.852 111.283 486.628C111.038 486.393 110.915 486.105 110.915 485.764C110.915 485.423 111.038 485.14 111.283 484.916C111.528 484.681 111.832 484.564 112.195 484.564C112.558 484.564 112.862 484.676 113.107 484.9C113.352 485.113 113.475 485.385 113.475 485.716C113.475 486.068 113.352 486.367 113.107 486.612C112.872 486.847 112.568 486.964 112.195 486.964ZM115.812 485.044H117.812V496.916H115.812V485.044ZM128.437 488.372L124.437 497.604C124.064 498.532 123.61 499.183 123.077 499.556C122.544 499.94 121.898 500.132 121.141 500.132C120.714 500.132 120.293 500.063 119.877 499.924C119.461 499.785 119.12 499.593 118.853 499.348L119.653 497.876C119.845 498.057 120.069 498.201 120.325 498.308C120.592 498.415 120.858 498.468 121.125 498.468C121.477 498.468 121.765 498.377 121.989 498.196C122.224 498.015 122.437 497.711 122.629 497.284L122.773 496.948L119.045 488.372H121.125L123.813 494.692L126.517 488.372H128.437ZM144.893 488.276C145.97 488.276 146.824 488.591 147.453 489.22C148.082 489.839 148.397 490.772 148.397 492.02V496.916H146.397V492.276C146.397 491.529 146.232 490.969 145.901 490.596C145.57 490.212 145.096 490.02 144.477 490.02C143.805 490.02 143.266 490.244 142.861 490.692C142.456 491.129 142.253 491.759 142.253 492.58V496.916H140.253V492.276C140.253 491.529 140.088 490.969 139.757 490.596C139.426 490.212 138.952 490.02 138.333 490.02C137.65 490.02 137.106 490.239 136.701 490.676C136.306 491.113 136.109 491.748 136.109 492.58V496.916H134.109V488.372H136.013V489.46C136.333 489.076 136.733 488.783 137.213 488.58C137.693 488.377 138.226 488.276 138.813 488.276C139.453 488.276 140.018 488.399 140.509 488.644C141.01 488.879 141.405 489.231 141.693 489.7C142.045 489.252 142.498 488.905 143.053 488.66C143.608 488.404 144.221 488.276 144.893 488.276ZM159.063 492.692C159.063 492.831 159.052 493.028 159.031 493.284H152.327C152.444 493.913 152.748 494.415 153.239 494.788C153.74 495.151 154.359 495.332 155.095 495.332C156.033 495.332 156.807 495.023 157.415 494.404L158.487 495.636C158.103 496.095 157.617 496.441 157.031 496.676C156.444 496.911 155.783 497.028 155.047 497.028C154.108 497.028 153.281 496.841 152.567 496.468C151.852 496.095 151.297 495.577 150.903 494.916C150.519 494.244 150.327 493.487 150.327 492.644C150.327 491.812 150.513 491.065 150.887 490.404C151.271 489.732 151.799 489.209 152.471 488.836C153.143 488.463 153.9 488.276 154.743 488.276C155.575 488.276 156.316 488.463 156.967 488.836C157.628 489.199 158.14 489.716 158.503 490.388C158.876 491.049 159.063 491.817 159.063 492.692ZM154.743 489.876C154.103 489.876 153.559 490.068 153.111 490.452C152.673 490.825 152.407 491.327 152.311 491.956H157.159C157.073 491.337 156.812 490.836 156.375 490.452C155.937 490.068 155.393 489.876 154.743 489.876ZM171.768 488.276C172.845 488.276 173.699 488.591 174.328 489.22C174.957 489.839 175.272 490.772 175.272 492.02V496.916H173.272V492.276C173.272 491.529 173.107 490.969 172.776 490.596C172.445 490.212 171.971 490.02 171.352 490.02C170.68 490.02 170.141 490.244 169.736 490.692C169.331 491.129 169.128 491.759 169.128 492.58V496.916H167.128V492.276C167.128 491.529 166.963 490.969 166.632 490.596C166.301 490.212 165.827 490.02 165.208 490.02C164.525 490.02 163.981 490.239 163.576 490.676C163.181 491.113 162.984 491.748 162.984 492.58V496.916H160.984V488.372H162.888V489.46C163.208 489.076 163.608 488.783 164.088 488.58C164.568 488.377 165.101 488.276 165.688 488.276C166.328 488.276 166.893 488.399 167.384 488.644C167.885 488.879 168.28 489.231 168.568 489.7C168.92 489.252 169.373 488.905 169.928 488.66C170.483 488.404 171.096 488.276 171.768 488.276ZM182.564 488.276C183.396 488.276 184.137 488.457 184.788 488.82C185.449 489.183 185.966 489.695 186.34 490.356C186.713 491.017 186.9 491.78 186.9 492.644C186.9 493.508 186.713 494.276 186.34 494.948C185.966 495.609 185.449 496.121 184.788 496.484C184.137 496.847 183.396 497.028 182.564 497.028C181.977 497.028 181.438 496.927 180.948 496.724C180.468 496.521 180.062 496.217 179.732 495.812V496.916H177.828V485.044H179.828V489.412C180.169 489.039 180.569 488.756 181.028 488.564C181.497 488.372 182.009 488.276 182.564 488.276ZM182.34 495.316C183.076 495.316 183.678 495.071 184.148 494.58C184.628 494.089 184.868 493.444 184.868 492.644C184.868 491.844 184.628 491.199 184.148 490.708C183.678 490.217 183.076 489.972 182.34 489.972C181.86 489.972 181.428 490.084 181.044 490.308C180.66 490.521 180.356 490.831 180.132 491.236C179.908 491.641 179.796 492.111 179.796 492.644C179.796 493.177 179.908 493.647 180.132 494.052C180.356 494.457 180.66 494.772 181.044 494.996C181.428 495.209 181.86 495.316 182.34 495.316ZM196.828 492.692C196.828 492.831 196.818 493.028 196.796 493.284H190.092C190.21 493.913 190.514 494.415 191.004 494.788C191.506 495.151 192.124 495.332 192.86 495.332C193.799 495.332 194.572 495.023 195.18 494.404L196.252 495.636C195.868 496.095 195.383 496.441 194.796 496.676C194.21 496.911 193.548 497.028 192.812 497.028C191.874 497.028 191.047 496.841 190.332 496.468C189.618 496.095 189.063 495.577 188.668 494.916C188.284 494.244 188.092 493.487 188.092 492.644C188.092 491.812 188.279 491.065 188.652 490.404C189.036 489.732 189.564 489.209 190.236 488.836C190.908 488.463 191.666 488.276 192.508 488.276C193.34 488.276 194.082 488.463 194.732 488.836C195.394 489.199 195.906 489.716 196.268 490.388C196.642 491.049 196.828 491.817 196.828 492.692ZM192.508 489.876C191.868 489.876 191.324 490.068 190.876 490.452C190.439 490.825 190.172 491.327 190.076 491.956H194.924C194.839 491.337 194.578 490.836 194.14 490.452C193.703 490.068 193.159 489.876 192.508 489.876ZM200.654 489.62C201.23 488.724 202.243 488.276 203.694 488.276V490.18C203.523 490.148 203.368 490.132 203.23 490.132C202.451 490.132 201.843 490.361 201.406 490.82C200.968 491.268 200.75 491.919 200.75 492.772V496.916H198.75V488.372H200.654V489.62ZM213.73 497.028C212.866 497.028 212.087 496.841 211.394 496.468C210.701 496.095 210.157 495.577 209.762 494.916C209.378 494.244 209.186 493.487 209.186 492.644C209.186 491.801 209.378 491.049 209.762 490.388C210.157 489.727 210.701 489.209 211.394 488.836C212.087 488.463 212.866 488.276 213.73 488.276C214.605 488.276 215.389 488.463 216.082 488.836C216.775 489.209 217.314 489.727 217.698 490.388C218.093 491.049 218.29 491.801 218.29 492.644C218.29 493.487 218.093 494.244 217.698 494.916C217.314 495.577 216.775 496.095 216.082 496.468C215.389 496.841 214.605 497.028 213.73 497.028ZM213.73 495.316C214.466 495.316 215.074 495.071 215.554 494.58C216.034 494.089 216.274 493.444 216.274 492.644C216.274 491.844 216.034 491.199 215.554 490.708C215.074 490.217 214.466 489.972 213.73 489.972C212.994 489.972 212.386 490.217 211.906 490.708C211.437 491.199 211.202 491.844 211.202 492.644C211.202 493.444 211.437 494.089 211.906 494.58C212.386 495.071 212.994 495.316 213.73 495.316ZM223.675 486.548C222.832 486.548 222.411 487.007 222.411 487.924V488.436H224.763V490.036H222.475V496.916H220.475V490.036H219.067V488.436H220.475V487.892C220.475 486.975 220.741 486.255 221.275 485.732C221.808 485.199 222.56 484.932 223.531 484.932C224.299 484.932 224.901 485.087 225.339 485.396L224.779 486.9C224.437 486.665 224.069 486.548 223.675 486.548ZM233.795 488.276C235.053 488.276 236.013 488.58 236.675 489.188C237.347 489.785 237.683 490.692 237.683 491.908V496.916H235.795V495.876C235.549 496.249 235.197 496.537 234.739 496.74C234.291 496.932 233.747 497.028 233.107 497.028C232.467 497.028 231.907 496.921 231.427 496.708C230.947 496.484 230.573 496.18 230.307 495.796C230.051 495.401 229.923 494.959 229.923 494.468C229.923 493.7 230.205 493.087 230.771 492.628C231.347 492.159 232.248 491.924 233.475 491.924H235.683V491.796C235.683 491.199 235.501 490.74 235.139 490.42C234.787 490.1 234.259 489.94 233.555 489.94C233.075 489.94 232.6 490.015 232.131 490.164C231.672 490.313 231.283 490.521 230.963 490.788L230.179 489.332C230.627 488.991 231.165 488.729 231.795 488.548C232.424 488.367 233.091 488.276 233.795 488.276ZM233.523 495.572C234.024 495.572 234.467 495.46 234.851 495.236C235.245 495.001 235.523 494.671 235.683 494.244V493.252H233.619C232.467 493.252 231.891 493.631 231.891 494.388C231.891 494.751 232.035 495.039 232.323 495.252C232.611 495.465 233.011 495.572 233.523 495.572ZM245.098 488.276C246.175 488.276 247.039 488.591 247.69 489.22C248.34 489.849 248.666 490.783 248.666 492.02V496.916H246.666V492.276C246.666 491.529 246.49 490.969 246.138 490.596C245.786 490.212 245.284 490.02 244.634 490.02C243.898 490.02 243.316 490.244 242.89 490.692C242.463 491.129 242.25 491.764 242.25 492.596V496.916H240.25V488.372H242.154V489.476C242.484 489.081 242.9 488.783 243.402 488.58C243.903 488.377 244.468 488.276 245.098 488.276ZM263.657 492.692C263.657 492.831 263.646 493.028 263.625 493.284H256.921C257.038 493.913 257.342 494.415 257.833 494.788C258.334 495.151 258.953 495.332 259.689 495.332C260.627 495.332 261.401 495.023 262.009 494.404L263.081 495.636C262.697 496.095 262.211 496.441 261.625 496.676C261.038 496.911 260.377 497.028 259.641 497.028C258.702 497.028 257.875 496.841 257.161 496.468C256.446 496.095 255.891 495.577 255.497 494.916C255.113 494.244 254.921 493.487 254.921 492.644C254.921 491.812 255.107 491.065 255.481 490.404C255.865 489.732 256.393 489.209 257.065 488.836C257.737 488.463 258.494 488.276 259.337 488.276C260.169 488.276 260.91 488.463 261.561 488.836C262.222 489.199 262.734 489.716 263.097 490.388C263.47 491.049 263.657 491.817 263.657 492.692ZM259.337 489.876C258.697 489.876 258.153 490.068 257.705 490.452C257.267 490.825 257.001 491.327 256.905 491.956H261.753C261.667 491.337 261.406 490.836 260.969 490.452C260.531 490.068 259.987 489.876 259.337 489.876ZM270.783 496.916L268.591 493.956L266.383 496.916H264.175L267.503 492.58L264.319 488.372H266.543L268.639 491.172L270.735 488.372H272.895L269.695 492.548L273.039 496.916H270.783ZM274.515 488.372H276.515V496.916H274.515V488.372ZM275.523 486.964C275.16 486.964 274.856 486.852 274.611 486.628C274.366 486.393 274.243 486.105 274.243 485.764C274.243 485.423 274.366 485.14 274.611 484.916C274.856 484.681 275.16 484.564 275.523 484.564C275.886 484.564 276.19 484.676 276.435 484.9C276.68 485.113 276.803 485.385 276.803 485.716C276.803 486.068 276.68 486.367 276.435 486.612C276.2 486.847 275.896 486.964 275.523 486.964ZM281.78 497.028C281.087 497.028 280.409 496.937 279.748 496.756C279.087 496.575 278.559 496.345 278.164 496.068L278.932 494.548C279.316 494.804 279.775 495.012 280.308 495.172C280.852 495.321 281.385 495.396 281.908 495.396C283.103 495.396 283.7 495.081 283.7 494.452C283.7 494.153 283.545 493.945 283.236 493.828C282.937 493.711 282.452 493.599 281.78 493.492C281.076 493.385 280.5 493.263 280.052 493.124C279.615 492.985 279.231 492.745 278.9 492.404C278.58 492.052 278.42 491.567 278.42 490.948C278.42 490.137 278.756 489.492 279.428 489.012C280.111 488.521 281.028 488.276 282.18 488.276C282.767 488.276 283.353 488.345 283.94 488.484C284.527 488.612 285.007 488.788 285.38 489.012L284.612 490.532C283.887 490.105 283.071 489.892 282.164 489.892C281.577 489.892 281.129 489.983 280.82 490.164C280.521 490.335 280.372 490.564 280.372 490.852C280.372 491.172 280.532 491.401 280.852 491.54C281.183 491.668 281.689 491.791 282.372 491.908C283.055 492.015 283.615 492.137 284.052 492.276C284.489 492.415 284.863 492.649 285.172 492.98C285.492 493.311 285.652 493.78 285.652 494.388C285.652 495.188 285.305 495.828 284.612 496.308C283.919 496.788 282.975 497.028 281.78 497.028ZM292.511 496.452C292.276 496.644 291.988 496.788 291.647 496.884C291.316 496.98 290.964 497.028 290.591 497.028C289.652 497.028 288.927 496.783 288.414 496.292C287.903 495.801 287.647 495.087 287.647 494.148V490.036H286.239V488.436H287.647V486.484H289.647V488.436H291.935V490.036H289.647V494.1C289.647 494.516 289.748 494.836 289.951 495.06C290.153 495.273 290.447 495.38 290.831 495.38C291.279 495.38 291.652 495.263 291.951 495.028L292.511 496.452ZM294.156 488.372H296.156V496.916H294.156V488.372ZM295.164 486.964C294.801 486.964 294.497 486.852 294.252 486.628C294.006 486.393 293.884 486.105 293.884 485.764C293.884 485.423 294.006 485.14 294.252 484.916C294.497 484.681 294.801 484.564 295.164 484.564C295.526 484.564 295.83 484.676 296.076 484.9C296.321 485.113 296.444 485.385 296.444 485.716C296.444 486.068 296.321 486.367 296.076 486.612C295.841 486.847 295.537 486.964 295.164 486.964ZM303.629 488.276C304.706 488.276 305.57 488.591 306.221 489.22C306.871 489.849 307.197 490.783 307.197 492.02V496.916H305.197V492.276C305.197 491.529 305.021 490.969 304.669 490.596C304.317 490.212 303.815 490.02 303.165 490.02C302.429 490.02 301.847 490.244 301.421 490.692C300.994 491.129 300.781 491.764 300.781 492.596V496.916H298.781V488.372H300.685V489.476C301.015 489.081 301.431 488.783 301.933 488.58C302.434 488.377 302.999 488.276 303.629 488.276ZM318.292 488.372V495.62C318.292 498.628 316.756 500.132 313.684 500.132C312.863 500.132 312.084 500.025 311.348 499.812C310.612 499.609 310.004 499.311 309.524 498.916L310.42 497.412C310.793 497.721 311.263 497.967 311.828 498.148C312.404 498.34 312.985 498.436 313.572 498.436C314.511 498.436 315.199 498.223 315.636 497.796C316.073 497.369 316.292 496.719 316.292 495.844V495.396C315.951 495.769 315.535 496.052 315.044 496.244C314.553 496.436 314.015 496.532 313.428 496.532C312.617 496.532 311.881 496.361 311.22 496.02C310.569 495.668 310.052 495.177 309.668 494.548C309.295 493.919 309.108 493.199 309.108 492.388C309.108 491.577 309.295 490.863 309.668 490.244C310.052 489.615 310.569 489.129 311.22 488.788C311.881 488.447 312.617 488.276 313.428 488.276C314.047 488.276 314.607 488.377 315.108 488.58C315.62 488.783 316.047 489.092 316.388 489.508V488.372H318.292ZM313.732 494.836C314.489 494.836 315.108 494.612 315.588 494.164C316.079 493.705 316.324 493.113 316.324 492.388C316.324 491.673 316.079 491.092 315.588 490.644C315.108 490.196 314.489 489.972 313.732 489.972C312.964 489.972 312.335 490.196 311.844 490.644C311.364 491.092 311.124 491.673 311.124 492.388C311.124 493.113 311.364 493.705 311.844 494.164C312.335 494.612 312.964 494.836 313.732 494.836ZM129.806 508.276C130.638 508.276 131.379 508.457 132.03 508.82C132.691 509.183 133.208 509.695 133.582 510.356C133.955 511.017 134.142 511.78 134.142 512.644C134.142 513.508 133.955 514.276 133.582 514.948C133.208 515.609 132.691 516.121 132.03 516.484C131.379 516.847 130.638 517.028 129.806 517.028C129.219 517.028 128.68 516.927 128.19 516.724C127.71 516.521 127.304 516.217 126.974 515.812V516.916H125.07V505.044H127.07V509.412C127.411 509.039 127.811 508.756 128.27 508.564C128.739 508.372 129.251 508.276 129.806 508.276ZM129.582 515.316C130.318 515.316 130.92 515.071 131.39 514.58C131.87 514.089 132.11 513.444 132.11 512.644C132.11 511.844 131.87 511.199 131.39 510.708C130.92 510.217 130.318 509.972 129.582 509.972C129.102 509.972 128.67 510.084 128.286 510.308C127.902 510.521 127.598 510.831 127.374 511.236C127.15 511.641 127.038 512.111 127.038 512.644C127.038 513.177 127.15 513.647 127.374 514.052C127.598 514.457 127.902 514.772 128.286 514.996C128.67 515.209 129.102 515.316 129.582 515.316ZM139.193 508.276C140.452 508.276 141.412 508.58 142.073 509.188C142.745 509.785 143.081 510.692 143.081 511.908V516.916H141.193V515.876C140.948 516.249 140.596 516.537 140.137 516.74C139.689 516.932 139.145 517.028 138.505 517.028C137.865 517.028 137.305 516.921 136.825 516.708C136.345 516.484 135.972 516.18 135.705 515.796C135.449 515.401 135.321 514.959 135.321 514.468C135.321 513.7 135.604 513.087 136.169 512.628C136.745 512.159 137.647 511.924 138.873 511.924H141.081V511.796C141.081 511.199 140.9 510.74 140.537 510.42C140.185 510.1 139.657 509.94 138.953 509.94C138.473 509.94 137.999 510.015 137.529 510.164C137.071 510.313 136.681 510.521 136.361 510.788L135.577 509.332C136.025 508.991 136.564 508.729 137.193 508.548C137.823 508.367 138.489 508.276 139.193 508.276ZM138.921 515.572C139.423 515.572 139.865 515.46 140.249 515.236C140.644 515.001 140.921 514.671 141.081 514.244V513.252H139.017C137.865 513.252 137.289 513.631 137.289 514.388C137.289 514.751 137.433 515.039 137.721 515.252C138.009 515.465 138.409 515.572 138.921 515.572ZM150.384 508.276C151.216 508.276 151.957 508.457 152.608 508.82C153.269 509.183 153.787 509.695 154.16 510.356C154.533 511.017 154.72 511.78 154.72 512.644C154.72 513.508 154.533 514.276 154.16 514.948C153.787 515.609 153.269 516.121 152.608 516.484C151.957 516.847 151.216 517.028 150.384 517.028C149.797 517.028 149.259 516.927 148.768 516.724C148.288 516.521 147.883 516.217 147.552 515.812V516.916H145.648V505.044H147.648V509.412C147.989 509.039 148.389 508.756 148.848 508.564C149.317 508.372 149.829 508.276 150.384 508.276ZM150.16 515.316C150.896 515.316 151.499 515.071 151.968 514.58C152.448 514.089 152.688 513.444 152.688 512.644C152.688 511.844 152.448 511.199 151.968 510.708C151.499 510.217 150.896 509.972 150.16 509.972C149.68 509.972 149.248 510.084 148.864 510.308C148.48 510.521 148.176 510.831 147.952 511.236C147.728 511.641 147.616 512.111 147.616 512.644C147.616 513.177 147.728 513.647 147.952 514.052C148.176 514.457 148.48 514.772 148.864 514.996C149.248 515.209 149.68 515.316 150.16 515.316ZM164.382 508.372L160.382 517.604C160.009 518.532 159.556 519.183 159.022 519.556C158.489 519.94 157.844 520.132 157.086 520.132C156.66 520.132 156.238 520.063 155.822 519.924C155.406 519.785 155.065 519.593 154.798 519.348L155.598 517.876C155.79 518.057 156.014 518.201 156.27 518.308C156.537 518.415 156.804 518.468 157.07 518.468C157.422 518.468 157.71 518.377 157.934 518.196C158.169 518.015 158.382 517.711 158.574 517.284L158.718 516.948L154.99 508.372H157.07L159.758 514.692L162.462 508.372H164.382ZM173.318 508.276C174.577 508.276 175.537 508.58 176.198 509.188C176.87 509.785 177.206 510.692 177.206 511.908V516.916H175.318V515.876C175.073 516.249 174.721 516.537 174.262 516.74C173.814 516.932 173.27 517.028 172.63 517.028C171.99 517.028 171.43 516.921 170.95 516.708C170.47 516.484 170.097 516.18 169.83 515.796C169.574 515.401 169.446 514.959 169.446 514.468C169.446 513.7 169.729 513.087 170.294 512.628C170.87 512.159 171.772 511.924 172.998 511.924H175.206V511.796C175.206 511.199 175.025 510.74 174.662 510.42C174.31 510.1 173.782 509.94 173.078 509.94C172.598 509.94 172.124 510.015 171.654 510.164C171.196 510.313 170.806 510.521 170.486 510.788L169.702 509.332C170.15 508.991 170.689 508.729 171.318 508.548C171.948 508.367 172.614 508.276 173.318 508.276ZM173.046 515.572C173.548 515.572 173.99 515.46 174.374 515.236C174.769 515.001 175.046 514.671 175.206 514.244V513.252H173.142C171.99 513.252 171.414 513.631 171.414 514.388C171.414 514.751 171.558 515.039 171.846 515.252C172.134 515.465 172.534 515.572 173.046 515.572ZM184.909 516.452C184.674 516.644 184.386 516.788 184.045 516.884C183.714 516.98 183.362 517.028 182.989 517.028C182.05 517.028 181.325 516.783 180.813 516.292C180.301 515.801 180.045 515.087 180.045 514.148V510.036H178.637V508.436H180.045V506.484H182.045V508.436H184.333V510.036H182.045V514.1C182.045 514.516 182.146 514.836 182.349 515.06C182.552 515.273 182.845 515.38 183.229 515.38C183.677 515.38 184.05 515.263 184.349 515.028L184.909 516.452ZM199.104 511.092C199.723 511.295 200.213 511.636 200.576 512.116C200.939 512.585 201.12 513.172 201.12 513.876C201.12 514.847 200.747 515.599 200 516.132C199.253 516.655 198.165 516.916 196.736 516.916H191.168V505.716H196.416C197.739 505.716 198.757 505.977 199.472 506.5C200.187 507.012 200.544 507.721 200.544 508.628C200.544 509.183 200.416 509.673 200.16 510.1C199.904 510.527 199.552 510.857 199.104 511.092ZM193.248 507.348V510.436H196.192C196.917 510.436 197.472 510.308 197.856 510.052C198.251 509.785 198.448 509.401 198.448 508.9C198.448 508.388 198.251 508.004 197.856 507.748C197.472 507.481 196.917 507.348 196.192 507.348H193.248ZM196.608 515.284C198.219 515.284 199.024 514.745 199.024 513.668C199.024 512.591 198.219 512.052 196.608 512.052H193.248V515.284H196.608ZM206.412 508.276C207.671 508.276 208.631 508.58 209.292 509.188C209.964 509.785 210.3 510.692 210.3 511.908V516.916H208.412V515.876C208.167 516.249 207.815 516.537 207.356 516.74C206.908 516.932 206.364 517.028 205.724 517.028C205.084 517.028 204.524 516.921 204.044 516.708C203.564 516.484 203.191 516.18 202.924 515.796C202.668 515.401 202.54 514.959 202.54 514.468C202.54 513.7 202.823 513.087 203.388 512.628C203.964 512.159 204.865 511.924 206.092 511.924H208.3V511.796C208.3 511.199 208.119 510.74 207.756 510.42C207.404 510.1 206.876 509.94 206.172 509.94C205.692 509.94 205.217 510.015 204.748 510.164C204.289 510.313 203.9 510.521 203.58 510.788L202.796 509.332C203.244 508.991 203.783 508.729 204.412 508.548C205.041 508.367 205.708 508.276 206.412 508.276ZM206.14 515.572C206.641 515.572 207.084 515.46 207.468 515.236C207.863 515.001 208.14 514.671 208.3 514.244V513.252H206.236C205.084 513.252 204.508 513.631 204.508 514.388C204.508 514.751 204.652 515.039 204.94 515.252C205.228 515.465 205.628 515.572 206.14 515.572ZM217.603 508.276C218.435 508.276 219.176 508.457 219.827 508.82C220.488 509.183 221.005 509.695 221.379 510.356C221.752 511.017 221.939 511.78 221.939 512.644C221.939 513.508 221.752 514.276 221.379 514.948C221.005 515.609 220.488 516.121 219.827 516.484C219.176 516.847 218.435 517.028 217.603 517.028C217.016 517.028 216.477 516.927 215.987 516.724C215.507 516.521 215.101 516.217 214.771 515.812V516.916H212.867V505.044H214.867V509.412C215.208 509.039 215.608 508.756 216.067 508.564C216.536 508.372 217.048 508.276 217.603 508.276ZM217.379 515.316C218.115 515.316 218.717 515.071 219.187 514.58C219.667 514.089 219.907 513.444 219.907 512.644C219.907 511.844 219.667 511.199 219.187 510.708C218.717 510.217 218.115 509.972 217.379 509.972C216.899 509.972 216.467 510.084 216.083 510.308C215.699 510.521 215.395 510.831 215.171 511.236C214.947 511.641 214.835 512.111 214.835 512.644C214.835 513.177 214.947 513.647 215.171 514.052C215.395 514.457 215.699 514.772 216.083 514.996C216.467 515.209 216.899 515.316 217.379 515.316ZM231.601 508.372L227.601 517.604C227.228 518.532 226.774 519.183 226.241 519.556C225.708 519.94 225.062 520.132 224.305 520.132C223.878 520.132 223.457 520.063 223.041 519.924C222.625 519.785 222.284 519.593 222.017 519.348L222.817 517.876C223.009 518.057 223.233 518.201 223.489 518.308C223.756 518.415 224.022 518.468 224.289 518.468C224.641 518.468 224.929 518.377 225.153 518.196C225.388 518.015 225.601 517.711 225.793 517.284L225.937 516.948L222.209 508.372H224.289L226.977 514.692L229.681 508.372H231.601ZM238.149 517.076C237.018 517.076 235.994 516.831 235.077 516.34C234.17 515.839 233.456 515.151 232.933 514.276C232.421 513.401 232.165 512.415 232.165 511.316C232.165 510.217 232.426 509.231 232.949 508.356C233.472 507.481 234.186 506.799 235.093 506.308C236.01 505.807 237.034 505.556 238.165 505.556C239.082 505.556 239.92 505.716 240.677 506.036C241.434 506.356 242.074 506.82 242.597 507.428L241.253 508.692C240.442 507.817 239.445 507.38 238.261 507.38C237.493 507.38 236.805 507.551 236.197 507.892C235.589 508.223 235.114 508.687 234.773 509.284C234.432 509.881 234.261 510.559 234.261 511.316C234.261 512.073 234.432 512.751 234.773 513.348C235.114 513.945 235.589 514.415 236.197 514.756C236.805 515.087 237.493 515.252 238.261 515.252C239.445 515.252 240.442 514.809 241.253 513.924L242.597 515.204C242.074 515.812 241.429 516.276 240.661 516.596C239.904 516.916 239.066 517.076 238.149 517.076ZM247.584 508.276C248.842 508.276 249.802 508.58 250.464 509.188C251.136 509.785 251.472 510.692 251.472 511.908V516.916H249.584V515.876C249.338 516.249 248.986 516.537 248.528 516.74C248.08 516.932 247.536 517.028 246.896 517.028C246.256 517.028 245.696 516.921 245.216 516.708C244.736 516.484 244.362 516.18 244.096 515.796C243.84 515.401 243.712 514.959 243.712 514.468C243.712 513.7 243.994 513.087 244.56 512.628C245.136 512.159 246.037 511.924 247.264 511.924H249.472V511.796C249.472 511.199 249.29 510.74 248.928 510.42C248.576 510.1 248.048 509.94 247.344 509.94C246.864 509.94 246.389 510.015 245.92 510.164C245.461 510.313 245.072 510.521 244.752 510.788L243.968 509.332C244.416 508.991 244.954 508.729 245.584 508.548C246.213 508.367 246.88 508.276 247.584 508.276ZM247.312 515.572C247.813 515.572 248.256 515.46 248.64 515.236C249.034 515.001 249.312 514.671 249.472 514.244V513.252H247.408C246.256 513.252 245.68 513.631 245.68 514.388C245.68 514.751 245.824 515.039 246.112 515.252C246.4 515.465 246.8 515.572 247.312 515.572ZM255.943 509.62C256.519 508.724 257.532 508.276 258.983 508.276V510.18C258.812 510.148 258.657 510.132 258.519 510.132C257.74 510.132 257.132 510.361 256.695 510.82C256.257 511.268 256.039 511.919 256.039 512.772V516.916H254.039V508.372H255.943V509.62ZM268.633 512.692C268.633 512.831 268.622 513.028 268.601 513.284H261.897C262.014 513.913 262.318 514.415 262.809 514.788C263.31 515.151 263.929 515.332 264.665 515.332C265.604 515.332 266.377 515.023 266.985 514.404L268.057 515.636C267.673 516.095 267.188 516.441 266.601 516.676C266.014 516.911 265.353 517.028 264.617 517.028C263.678 517.028 262.852 516.841 262.137 516.468C261.422 516.095 260.868 515.577 260.473 514.916C260.089 514.244 259.897 513.487 259.897 512.644C259.897 511.812 260.084 511.065 260.457 510.404C260.841 509.732 261.369 509.209 262.041 508.836C262.713 508.463 263.47 508.276 264.313 508.276C265.145 508.276 265.886 508.463 266.537 508.836C267.198 509.199 267.71 509.716 268.073 510.388C268.446 511.049 268.633 511.817 268.633 512.692ZM264.313 509.876C263.673 509.876 263.129 510.068 262.681 510.452C262.244 510.825 261.977 511.327 261.881 511.956H266.729C266.644 511.337 266.382 510.836 265.945 510.452C265.508 510.068 264.964 509.876 264.313 509.876Z" fill="#3C3C43" fill-opacity="0.6"/>
<path d="M32.395 26.408V24.92L36.891 17.672H38.539V25.16H40.171V26.408H38.539V29H37.195V26.408H32.395ZM37.163 19.24L33.547 25.16H37.195V19.24H37.163ZM43.5896 22.28C43.5896 22.792 43.1256 23.24 42.6296 23.24C42.1656 23.24 41.6696 22.808 41.6696 22.28C41.6696 21.752 42.1176 21.32 42.6296 21.32C43.1896 21.32 43.5896 21.784 43.5896 22.28ZM43.5896 28.136C43.5896 28.648 43.1416 29.096 42.6296 29.096C42.1336 29.096 41.6696 28.648 41.6696 28.136C41.6696 27.608 42.1016 27.176 42.6296 27.176C43.1576 27.176 43.5896 27.624 43.5896 28.136ZM49.0987 17.48C51.1147 17.48 52.5547 18.664 52.5547 20.552C52.5547 22.28 51.6907 23.16 50.3467 24.44L46.8587 27.72V27.752H52.6347V29H45.3387V27.464L49.6907 23.224C51.1627 21.8 51.2107 21.176 51.2107 20.552C51.2107 19.416 50.3147 18.632 49.1467 18.632C48.0107 18.632 47.2107 19.336 47.0027 20.44L45.5467 20.312C45.8507 18.504 47.2267 17.48 49.0987 17.48ZM57.5574 17.48C60.0694 17.48 61.3974 19.688 61.3974 23.336C61.3974 27 60.0694 29.192 57.5574 29.192C55.0454 29.192 53.7174 26.984 53.7174 23.336C53.7174 19.688 55.0454 17.48 57.5574 17.48ZM55.0614 23.336C55.0614 26.392 55.9414 28.04 57.5574 28.04C59.1734 28.04 60.0534 26.408 60.0534 23.336C60.0534 20.28 59.1894 18.632 57.5414 18.632C55.9734 18.632 55.0614 20.216 55.0614 23.336Z" fill="#3C3C43"/>
<g filter="url(#filter1_b_200_320)">
<g clip-path="url(#clip3_200_320)">
<rect opacity="0.2" x="317.5" y="19" width="3.5" height="11.5" rx="1" fill="#3C3C43"/>
<path d="M312.5 22.5C312.5 21.9477 312.948 21.5 313.5 21.5H315C315.552 21.5 316 21.9477 316 22.5V29.5C316 30.0523 315.552 30.5 315 30.5H313.5C312.948 30.5 312.5 30.0523 312.5 29.5V22.5Z" fill="#3C3C43"/>
<path d="M307.5 25C307.5 24.4477 307.948 24 308.5 24H310C310.552 24 311 24.4477 311 25V29.5C311 30.0523 310.552 30.5 310 30.5H308.5C307.948 30.5 307.5 30.0523 307.5 29.5V25Z" fill="#3C3C43"/>
<path d="M302.5 27C302.5 26.4477 302.948 26 303.5 26H305C305.552 26 306 26.4477 306 27V29.5C306 30.0523 305.552 30.5 305 30.5H303.5C302.948 30.5 302.5 30.0523 302.5 29.5V27Z" fill="#3C3C43"/>
<path d="M336.325 28.289C336.39 28.2255 336.426 28.138 336.424 28.0473C336.422 27.9566 336.383 27.8706 336.316 27.8098C334.979 26.6783 333.022 26.6783 331.686 27.8098C331.618 27.8706 331.579 27.9565 331.577 28.0472C331.575 28.1379 331.611 28.2254 331.676 28.289L333.768 30.4029C333.83 30.465 333.913 30.5 334.001 30.5C334.088 30.5 334.171 30.465 334.233 30.4029L336.325 28.289Z" fill="#3C3C43"/>
<path d="M334 25.3691C335.276 25.369 336.506 25.8436 337.451 26.7006C337.579 26.8222 337.781 26.8196 337.905 26.6947L339.115 25.4712C339.179 25.407 339.214 25.3199 339.213 25.2295C339.212 25.139 339.175 25.0527 339.11 24.9898C336.231 22.3089 331.772 22.3089 328.893 24.9898C328.828 25.0527 328.791 25.139 328.79 25.2295C328.789 25.32 328.825 25.4071 328.889 25.4712L330.098 26.6947C330.222 26.8196 330.424 26.8222 330.552 26.7006C331.497 25.8442 332.726 25.3696 334 25.3691Z" fill="#3C3C43"/>
<path opacity="0.2" d="M334 21.3883C336.322 21.3884 338.555 22.2813 340.237 23.8825C340.364 24.0061 340.566 24.0045 340.691 23.879L341.902 22.6555C341.965 22.5918 342.001 22.5055 342 22.4158C341.999 22.326 341.963 22.2402 341.899 22.1772C337.483 17.9409 330.517 17.9409 326.101 22.1772C326.037 22.2401 326.001 22.326 326 22.4157C325.999 22.5055 326.035 22.5917 326.098 22.6555L327.309 23.879C327.434 24.0047 327.637 24.0063 327.763 23.8825C329.446 22.2812 331.679 21.3883 334 21.3883Z" fill="#3C3C43"/>
<g clip-path="url(#clip4_200_320)">
<path d="M348 21.75C348 21.0596 348.56 20.5 349.25 20.5H350V29H349.25C348.56 29 348 28.4404 348 27.75V21.75Z" fill="#3C3C43"/>
<path d="M350 20.5H352V29H350V20.5Z" fill="#3C3C43"/>
<path d="M352 20.5H354V29H352V20.5Z" fill="#3C3C43"/>
<path d="M354 20.5H356V29H354V20.5Z" fill="#3C3C43"/>
<path d="M356 20.5H358V29H356V20.5Z" fill="#3C3C43"/>
<path d="M358 20.5H360V29H358V20.5Z" fill="#3C3C43"/>
<path d="M360 20.5H362V29H360V20.5Z" fill="#3C3C43"/>
<path d="M364 21.75C364 21.0596 363.44 20.5 362.75 20.5H362V29H362.75C363.44 29 364 28.4404 364 27.75V21.75Z" fill="#3C3C43"/>
</g>
<g opacity="0.5">
<path fill-rule="evenodd" clip-rule="evenodd" d="M346 21.5C346 19.8431 347.343 18.5 349 18.5H367C368.657 18.5 370 19.8431 370 21.5V28C370 29.6569 368.657 31 367 31H349C347.343 31 346 29.6569 346 28V21.5ZM349 19.5C347.895 19.5 347 20.3954 347 21.5V28C347 29.1046 347.895 30 349 30H367C368.105 30 369 29.1046 369 28V21.5C369 20.3954 368.105 19.5 367 19.5H349Z" fill="#3C3C43"/>
<path d="M371 27.042C371.883 26.6562 372.5 25.7751 372.5 24.75C372.5 23.7248 371.883 22.8438 371 22.458V27.042Z" fill="#3C3C43"/>
</g>
</g>
</g>
<path d="M136.5 843L252.5 843" stroke="black" stroke-width="4" stroke-linecap="round"/>
</g>
<defs>
<filter id="filter0_b_200_320" x="238" y="-56" width="208" height="156" filterUnits="userSpaceOnUse" color-interpolation-filters="sRGB">
<feFlood flood-opacity="0" result="BackgroundImageFix"/>
<feGaussianBlur in="BackgroundImageFix" stdDeviation="28"/>
<feComposite in2="SourceAlpha" operator="in" result="effect1_backgroundBlur_200_320"/>
<feBlend mode="normal" in="SourceGraphic" in2="effect1_backgroundBlur_200_320" result="shape"/>
</filter>
<filter id="filter1_b_200_320" x="238" y="-56" width="208" height="156" filterUnits="userSpaceOnUse" color-interpolation-filters="sRGB">
<feFlood flood-opacity="0" result="BackgroundImageFix"/>
<feGaussianBlur in="BackgroundImageFix" stdDeviation="28"/>
<feComposite in2="SourceAlpha" operator="in" result="effect1_backgroundBlur_200_320"/>
<feBlend mode="normal" in="SourceGraphic" in2="effect1_backgroundBlur_200_320" result="shape"/>
</filter>
<clipPath id="clip0_200_320">
<rect width="390" height="852" fill="white"/>
</clipPath>
<clipPath id="clip1_200_320">
<rect width="72" height="16" fill="white" transform="translate(302 16)"/>
</clipPath>
<clipPath id="clip2_200_320">
<rect width="16" height="8.5" fill="white" transform="translate(348 20.5)"/>
</clipPath>
<clipPath id="clip3_200_320">
<rect width="72" height="16" fill="white" transform="translate(302 16)"/>
</clipPath>
<clipPath id="clip4_200_320">
<rect width="16" height="8.5" fill="white" transform="translate(348 20.5)"/>
</clipPath>
</defs>
</svg>
