<svg width="393" height="930" viewBox="0 0 393 930" fill="none" xmlns="http://www.w3.org/2000/svg">
<g clip-path="url(#clip0_272_18)">
<rect width="393" height="930" fill="white"/>
<mask id="path-1-inside-1_272_18" fill="white">
<path d="M0 0H393V110H0V0Z"/>
</mask>
<path d="M0 0H393V110H0V0Z" fill="white"/>
<path d="M393 109H0V111H393V109Z" fill="#3C3C43" fill-opacity="0.3" mask="url(#path-1-inside-1_272_18)"/>
<path d="M23.4034 26.792L27.9634 19.672H30.1394V26.968H31.7874V28.696H30.1394V31H28.2194V28.696H23.4034V26.792ZM28.1874 22.392L25.3554 26.968H28.2194V22.392H28.1874ZM34.6961 23.208C35.3521 23.208 35.9761 23.704 35.9761 24.424C35.9761 25.128 35.4001 25.672 34.6961 25.672C34.0241 25.672 33.4161 25.128 33.4161 24.456C33.4161 23.768 34.0081 23.208 34.6961 23.208ZM34.6961 28.632C35.3681 28.632 35.9761 29.144 35.9761 29.848C35.9761 30.568 35.3841 31.096 34.6961 31.096C34.0241 31.096 33.4161 30.568 33.4161 29.88C33.4161 29.192 34.0081 28.632 34.6961 28.632ZM41.9265 19.48C44.1185 19.48 45.5905 20.648 45.5905 22.696C45.5905 23.88 45.0945 24.872 43.8625 26.008L40.3425 29.272H45.5905V31H38.0065V28.968L42.4065 24.712C43.3505 23.8 43.5745 23.336 43.5745 22.792C43.5745 21.864 42.8225 21.304 41.9265 21.304C40.9985 21.304 40.3105 21.912 40.1825 22.84L38.1665 22.68C38.3745 20.584 39.8465 19.48 41.9265 19.48ZM51.2673 19.48C53.8433 19.48 55.3633 21.464 55.3633 25.336C55.3633 29.192 53.8593 31.192 51.2673 31.192C48.6753 31.192 47.1713 29.192 47.1713 25.336C47.1713 21.464 48.6913 19.48 51.2673 19.48ZM49.0913 25.336C49.0913 27.768 49.7953 29.368 51.2673 29.368C52.7073 29.368 53.4433 27.848 53.4433 25.336C53.4433 22.792 52.7073 21.304 51.2513 21.304C49.8593 21.304 49.0913 22.776 49.0913 25.336Z" fill="#3C3C43"/>
<g filter="url(#filter0_b_272_18)">
<g clip-path="url(#clip1_272_18)">
<rect opacity="0.2" x="319.5" y="21.5" width="3.5" height="11.5" rx="1" fill="#3C3C43"/>
<path d="M314.5 25C314.5 24.4477 314.948 24 315.5 24H317C317.552 24 318 24.4477 318 25V32C318 32.5523 317.552 33 317 33H315.5C314.948 33 314.5 32.5523 314.5 32V25Z" fill="#3C3C43"/>
<path d="M309.5 27.5C309.5 26.9477 309.948 26.5 310.5 26.5H312C312.552 26.5 313 26.9477 313 27.5V32C313 32.5523 312.552 33 312 33H310.5C309.948 33 309.5 32.5523 309.5 32V27.5Z" fill="#3C3C43"/>
<path d="M304.5 29.5C304.5 28.9477 304.948 28.5 305.5 28.5H307C307.552 28.5 308 28.9477 308 29.5V32C308 32.5523 307.552 33 307 33H305.5C304.948 33 304.5 32.5523 304.5 32V29.5Z" fill="#3C3C43"/>
<path d="M338.325 30.789C338.39 30.7255 338.426 30.638 338.424 30.5473C338.422 30.4566 338.383 30.3706 338.316 30.3098C336.979 29.1783 335.022 29.1783 333.686 30.3098C333.618 30.3706 333.579 30.4565 333.577 30.5472C333.575 30.6379 333.611 30.7254 333.676 30.789L335.768 32.9029C335.83 32.965 335.913 33 336.001 33C336.088 33 336.171 32.965 336.233 32.9029L338.325 30.789Z" fill="#3C3C43"/>
<path d="M336 27.869C337.276 27.8689 338.506 28.3435 339.451 29.2005C339.579 29.3221 339.781 29.3195 339.905 29.1946L341.115 27.9711C341.179 27.9069 341.214 27.8198 341.213 27.7293C341.212 27.6389 341.175 27.5526 341.11 27.4897C338.231 24.8088 333.772 24.8088 330.893 27.4897C330.828 27.5526 330.791 27.6389 330.79 27.7294C330.789 27.8199 330.825 27.907 330.889 27.9711L332.098 29.1946C332.222 29.3195 332.424 29.3221 332.552 29.2005C333.497 28.344 334.726 27.8695 336 27.869Z" fill="#3C3C43"/>
<path opacity="0.2" d="M336 23.8883C338.322 23.8884 340.555 24.7813 342.237 26.3825C342.364 26.5061 342.566 26.5045 342.691 26.379L343.902 25.1555C343.965 25.0918 344.001 25.0055 344 24.9158C343.999 24.826 343.963 24.7402 343.899 24.6772C339.483 20.4409 332.517 20.4409 328.101 24.6772C328.037 24.7401 328.001 24.826 328 24.9157C327.999 25.0055 328.035 25.0917 328.098 25.1555L329.309 26.379C329.434 26.5047 329.637 26.5063 329.763 26.3825C331.446 24.7812 333.679 23.8883 336 23.8883Z" fill="#3C3C43"/>
<g clip-path="url(#clip2_272_18)">
<path d="M350 24.25C350 23.5596 350.56 23 351.25 23H352V31.5H351.25C350.56 31.5 350 30.9404 350 30.25V24.25Z" fill="#3C3C43"/>
<path d="M352 23H354V31.5H352V23Z" fill="#3C3C43"/>
<path d="M354 23H356V31.5H354V23Z" fill="#3C3C43"/>
<path d="M356 23H358V31.5H356V23Z" fill="#3C3C43"/>
<path d="M358 23H360V31.5H358V23Z" fill="#3C3C43"/>
<path d="M360 23H362V31.5H360V23Z" fill="#3C3C43"/>
<path d="M362 23H364V31.5H362V23Z" fill="#3C3C43"/>
<path d="M366 24.25C366 23.5596 365.44 23 364.75 23H364V31.5H364.75C365.44 31.5 366 30.9404 366 30.25V24.25Z" fill="#3C3C43"/>
</g>
<g opacity="0.5">
<path fill-rule="evenodd" clip-rule="evenodd" d="M348 24C348 22.3431 349.343 21 351 21H369C370.657 21 372 22.3431 372 24V30.5C372 32.1569 370.657 33.5 369 33.5H351C349.343 33.5 348 32.1569 348 30.5V24ZM351 22C349.895 22 349 22.8954 349 24V30.5C349 31.6046 349.895 32.5 351 32.5H369C370.105 32.5 371 31.6046 371 30.5V24C371 22.8954 370.105 22 369 22H351Z" fill="#3C3C43"/>
<path d="M373 29.542C373.883 29.1562 374.5 28.2751 374.5 27.25C374.5 26.2248 373.883 25.3438 373 24.958V29.542Z" fill="#3C3C43"/>
</g>
</g>
</g>
<path d="M45.1748 429.881C46.2098 430.215 47.2905 430.384 48.3778 430.383C54.1357 430.383 58.8035 425.715 58.8035 419.957C58.8053 418.536 58.5155 417.13 57.9521 415.825C62.1438 417.176 65.1748 421.109 65.1748 425.749C65.1748 431.507 60.507 436.175 54.7491 436.175C50.4589 436.175 46.7746 433.584 45.1748 429.881Z" fill="white" stroke="white" stroke-linejoin="round"/>
<path d="M161.116 70.6H167.848C169.491 70.6 170.95 70.9227 172.226 71.568C173.502 72.1987 174.492 73.1007 175.196 74.274C175.9 75.4327 176.252 76.7747 176.252 78.3C176.252 79.8253 175.9 81.1747 175.196 82.348C174.492 83.5067 173.502 84.4087 172.226 85.054C170.95 85.6847 169.491 86 167.848 86H161.116V70.6ZM167.716 83.58C168.845 83.58 169.835 83.3673 170.686 82.942C171.551 82.502 172.211 81.886 172.666 81.094C173.135 80.2873 173.37 79.356 173.37 78.3C173.37 77.244 173.135 76.32 172.666 75.528C172.211 74.7213 171.551 74.1053 170.686 73.68C169.835 73.24 168.845 73.02 167.716 73.02H163.976V83.58H167.716ZM179.028 74.252H181.778V86H179.028V74.252ZM180.414 72.316C179.915 72.316 179.497 72.162 179.16 71.854C178.822 71.5313 178.654 71.1353 178.654 70.666C178.654 70.1967 178.822 69.808 179.16 69.5C179.497 69.1773 179.915 69.016 180.414 69.016C180.912 69.016 181.33 69.17 181.668 69.478C182.005 69.7713 182.174 70.1453 182.174 70.6C182.174 71.084 182.005 71.4947 181.668 71.832C181.345 72.1547 180.927 72.316 180.414 72.316ZM189.875 74.12C191.606 74.12 192.926 74.538 193.835 75.374C194.759 76.1953 195.221 77.442 195.221 79.114V86H192.625V84.57C192.288 85.0833 191.804 85.4793 191.173 85.758C190.557 86.022 189.809 86.154 188.929 86.154C188.049 86.154 187.279 86.0073 186.619 85.714C185.959 85.406 185.446 84.988 185.079 84.46C184.727 83.9173 184.551 83.3087 184.551 82.634C184.551 81.578 184.94 80.7347 185.717 80.104C186.509 79.4587 187.748 79.136 189.435 79.136H192.471V78.96C192.471 78.1387 192.222 77.508 191.723 77.068C191.239 76.628 190.513 76.408 189.545 76.408C188.885 76.408 188.232 76.5107 187.587 76.716C186.956 76.9213 186.421 77.2073 185.981 77.574L184.903 75.572C185.519 75.1027 186.26 74.7433 187.125 74.494C187.99 74.2447 188.907 74.12 189.875 74.12ZM189.501 84.152C190.19 84.152 190.799 83.998 191.327 83.69C191.87 83.3673 192.251 82.9127 192.471 82.326V80.962H189.633C188.049 80.962 187.257 81.4827 187.257 82.524C187.257 83.0227 187.455 83.4187 187.851 83.712C188.247 84.0053 188.797 84.152 189.501 84.152ZM205.262 74.12C206.406 74.12 207.426 74.3693 208.32 74.868C209.23 75.3667 209.941 76.0707 210.454 76.98C210.968 77.8893 211.224 78.938 211.224 80.126C211.224 81.314 210.968 82.37 210.454 83.294C209.941 84.2033 209.23 84.9073 208.32 85.406C207.426 85.9047 206.406 86.154 205.262 86.154C203.678 86.154 202.424 85.626 201.5 84.57V90.268H198.75V74.252H201.368V75.792C201.823 75.2347 202.38 74.8167 203.04 74.538C203.715 74.2593 204.456 74.12 205.262 74.12ZM204.954 83.8C205.966 83.8 206.795 83.4627 207.44 82.788C208.1 82.1133 208.43 81.226 208.43 80.126C208.43 79.026 208.1 78.1387 207.44 77.464C206.795 76.7893 205.966 76.452 204.954 76.452C204.294 76.452 203.7 76.606 203.172 76.914C202.644 77.2073 202.226 77.6327 201.918 78.19C201.61 78.7473 201.456 79.3927 201.456 80.126C201.456 80.8593 201.61 81.5047 201.918 82.062C202.226 82.6193 202.644 83.052 203.172 83.36C203.7 83.6533 204.294 83.8 204.954 83.8ZM224.876 80.192C224.876 80.3827 224.862 80.654 224.832 81.006H215.614C215.776 81.8713 216.194 82.5607 216.868 83.074C217.558 83.5727 218.408 83.822 219.42 83.822C220.711 83.822 221.774 83.3967 222.61 82.546L224.084 84.24C223.556 84.8707 222.889 85.3473 222.082 85.67C221.276 85.9927 220.366 86.154 219.354 86.154C218.064 86.154 216.927 85.8973 215.944 85.384C214.962 84.8707 214.199 84.1593 213.656 83.25C213.128 82.326 212.864 81.2847 212.864 80.126C212.864 78.982 213.121 77.9553 213.634 77.046C214.162 76.122 214.888 75.4033 215.812 74.89C216.736 74.3767 217.778 74.12 218.936 74.12C220.08 74.12 221.1 74.3767 221.994 74.89C222.904 75.3887 223.608 76.1 224.106 77.024C224.62 77.9333 224.876 78.9893 224.876 80.192ZM218.936 76.32C218.056 76.32 217.308 76.584 216.692 77.112C216.091 77.6253 215.724 78.3147 215.592 79.18H222.258C222.141 78.3293 221.782 77.64 221.18 77.112C220.579 76.584 219.831 76.32 218.936 76.32ZM230.136 75.968C230.928 74.736 232.321 74.12 234.316 74.12V76.738C234.081 76.694 233.869 76.672 233.678 76.672C232.607 76.672 231.771 76.9873 231.17 77.618C230.569 78.234 230.268 79.1287 230.268 80.302V86H227.518V74.252H230.136V75.968Z" fill="#3C3C43"/>
<path d="M137.5 921L253.5 921" stroke="black" stroke-width="4" stroke-linecap="round"/>
<path d="M31.72 152.2H27.08V150H38.96V152.2H34.32V164H31.72V152.2ZM50.0072 153.32L45.0072 164.86C44.5405 166.02 43.9739 166.833 43.3072 167.3C42.6405 167.78 41.8339 168.02 40.8872 168.02C40.3539 168.02 39.8272 167.933 39.3072 167.76C38.7872 167.587 38.3605 167.347 38.0272 167.04L39.0272 165.2C39.2672 165.427 39.5472 165.607 39.8672 165.74C40.2005 165.873 40.5339 165.94 40.8672 165.94C41.3072 165.94 41.6672 165.827 41.9472 165.6C42.2405 165.373 42.5072 164.993 42.7472 164.46L42.9272 164.04L38.2672 153.32H40.8672L44.2272 161.22L47.6072 153.32H50.0072ZM57.4897 153.2C58.5297 153.2 59.4564 153.427 60.2697 153.88C61.0964 154.333 61.743 154.973 62.2097 155.8C62.6764 156.627 62.9097 157.58 62.9097 158.66C62.9097 159.74 62.6764 160.7 62.2097 161.54C61.743 162.367 61.0964 163.007 60.2697 163.46C59.4564 163.913 58.5297 164.14 57.4897 164.14C56.0497 164.14 54.9097 163.66 54.0697 162.7V167.88H51.5697V153.32H53.9497V154.72C54.363 154.213 54.8697 153.833 55.4697 153.58C56.083 153.327 56.7564 153.2 57.4897 153.2ZM57.2097 162C58.1297 162 58.883 161.693 59.4697 161.08C60.0697 160.467 60.3697 159.66 60.3697 158.66C60.3697 157.66 60.0697 156.853 59.4697 156.24C58.883 155.627 58.1297 155.32 57.2097 155.32C56.6097 155.32 56.0697 155.46 55.5897 155.74C55.1097 156.007 54.7297 156.393 54.4497 156.9C54.1697 157.407 54.0297 157.993 54.0297 158.66C54.0297 159.327 54.1697 159.913 54.4497 160.42C54.7297 160.927 55.1097 161.32 55.5897 161.6C56.0697 161.867 56.6097 162 57.2097 162ZM75.3206 158.72C75.3206 158.893 75.3073 159.14 75.2806 159.46H66.9006C67.0473 160.247 67.4273 160.873 68.0406 161.34C68.6673 161.793 69.4406 162.02 70.3606 162.02C71.534 162.02 72.5006 161.633 73.2606 160.86L74.6006 162.4C74.1206 162.973 73.514 163.407 72.7806 163.7C72.0473 163.993 71.2206 164.14 70.3006 164.14C69.1273 164.14 68.094 163.907 67.2006 163.44C66.3073 162.973 65.614 162.327 65.1206 161.5C64.6406 160.66 64.4006 159.713 64.4006 158.66C64.4006 157.62 64.634 156.687 65.1006 155.86C65.5806 155.02 66.2406 154.367 67.0806 153.9C67.9206 153.433 68.8673 153.2 69.9206 153.2C70.9606 153.2 71.8873 153.433 72.7006 153.9C73.5273 154.353 74.1673 155 74.6206 155.84C75.0873 156.667 75.3206 157.627 75.3206 158.72ZM69.9206 155.2C69.1206 155.2 68.4406 155.44 67.8806 155.92C67.334 156.387 67.0006 157.013 66.8806 157.8H72.9406C72.834 157.027 72.5073 156.4 71.9606 155.92C71.414 155.44 70.734 155.2 69.9206 155.2Z" fill="#3C3C43"/>
<path d="M41.74 555L41.72 545.72L37.12 553.4H35.96L31.36 545.84V555H28.88V541H31.02L36.58 550.28L42.04 541H44.18L44.2 555H41.74ZM57.7816 549.72C57.7816 549.893 57.7682 550.14 57.7416 550.46H49.3616C49.5082 551.247 49.8882 551.873 50.5016 552.34C51.1282 552.793 51.9016 553.02 52.8216 553.02C53.9949 553.02 54.9616 552.633 55.7216 551.86L57.0616 553.4C56.5816 553.973 55.9749 554.407 55.2416 554.7C54.5082 554.993 53.6816 555.14 52.7616 555.14C51.5882 555.14 50.5549 554.907 49.6616 554.44C48.7682 553.973 48.0749 553.327 47.5816 552.5C47.1016 551.66 46.8616 550.713 46.8616 549.66C46.8616 548.62 47.0949 547.687 47.5616 546.86C48.0416 546.02 48.7016 545.367 49.5416 544.9C50.3816 544.433 51.3282 544.2 52.3816 544.2C53.4216 544.2 54.3482 544.433 55.1616 544.9C55.9882 545.353 56.6282 546 57.0816 546.84C57.5482 547.667 57.7816 548.627 57.7816 549.72ZM52.3816 546.2C51.5816 546.2 50.9016 546.44 50.3416 546.92C49.7949 547.387 49.4616 548.013 49.3416 548.8H55.4016C55.2949 548.027 54.9682 547.4 54.4216 546.92C53.8749 546.44 53.1949 546.2 52.3816 546.2ZM73.663 544.2C75.0096 544.2 76.0763 544.593 76.863 545.38C77.6496 546.153 78.043 547.32 78.043 548.88V555H75.543V549.2C75.543 548.267 75.3363 547.567 74.923 547.1C74.5096 546.62 73.9163 546.38 73.143 546.38C72.303 546.38 71.6296 546.66 71.123 547.22C70.6163 547.767 70.363 548.553 70.363 549.58V555H67.863V549.2C67.863 548.267 67.6563 547.567 67.243 547.1C66.8296 546.62 66.2363 546.38 65.463 546.38C64.6096 546.38 63.9296 546.653 63.423 547.2C62.9296 547.747 62.683 548.54 62.683 549.58V555H60.183V544.32H62.563V545.68C62.963 545.2 63.463 544.833 64.063 544.58C64.663 544.327 65.3296 544.2 66.063 544.2C66.863 544.2 67.5696 544.353 68.183 544.66C68.8096 544.953 69.303 545.393 69.663 545.98C70.103 545.42 70.6696 544.987 71.363 544.68C72.0563 544.36 72.823 544.2 73.663 544.2ZM86.1353 555.14C85.0553 555.14 84.082 554.907 83.2153 554.44C82.3486 553.973 81.6686 553.327 81.1753 552.5C80.6953 551.66 80.4553 550.713 80.4553 549.66C80.4553 548.607 80.6953 547.667 81.1753 546.84C81.6686 546.013 82.3486 545.367 83.2153 544.9C84.082 544.433 85.0553 544.2 86.1353 544.2C87.2286 544.2 88.2086 544.433 89.0753 544.9C89.942 545.367 90.6153 546.013 91.0953 546.84C91.5886 547.667 91.8353 548.607 91.8353 549.66C91.8353 550.713 91.5886 551.66 91.0953 552.5C90.6153 553.327 89.942 553.973 89.0753 554.44C88.2086 554.907 87.2286 555.14 86.1353 555.14ZM86.1353 553C87.0553 553 87.8153 552.693 88.4153 552.08C89.0153 551.467 89.3153 550.66 89.3153 549.66C89.3153 548.66 89.0153 547.853 88.4153 547.24C87.8153 546.627 87.0553 546.32 86.1353 546.32C85.2153 546.32 84.4553 546.627 83.8553 547.24C83.2686 547.853 82.9753 548.66 82.9753 549.66C82.9753 550.66 83.2686 551.467 83.8553 552.08C84.4553 552.693 85.2153 553 86.1353 553Z" fill="#3C3C43"/>
<path d="M34.64 309C35.8533 309 36.9067 309.2 37.8 309.6C38.7067 310 39.4 310.573 39.88 311.32C40.36 312.067 40.6 312.953 40.6 313.98C40.6 314.993 40.36 315.88 39.88 316.64C39.4 317.387 38.7067 317.96 37.8 318.36C36.9067 318.76 35.8533 318.96 34.64 318.96H31.48V323H28.88V309H34.64ZM34.52 316.76C35.6533 316.76 36.5133 316.52 37.1 316.04C37.6867 315.56 37.98 314.873 37.98 313.98C37.98 313.087 37.6867 312.4 37.1 311.92C36.5133 311.44 35.6533 311.2 34.52 311.2H31.48V316.76H34.52ZM42.8588 312.32H45.3588V323H42.8588V312.32ZM44.1188 310.56C43.6654 310.56 43.2854 310.42 42.9788 310.14C42.6721 309.847 42.5188 309.487 42.5188 309.06C42.5188 308.633 42.6721 308.28 42.9788 308C43.2854 307.707 43.6654 307.56 44.1188 307.56C44.5721 307.56 44.9521 307.7 45.2588 307.98C45.5654 308.247 45.7188 308.587 45.7188 309C45.7188 309.44 45.5654 309.813 45.2588 310.12C44.9654 310.413 44.5854 310.56 44.1188 310.56ZM53.54 323.14C52.4333 323.14 51.44 322.907 50.56 322.44C49.68 321.973 48.9933 321.327 48.5 320.5C48.0067 319.66 47.76 318.713 47.76 317.66C47.76 316.607 48.0067 315.667 48.5 314.84C48.9933 314.013 49.6733 313.367 50.54 312.9C51.42 312.433 52.42 312.2 53.54 312.2C54.5933 312.2 55.5133 312.413 56.3 312.84C57.1 313.267 57.7 313.88 58.1 314.68L56.18 315.8C55.8733 315.307 55.4867 314.94 55.02 314.7C54.5667 314.447 54.0667 314.32 53.52 314.32C52.5867 314.32 51.8133 314.627 51.2 315.24C50.5867 315.84 50.28 316.647 50.28 317.66C50.28 318.673 50.58 319.487 51.18 320.1C51.7933 320.7 52.5733 321 53.52 321C54.0667 321 54.5667 320.88 55.02 320.64C55.4867 320.387 55.8733 320.013 56.18 319.52L58.1 320.64C57.6867 321.44 57.08 322.06 56.28 322.5C55.4933 322.927 54.58 323.14 53.54 323.14ZM66.8178 322.42C66.5245 322.66 66.1645 322.84 65.7378 322.96C65.3245 323.08 64.8845 323.14 64.4178 323.14C63.2445 323.14 62.3378 322.833 61.6978 322.22C61.0578 321.607 60.7378 320.713 60.7378 319.54V314.4H58.9778V312.4H60.7378V309.96H63.2378V312.4H66.0978V314.4H63.2378V319.48C63.2378 320 63.3645 320.4 63.6178 320.68C63.8711 320.947 64.2378 321.08 64.7178 321.08C65.2778 321.08 65.7445 320.933 66.1178 320.64L66.8178 322.42ZM79.2144 312.32V323H76.8344V321.64C76.4344 322.12 75.9344 322.493 75.3344 322.76C74.7344 323.013 74.0877 323.14 73.3944 323.14C71.9677 323.14 70.841 322.747 70.0144 321.96C69.201 321.16 68.7944 319.98 68.7944 318.42V312.32H71.2944V318.08C71.2944 319.04 71.5077 319.76 71.9344 320.24C72.3744 320.707 72.9944 320.94 73.7944 320.94C74.6877 320.94 75.3944 320.667 75.9144 320.12C76.4477 319.56 76.7144 318.76 76.7144 317.72V312.32H79.2144ZM84.8677 313.88C85.5877 312.76 86.8543 312.2 88.6677 312.2V314.58C88.4543 314.54 88.261 314.52 88.0877 314.52C87.1143 314.52 86.3543 314.807 85.8077 315.38C85.261 315.94 84.9877 316.753 84.9877 317.82V323H82.4877V312.32H84.8677V313.88ZM100.731 317.72C100.731 317.893 100.717 318.14 100.691 318.46H92.3108C92.4574 319.247 92.8374 319.873 93.4508 320.34C94.0774 320.793 94.8508 321.02 95.7708 321.02C96.9441 321.02 97.9108 320.633 98.6708 319.86L100.011 321.4C99.5308 321.973 98.9241 322.407 98.1908 322.7C97.4574 322.993 96.6308 323.14 95.7108 323.14C94.5374 323.14 93.5041 322.907 92.6108 322.44C91.7174 321.973 91.0241 321.327 90.5308 320.5C90.0508 319.66 89.8108 318.713 89.8108 317.66C89.8108 316.62 90.0441 315.687 90.5108 314.86C90.9908 314.02 91.6508 313.367 92.4908 312.9C93.3308 312.433 94.2774 312.2 95.3308 312.2C96.3708 312.2 97.2974 312.433 98.1108 312.9C98.9374 313.353 99.5774 314 100.031 314.84C100.497 315.667 100.731 316.627 100.731 317.72ZM95.3308 314.2C94.5308 314.2 93.8508 314.44 93.2908 314.92C92.7441 315.387 92.4108 316.013 92.2908 316.8H98.3508C98.2441 316.027 97.9174 315.4 97.3708 314.92C96.8241 314.44 96.1441 314.2 95.3308 314.2Z" fill="#3C3C43"/>
</g>
<defs>
<filter id="filter0_b_272_18" x="248" y="-37.5" width="184" height="128" filterUnits="userSpaceOnUse" color-interpolation-filters="sRGB">
<feFlood flood-opacity="0" result="BackgroundImageFix"/>
<feGaussianBlur in="BackgroundImageFix" stdDeviation="28"/>
<feComposite in2="SourceAlpha" operator="in" result="effect1_backgroundBlur_272_18"/>
<feBlend mode="normal" in="SourceGraphic" in2="effect1_backgroundBlur_272_18" result="shape"/>
</filter>
<clipPath id="clip0_272_18">
<rect width="393" height="930" fill="white"/>
</clipPath>
<clipPath id="clip1_272_18">
<rect width="72" height="16" fill="white" transform="translate(304 18.5)"/>
</clipPath>
<clipPath id="clip2_272_18">
<rect width="16" height="8.5" fill="white" transform="translate(350 23)"/>
</clipPath>
</defs>
</svg>
