<svg width="390" height="852" viewBox="0 0 390 852" fill="none" xmlns="http://www.w3.org/2000/svg">
<g clip-path="url(#clip0_215_391)">
<rect width="390" height="852" fill="white"/>
<path d="M32.395 26.408V24.92L36.891 17.672H38.539V25.16H40.171V26.408H38.539V29H37.195V26.408H32.395ZM37.163 19.24L33.547 25.16H37.195V19.24H37.163ZM43.5896 22.28C43.5896 22.792 43.1256 23.24 42.6296 23.24C42.1656 23.24 41.6696 22.808 41.6696 22.28C41.6696 21.752 42.1176 21.32 42.6296 21.32C43.1896 21.32 43.5896 21.784 43.5896 22.28ZM43.5896 28.136C43.5896 28.648 43.1416 29.096 42.6296 29.096C42.1336 29.096 41.6696 28.648 41.6696 28.136C41.6696 27.608 42.1016 27.176 42.6296 27.176C43.1576 27.176 43.5896 27.624 43.5896 28.136ZM49.0987 17.48C51.1147 17.48 52.5547 18.664 52.5547 20.552C52.5547 22.28 51.6907 23.16 50.3467 24.44L46.8587 27.72V27.752H52.6347V29H45.3387V27.464L49.6907 23.224C51.1627 21.8 51.2107 21.176 51.2107 20.552C51.2107 19.416 50.3147 18.632 49.1467 18.632C48.0107 18.632 47.2107 19.336 47.0027 20.44L45.5467 20.312C45.8507 18.504 47.2267 17.48 49.0987 17.48ZM57.5574 17.48C60.0694 17.48 61.3974 19.688 61.3974 23.336C61.3974 27 60.0694 29.192 57.5574 29.192C55.0454 29.192 53.7174 26.984 53.7174 23.336C53.7174 19.688 55.0454 17.48 57.5574 17.48ZM55.0614 23.336C55.0614 26.392 55.9414 28.04 57.5574 28.04C59.1734 28.04 60.0534 26.408 60.0534 23.336C60.0534 20.28 59.1894 18.632 57.5414 18.632C55.9734 18.632 55.0614 20.216 55.0614 23.336Z" fill="white"/>
<g filter="url(#filter0_b_215_391)">
<g clip-path="url(#clip1_215_391)">
<rect opacity="0.2" x="317.5" y="19" width="3.5" height="11.5" rx="1" fill="white"/>
<path d="M312.5 22.5C312.5 21.9477 312.948 21.5 313.5 21.5H315C315.552 21.5 316 21.9477 316 22.5V29.5C316 30.0523 315.552 30.5 315 30.5H313.5C312.948 30.5 312.5 30.0523 312.5 29.5V22.5Z" fill="white"/>
<path d="M307.5 25C307.5 24.4477 307.948 24 308.5 24H310C310.552 24 311 24.4477 311 25V29.5C311 30.0523 310.552 30.5 310 30.5H308.5C307.948 30.5 307.5 30.0523 307.5 29.5V25Z" fill="white"/>
<path d="M302.5 27C302.5 26.4477 302.948 26 303.5 26H305C305.552 26 306 26.4477 306 27V29.5C306 30.0523 305.552 30.5 305 30.5H303.5C302.948 30.5 302.5 30.0523 302.5 29.5V27Z" fill="white"/>
<path d="M336.325 28.289C336.39 28.2255 336.426 28.138 336.424 28.0473C336.422 27.9566 336.383 27.8706 336.316 27.8098C334.979 26.6783 333.022 26.6783 331.686 27.8098C331.618 27.8706 331.579 27.9565 331.577 28.0472C331.575 28.1379 331.611 28.2254 331.676 28.289L333.768 30.4029C333.83 30.465 333.913 30.5 334.001 30.5C334.088 30.5 334.171 30.465 334.233 30.4029L336.325 28.289Z" fill="white"/>
<path d="M334 25.369C335.276 25.369 336.506 25.8435 337.451 26.7006C337.579 26.8222 337.781 26.8195 337.905 26.6946L339.115 25.4711C339.179 25.4069 339.214 25.3199 339.213 25.2294C339.212 25.1389 339.175 25.0526 339.11 24.9898C336.231 22.3088 331.772 22.3088 328.893 24.9898C328.828 25.0526 328.791 25.139 328.79 25.2295C328.789 25.32 328.825 25.407 328.889 25.4711L330.098 26.6946C330.222 26.8195 330.424 26.8222 330.552 26.7006C331.497 25.8441 332.726 25.3696 334 25.369Z" fill="white"/>
<path opacity="0.2" d="M334 21.3883C336.322 21.3884 338.555 22.2813 340.237 23.8825C340.364 24.0061 340.566 24.0045 340.691 23.879L341.902 22.6555C341.965 22.5918 342.001 22.5055 342 22.4158C341.999 22.326 341.963 22.2402 341.899 22.1772C337.483 17.9409 330.517 17.9409 326.101 22.1772C326.037 22.2401 326.001 22.326 326 22.4157C325.999 22.5055 326.035 22.5917 326.098 22.6555L327.309 23.879C327.434 24.0047 327.637 24.0063 327.763 23.8825C329.446 22.2812 331.679 21.3883 334 21.3883Z" fill="white"/>
<g clip-path="url(#clip2_215_391)">
<path d="M348 21.75C348 21.0596 348.56 20.5 349.25 20.5H350V29H349.25C348.56 29 348 28.4404 348 27.75V21.75Z" fill="white"/>
<path d="M350 20.5H352V29H350V20.5Z" fill="white"/>
<path d="M352 20.5H354V29H352V20.5Z" fill="white"/>
<path d="M354 20.5H356V29H354V20.5Z" fill="white"/>
<path d="M356 20.5H358V29H356V20.5Z" fill="white"/>
<path d="M358 20.5H360V29H358V20.5Z" fill="white"/>
<path d="M360 20.5H362V29H360V20.5Z" fill="white"/>
<path d="M364 21.75C364 21.0596 363.44 20.5 362.75 20.5H362V29H362.75C363.44 29 364 28.4404 364 27.75V21.75Z" fill="white"/>
</g>
<g opacity="0.5">
<path fill-rule="evenodd" clip-rule="evenodd" d="M346 21.5C346 19.8431 347.343 18.5 349 18.5H367C368.657 18.5 370 19.8431 370 21.5V28C370 29.6569 368.657 31 367 31H349C347.343 31 346 29.6569 346 28V21.5ZM349 19.5C347.895 19.5 347 20.3954 347 21.5V28C347 29.1046 347.895 30 349 30H367C368.105 30 369 29.1046 369 28V21.5C369 20.3954 368.105 19.5 367 19.5H349Z" fill="white"/>
<path d="M371 27.042C371.883 26.6562 372.5 25.7751 372.5 24.75C372.5 23.7248 371.883 22.8438 371 22.458V27.042Z" fill="white"/>
</g>
</g>
</g>
<path d="M55.928 143.043L51.608 136.803H51.352H46.84V143.043H41.656V120.643H51.352C53.336 120.643 55.0533 120.973 56.504 121.635C57.976 122.296 59.1067 123.235 59.896 124.451C60.6853 125.667 61.08 127.107 61.08 128.771C61.08 130.435 60.6747 131.875 59.864 133.091C59.0747 134.285 57.944 135.203 56.472 135.843L61.496 143.043H55.928ZM55.832 128.771C55.832 127.512 55.4267 126.552 54.616 125.891C53.8053 125.208 52.6213 124.867 51.064 124.867H46.84V132.675H51.064C52.6213 132.675 53.8053 132.333 54.616 131.651C55.4267 130.968 55.832 130.008 55.832 128.771ZM81.6993 134.499C81.6993 134.563 81.6673 135.011 81.6033 135.843H68.5793C68.8139 136.909 69.3686 137.752 70.2433 138.371C71.1179 138.989 72.2059 139.299 73.5073 139.299C74.4033 139.299 75.1926 139.171 75.8753 138.915C76.5793 138.637 77.2299 138.211 77.8273 137.635L80.4833 140.515C78.8619 142.371 76.4939 143.299 73.3793 143.299C71.4379 143.299 69.7206 142.925 68.2273 142.179C66.7339 141.411 65.5819 140.355 64.7713 139.011C63.9606 137.667 63.5553 136.141 63.5553 134.435C63.5553 132.749 63.9499 131.235 64.7393 129.891C65.5499 128.525 66.6486 127.469 68.0353 126.723C69.4433 125.955 71.0113 125.571 72.7393 125.571C74.4246 125.571 75.9499 125.933 77.3153 126.659C78.6806 127.384 79.7473 128.429 80.5153 129.795C81.3046 131.139 81.6993 132.707 81.6993 134.499ZM72.7713 129.347C71.6406 129.347 70.6913 129.667 69.9233 130.307C69.1553 130.947 68.6859 131.821 68.5153 132.931H76.9953C76.8246 131.843 76.3553 130.979 75.5873 130.339C74.8193 129.677 73.8806 129.347 72.7713 129.347ZM102.783 125.827V140.163C102.783 143.32 101.961 145.667 100.319 147.203C98.6761 148.739 96.2761 149.507 93.1188 149.507C91.4548 149.507 89.8761 149.304 88.3828 148.899C86.8894 148.493 85.6521 147.907 84.6708 147.139L86.6548 143.555C87.3801 144.152 88.2974 144.621 89.4068 144.963C90.5161 145.325 91.6254 145.507 92.7348 145.507C94.4628 145.507 95.7321 145.112 96.5428 144.323C97.3748 143.555 97.7908 142.381 97.7908 140.803V140.067C96.4894 141.496 94.6761 142.211 92.3508 142.211C90.7721 142.211 89.3214 141.869 87.9988 141.187C86.6974 140.483 85.6628 139.501 84.8948 138.243C84.1268 136.984 83.7428 135.533 83.7428 133.891C83.7428 132.248 84.1268 130.797 84.8948 129.539C85.6628 128.28 86.6974 127.309 87.9988 126.627C89.3214 125.923 90.7721 125.571 92.3508 125.571C94.8468 125.571 96.7454 126.392 98.0468 128.035V125.827H102.783ZM93.3428 138.115C94.6654 138.115 95.7428 137.731 96.5748 136.963C97.4281 136.173 97.8548 135.149 97.8548 133.891C97.8548 132.632 97.4281 131.619 96.5748 130.851C95.7428 130.061 94.6654 129.667 93.3428 129.667C92.0201 129.667 90.9321 130.061 90.0788 130.851C89.2254 131.619 88.7988 132.632 88.7988 133.891C88.7988 135.149 89.2254 136.173 90.0788 136.963C90.9321 137.731 92.0201 138.115 93.3428 138.115ZM107.429 125.827H112.421V143.043H107.429V125.827ZM109.925 123.427C109.008 123.427 108.261 123.16 107.685 122.627C107.109 122.093 106.821 121.432 106.821 120.643C106.821 119.853 107.109 119.192 107.685 118.659C108.261 118.125 109.008 117.859 109.925 117.859C110.842 117.859 111.589 118.115 112.165 118.627C112.741 119.139 113.029 119.779 113.029 120.547C113.029 121.379 112.741 122.072 112.165 122.627C111.589 123.16 110.842 123.427 109.925 123.427ZM122.846 143.299C121.417 143.299 120.019 143.128 118.654 142.787C117.289 142.424 116.201 141.976 115.39 141.443L117.054 137.859C117.822 138.349 118.75 138.755 119.838 139.075C120.926 139.373 121.993 139.523 123.038 139.523C125.15 139.523 126.206 139 126.206 137.955C126.206 137.464 125.918 137.112 125.342 136.899C124.766 136.685 123.881 136.504 122.686 136.355C121.278 136.141 120.115 135.896 119.198 135.619C118.281 135.341 117.481 134.851 116.798 134.147C116.137 133.443 115.806 132.44 115.806 131.139C115.806 130.051 116.115 129.091 116.734 128.259C117.374 127.405 118.291 126.744 119.486 126.275C120.702 125.805 122.131 125.571 123.774 125.571C124.99 125.571 126.195 125.709 127.39 125.987C128.606 126.243 129.609 126.605 130.398 127.075L128.734 130.627C127.219 129.773 125.566 129.347 123.774 129.347C122.707 129.347 121.907 129.496 121.374 129.795C120.841 130.093 120.574 130.477 120.574 130.947C120.574 131.48 120.862 131.853 121.438 132.067C122.014 132.28 122.931 132.483 124.19 132.675C125.598 132.909 126.75 133.165 127.646 133.443C128.542 133.699 129.321 134.179 129.982 134.883C130.643 135.587 130.974 136.568 130.974 137.827C130.974 138.893 130.654 139.843 130.014 140.675C129.374 141.507 128.435 142.157 127.198 142.627C125.982 143.075 124.531 143.299 122.846 143.299ZM145.158 142.211C144.667 142.573 144.059 142.851 143.334 143.043C142.63 143.213 141.883 143.299 141.094 143.299C139.046 143.299 137.457 142.776 136.326 141.731C135.217 140.685 134.662 139.149 134.662 137.123V130.051H132.006V126.211H134.662V122.019H139.654V126.211H143.942V130.051H139.654V137.059C139.654 137.784 139.835 138.349 140.198 138.755C140.582 139.139 141.115 139.331 141.798 139.331C142.587 139.331 143.259 139.117 143.814 138.691L145.158 142.211ZM164.293 134.499C164.293 134.563 164.261 135.011 164.197 135.843H151.173C151.408 136.909 151.962 137.752 152.837 138.371C153.712 138.989 154.8 139.299 156.101 139.299C156.997 139.299 157.786 139.171 158.469 138.915C159.173 138.637 159.824 138.211 160.421 137.635L163.077 140.515C161.456 142.371 159.088 143.299 155.973 143.299C154.032 143.299 152.314 142.925 150.821 142.179C149.328 141.411 148.176 140.355 147.365 139.011C146.554 137.667 146.149 136.141 146.149 134.435C146.149 132.749 146.544 131.235 147.333 129.891C148.144 128.525 149.242 127.469 150.629 126.723C152.037 125.955 153.605 125.571 155.333 125.571C157.018 125.571 158.544 125.933 159.909 126.659C161.274 127.384 162.341 128.429 163.109 129.795C163.898 131.139 164.293 132.707 164.293 134.499ZM155.365 129.347C154.234 129.347 153.285 129.667 152.517 130.307C151.749 130.947 151.28 131.821 151.109 132.931H159.589C159.418 131.843 158.949 130.979 158.181 130.339C157.413 129.677 156.474 129.347 155.365 129.347ZM172.385 128.099C172.982 127.267 173.782 126.637 174.785 126.211C175.809 125.784 176.982 125.571 178.305 125.571V130.179C177.75 130.136 177.377 130.115 177.185 130.115C175.755 130.115 174.635 130.52 173.825 131.331C173.014 132.12 172.609 133.315 172.609 134.915V143.043H167.617V125.827H172.385V128.099ZM205.564 138.243H195.164L193.18 143.043H187.868L197.852 120.643H202.972L212.988 143.043H207.548L205.564 138.243ZM203.932 134.307L200.38 125.731L196.828 134.307H203.932ZM244.919 120.643V143.043H240.663L229.495 129.443V143.043H224.375V120.643H228.663L239.799 134.243V120.643H244.919ZM266.731 134.499C266.731 134.563 266.699 135.011 266.635 135.843H253.611C253.845 136.909 254.4 137.752 255.275 138.371C256.149 138.989 257.237 139.299 258.539 139.299C259.435 139.299 260.224 139.171 260.907 138.915C261.611 138.637 262.261 138.211 262.859 137.635L265.515 140.515C263.893 142.371 261.525 143.299 258.411 143.299C256.469 143.299 254.752 142.925 253.259 142.179C251.765 141.411 250.613 140.355 249.803 139.011C248.992 137.667 248.587 136.141 248.587 134.435C248.587 132.749 248.981 131.235 249.771 129.891C250.581 128.525 251.68 127.469 253.067 126.723C254.475 125.955 256.043 125.571 257.771 125.571C259.456 125.571 260.981 125.933 262.347 126.659C263.712 127.384 264.779 128.429 265.547 129.795C266.336 131.139 266.731 132.707 266.731 134.499ZM257.803 129.347C256.672 129.347 255.723 129.667 254.955 130.307C254.187 130.947 253.717 131.821 253.547 132.931H262.027C261.856 131.843 261.387 130.979 260.619 130.339C259.851 129.677 258.912 129.347 257.803 129.347ZM297.39 125.827L291.15 143.043H286.35L282.478 132.355L278.478 143.043H273.678L267.47 125.827H272.174L276.238 137.475L280.462 125.827H284.686L288.782 137.475L292.974 125.827H297.39ZM58.104 173.395C59.384 173.8 60.3867 174.483 61.112 175.443C61.8373 176.381 62.2 177.544 62.2 178.931C62.2 180.893 61.432 182.408 59.896 183.475C58.3813 184.52 56.1627 185.043 53.24 185.043H41.656V162.643H52.6C55.3307 162.643 57.4213 163.165 58.872 164.211C60.344 165.256 61.08 166.675 61.08 168.467C61.08 169.555 60.8133 170.525 60.28 171.379C59.768 172.232 59.0427 172.904 58.104 173.395ZM46.808 166.547V171.827H51.96C53.24 171.827 54.2107 171.603 54.872 171.155C55.5333 170.707 55.864 170.045 55.864 169.171C55.864 168.296 55.5333 167.645 54.872 167.219C54.2107 166.771 53.24 166.547 51.96 166.547H46.808ZM52.856 181.139C54.2213 181.139 55.2453 180.915 55.928 180.467C56.632 180.019 56.984 179.325 56.984 178.387C56.984 176.531 55.608 175.603 52.856 175.603H46.808V181.139H52.856ZM72.7168 167.571C75.3834 167.571 77.4314 168.211 78.8608 169.491C80.2901 170.749 81.0048 172.659 81.0048 175.219V185.043H76.3328V182.899C75.3941 184.499 73.6448 185.299 71.0848 185.299C69.7621 185.299 68.6101 185.075 67.6288 184.627C66.6688 184.179 65.9328 183.56 65.4208 182.771C64.9088 181.981 64.6528 181.085 64.6528 180.083C64.6528 178.483 65.2501 177.224 66.4448 176.307C67.6608 175.389 69.5274 174.931 72.0448 174.931H76.0128C76.0128 173.843 75.6821 173.011 75.0208 172.435C74.3594 171.837 73.3674 171.539 72.0448 171.539C71.1274 171.539 70.2208 171.688 69.3248 171.987C68.4501 172.264 67.7034 172.648 67.0848 173.139L65.2928 169.651C66.2314 168.989 67.3514 168.477 68.6528 168.115C69.9754 167.752 71.3301 167.571 72.7168 167.571ZM72.3328 181.939C73.1861 181.939 73.9434 181.747 74.6048 181.363C75.2661 180.957 75.7354 180.371 76.0128 179.603V177.843H72.5888C70.5408 177.843 69.5168 178.515 69.5168 179.859C69.5168 180.499 69.7621 181.011 70.2528 181.395C70.7648 181.757 71.4581 181.939 72.3328 181.939ZM95.6988 167.571C97.2988 167.571 98.7494 167.944 100.051 168.691C101.373 169.416 102.408 170.451 103.155 171.795C103.901 173.117 104.275 174.664 104.275 176.435C104.275 178.205 103.901 179.763 103.155 181.107C102.408 182.429 101.373 183.464 100.051 184.211C98.7494 184.936 97.2988 185.299 95.6988 185.299C93.3308 185.299 91.5281 184.552 90.2908 183.059V185.043H85.5228V161.299H90.5148V169.651C91.7734 168.264 93.5014 167.571 95.6988 167.571ZM94.8348 181.203C96.1148 181.203 97.1601 180.776 97.9708 179.923C98.8028 179.048 99.2188 177.885 99.2188 176.435C99.2188 174.984 98.8028 173.832 97.9708 172.979C97.1601 172.104 96.1148 171.667 94.8348 171.667C93.5548 171.667 92.4988 172.104 91.6667 172.979C90.8561 173.832 90.4508 174.984 90.4508 176.435C90.4508 177.885 90.8561 179.048 91.6667 179.923C92.4988 180.776 93.5548 181.203 94.8348 181.203ZM124.236 167.827L116.46 186.099C115.67 188.083 114.689 189.48 113.516 190.291C112.364 191.101 110.966 191.507 109.324 191.507C108.428 191.507 107.542 191.368 106.668 191.091C105.793 190.813 105.078 190.429 104.524 189.939L106.348 186.387C106.732 186.728 107.169 186.995 107.66 187.187C108.172 187.379 108.673 187.475 109.164 187.475C109.846 187.475 110.401 187.304 110.828 186.963C111.254 186.643 111.638 186.099 111.98 185.331L112.044 185.171L104.588 167.827H109.74L114.572 179.507L119.436 167.827H124.236Z" fill="#6078E0"/>
<path d="M32.395 26.408V24.92L36.891 17.672H38.539V25.16H40.171V26.408H38.539V29H37.195V26.408H32.395ZM37.163 19.24L33.547 25.16H37.195V19.24H37.163ZM43.5896 22.28C43.5896 22.792 43.1256 23.24 42.6296 23.24C42.1656 23.24 41.6696 22.808 41.6696 22.28C41.6696 21.752 42.1176 21.32 42.6296 21.32C43.1896 21.32 43.5896 21.784 43.5896 22.28ZM43.5896 28.136C43.5896 28.648 43.1416 29.096 42.6296 29.096C42.1336 29.096 41.6696 28.648 41.6696 28.136C41.6696 27.608 42.1016 27.176 42.6296 27.176C43.1576 27.176 43.5896 27.624 43.5896 28.136ZM49.0987 17.48C51.1147 17.48 52.5547 18.664 52.5547 20.552C52.5547 22.28 51.6907 23.16 50.3467 24.44L46.8587 27.72V27.752H52.6347V29H45.3387V27.464L49.6907 23.224C51.1627 21.8 51.2107 21.176 51.2107 20.552C51.2107 19.416 50.3147 18.632 49.1467 18.632C48.0107 18.632 47.2107 19.336 47.0027 20.44L45.5467 20.312C45.8507 18.504 47.2267 17.48 49.0987 17.48ZM57.5574 17.48C60.0694 17.48 61.3974 19.688 61.3974 23.336C61.3974 27 60.0694 29.192 57.5574 29.192C55.0454 29.192 53.7174 26.984 53.7174 23.336C53.7174 19.688 55.0454 17.48 57.5574 17.48ZM55.0614 23.336C55.0614 26.392 55.9414 28.04 57.5574 28.04C59.1734 28.04 60.0534 26.408 60.0534 23.336C60.0534 20.28 59.1894 18.632 57.5414 18.632C55.9734 18.632 55.0614 20.216 55.0614 23.336Z" fill="#3C3C43"/>
<g filter="url(#filter1_b_215_391)">
<g clip-path="url(#clip3_215_391)">
<rect opacity="0.2" x="317.5" y="19" width="3.5" height="11.5" rx="1" fill="#3C3C43"/>
<path d="M312.5 22.5C312.5 21.9477 312.948 21.5 313.5 21.5H315C315.552 21.5 316 21.9477 316 22.5V29.5C316 30.0523 315.552 30.5 315 30.5H313.5C312.948 30.5 312.5 30.0523 312.5 29.5V22.5Z" fill="#3C3C43"/>
<path d="M307.5 25C307.5 24.4477 307.948 24 308.5 24H310C310.552 24 311 24.4477 311 25V29.5C311 30.0523 310.552 30.5 310 30.5H308.5C307.948 30.5 307.5 30.0523 307.5 29.5V25Z" fill="#3C3C43"/>
<path d="M302.5 27C302.5 26.4477 302.948 26 303.5 26H305C305.552 26 306 26.4477 306 27V29.5C306 30.0523 305.552 30.5 305 30.5H303.5C302.948 30.5 302.5 30.0523 302.5 29.5V27Z" fill="#3C3C43"/>
<path d="M336.325 28.289C336.39 28.2255 336.426 28.138 336.424 28.0473C336.422 27.9566 336.383 27.8706 336.316 27.8098C334.979 26.6783 333.022 26.6783 331.686 27.8098C331.618 27.8706 331.579 27.9565 331.577 28.0472C331.575 28.1379 331.611 28.2254 331.676 28.289L333.768 30.4029C333.83 30.465 333.913 30.5 334.001 30.5C334.088 30.5 334.171 30.465 334.233 30.4029L336.325 28.289Z" fill="#3C3C43"/>
<path d="M334 25.369C335.276 25.369 336.506 25.8435 337.451 26.7006C337.579 26.8222 337.781 26.8195 337.905 26.6946L339.115 25.4711C339.179 25.4069 339.214 25.3199 339.213 25.2294C339.212 25.1389 339.175 25.0526 339.11 24.9898C336.231 22.3088 331.772 22.3088 328.893 24.9898C328.828 25.0526 328.791 25.139 328.79 25.2295C328.789 25.32 328.825 25.407 328.889 25.4711L330.098 26.6946C330.222 26.8195 330.424 26.8222 330.552 26.7006C331.497 25.8441 332.726 25.3696 334 25.369Z" fill="#3C3C43"/>
<path opacity="0.2" d="M334 21.3883C336.322 21.3884 338.555 22.2813 340.237 23.8825C340.364 24.0061 340.566 24.0045 340.691 23.879L341.902 22.6555C341.965 22.5918 342.001 22.5055 342 22.4158C341.999 22.326 341.963 22.2402 341.899 22.1772C337.483 17.9409 330.517 17.9409 326.101 22.1772C326.037 22.2401 326.001 22.326 326 22.4157C325.999 22.5055 326.035 22.5917 326.098 22.6555L327.309 23.879C327.434 24.0047 327.637 24.0063 327.763 23.8825C329.446 22.2812 331.679 21.3883 334 21.3883Z" fill="#3C3C43"/>
<g clip-path="url(#clip4_215_391)">
<path d="M348 21.75C348 21.0596 348.56 20.5 349.25 20.5H350V29H349.25C348.56 29 348 28.4404 348 27.75V21.75Z" fill="#3C3C43"/>
<path d="M350 20.5H352V29H350V20.5Z" fill="#3C3C43"/>
<path d="M352 20.5H354V29H352V20.5Z" fill="#3C3C43"/>
<path d="M354 20.5H356V29H354V20.5Z" fill="#3C3C43"/>
<path d="M356 20.5H358V29H356V20.5Z" fill="#3C3C43"/>
<path d="M358 20.5H360V29H358V20.5Z" fill="#3C3C43"/>
<path d="M360 20.5H362V29H360V20.5Z" fill="#3C3C43"/>
<path d="M364 21.75C364 21.0596 363.44 20.5 362.75 20.5H362V29H362.75C363.44 29 364 28.4404 364 27.75V21.75Z" fill="#3C3C43"/>
</g>
<g opacity="0.5">
<path fill-rule="evenodd" clip-rule="evenodd" d="M346 21.5C346 19.8431 347.343 18.5 349 18.5H367C368.657 18.5 370 19.8431 370 21.5V28C370 29.6569 368.657 31 367 31H349C347.343 31 346 29.6569 346 28V21.5ZM349 19.5C347.895 19.5 347 20.3954 347 21.5V28C347 29.1046 347.895 30 349 30H367C368.105 30 369 29.1046 369 28V21.5C369 20.3954 368.105 19.5 367 19.5H349Z" fill="#3C3C43"/>
<path d="M371 27.042C371.883 26.6562 372.5 25.7751 372.5 24.75C372.5 23.7248 371.883 22.8438 371 22.458V27.042Z" fill="#3C3C43"/>
</g>
</g>
</g>
<path d="M136.5 843L252.5 843" stroke="black" stroke-width="4" stroke-linecap="round"/>
<rect x="121" y="225" width="148" height="148" rx="74" fill="#EBEEFB"/>
<path fill-rule="evenodd" clip-rule="evenodd" d="M196.747 289.261L207.067 289.262C207.614 289.262 208.139 289.039 208.527 288.642C208.914 288.245 209.131 287.707 209.131 287.146C209.131 286.585 208.914 286.046 208.527 285.65C208.139 285.253 207.614 285.03 207.067 285.03L196.746 285.032L196.747 274.454C196.747 274.176 196.693 273.901 196.59 273.644C196.486 273.388 196.334 273.154 196.142 272.958C195.95 272.762 195.723 272.606 195.472 272.5C195.222 272.393 194.953 272.339 194.682 272.339C194.411 272.339 194.143 272.394 193.893 272.5C193.642 272.606 193.415 272.762 193.223 272.959C193.031 273.155 192.879 273.388 192.776 273.645C192.672 273.902 192.619 274.177 192.619 274.455L192.62 285.031L182.301 285.031C182.027 285.026 181.755 285.077 181.5 285.181C181.245 285.285 181.014 285.44 180.818 285.636C180.622 285.833 180.467 286.068 180.361 286.327C180.255 286.586 180.2 286.864 180.2 287.145C180.2 287.426 180.254 287.704 180.36 287.963C180.466 288.222 180.621 288.457 180.817 288.654C181.012 288.851 181.244 289.006 181.498 289.11C181.753 289.215 182.025 289.266 182.299 289.261L192.621 289.26L192.62 299.838C192.62 300.399 192.837 300.937 193.224 301.334C193.612 301.731 194.137 301.954 194.684 301.954C195.232 301.954 195.757 301.731 196.144 301.334C196.531 300.937 196.749 300.399 196.749 299.838L196.746 289.26L196.747 289.261Z" fill="#6078E0"/>
<path d="M157.032 321.418C157.601 321.577 158.049 321.866 158.376 322.286C158.702 322.697 158.866 323.219 158.866 323.854C158.866 324.703 158.544 325.357 157.9 325.814C157.265 326.271 156.336 326.5 155.114 326.5H150.438V316.7H154.834C155.954 316.7 156.817 316.924 157.424 317.372C158.04 317.82 158.348 318.441 158.348 319.234C158.348 319.747 158.226 320.191 157.984 320.564C157.75 320.937 157.433 321.222 157.032 321.418ZM151.838 317.834V320.97H154.708C155.426 320.97 155.977 320.839 156.36 320.578C156.752 320.307 156.948 319.915 156.948 319.402C156.948 318.889 156.752 318.501 156.36 318.24C155.977 317.969 155.426 317.834 154.708 317.834H151.838ZM155.058 325.366C155.851 325.366 156.448 325.235 156.85 324.974C157.251 324.713 157.452 324.302 157.452 323.742C157.452 322.65 156.654 322.104 155.058 322.104H151.838V325.366H155.058ZM163.539 319.01C164.566 319.01 165.35 319.262 165.891 319.766C166.442 320.27 166.717 321.021 166.717 322.02V326.5H165.443V325.52C165.219 325.865 164.897 326.131 164.477 326.318C164.067 326.495 163.577 326.584 163.007 326.584C162.177 326.584 161.509 326.383 161.005 325.982C160.511 325.581 160.263 325.053 160.263 324.4C160.263 323.747 160.501 323.224 160.977 322.832C161.453 322.431 162.209 322.23 163.245 322.23H165.373V321.964C165.373 321.385 165.205 320.942 164.869 320.634C164.533 320.326 164.039 320.172 163.385 320.172C162.947 320.172 162.517 320.247 162.097 320.396C161.677 320.536 161.323 320.727 161.033 320.97L160.473 319.962C160.856 319.654 161.313 319.421 161.845 319.262C162.377 319.094 162.942 319.01 163.539 319.01ZM163.231 325.548C163.745 325.548 164.188 325.436 164.561 325.212C164.935 324.979 165.205 324.652 165.373 324.232V323.196H163.301C162.163 323.196 161.593 323.579 161.593 324.344C161.593 324.717 161.738 325.011 162.027 325.226C162.317 325.441 162.718 325.548 163.231 325.548ZM173.139 319.01C173.857 319.01 174.501 319.169 175.071 319.486C175.64 319.803 176.083 320.247 176.401 320.816C176.727 321.385 176.891 322.043 176.891 322.79C176.891 323.537 176.727 324.199 176.401 324.778C176.083 325.347 175.64 325.791 175.071 326.108C174.501 326.425 173.857 326.584 173.139 326.584C172.588 326.584 172.084 326.477 171.627 326.262C171.169 326.047 170.791 325.735 170.493 325.324V326.5H169.205V316.112H170.549V320.2C170.847 319.808 171.221 319.514 171.669 319.318C172.117 319.113 172.607 319.01 173.139 319.01ZM173.027 325.408C173.503 325.408 173.927 325.301 174.301 325.086C174.683 324.862 174.982 324.554 175.197 324.162C175.421 323.761 175.533 323.303 175.533 322.79C175.533 322.277 175.421 321.824 175.197 321.432C174.982 321.031 174.683 320.723 174.301 320.508C173.927 320.293 173.503 320.186 173.027 320.186C172.56 320.186 172.135 320.293 171.753 320.508C171.37 320.723 171.071 321.031 170.857 321.432C170.642 321.824 170.535 322.277 170.535 322.79C170.535 323.303 170.642 323.761 170.857 324.162C171.071 324.554 171.37 324.862 171.753 325.086C172.135 325.301 172.56 325.408 173.027 325.408ZM185.109 319.08L181.511 327.242C181.193 327.998 180.82 328.53 180.391 328.838C179.971 329.146 179.462 329.3 178.865 329.3C178.501 329.3 178.146 329.239 177.801 329.118C177.465 329.006 177.185 328.838 176.961 328.614L177.535 327.606C177.917 327.97 178.361 328.152 178.865 328.152C179.191 328.152 179.462 328.063 179.677 327.886C179.901 327.718 180.101 327.424 180.279 327.004L180.517 326.486L177.241 319.08H178.641L181.231 325.016L183.793 319.08H185.109ZM186.931 316.028C187.193 316.028 187.407 316.121 187.575 316.308C187.753 316.485 187.841 316.709 187.841 316.98C187.841 317.12 187.827 317.26 187.799 317.4C187.771 317.531 187.711 317.722 187.617 317.974L186.945 319.934H186.063L186.581 317.848C186.404 317.783 186.259 317.675 186.147 317.526C186.045 317.367 185.993 317.185 185.993 316.98C185.993 316.7 186.082 316.471 186.259 316.294C186.437 316.117 186.661 316.028 186.931 316.028ZM191.663 326.584C191.056 326.584 190.473 326.505 189.913 326.346C189.353 326.178 188.914 325.968 188.597 325.716L189.157 324.652C189.483 324.885 189.88 325.072 190.347 325.212C190.813 325.352 191.285 325.422 191.761 325.422C192.937 325.422 193.525 325.086 193.525 324.414C193.525 324.19 193.445 324.013 193.287 323.882C193.128 323.751 192.927 323.658 192.685 323.602C192.451 323.537 192.115 323.467 191.677 323.392C191.079 323.299 190.589 323.191 190.207 323.07C189.833 322.949 189.511 322.743 189.241 322.454C188.97 322.165 188.835 321.759 188.835 321.236C188.835 320.564 189.115 320.027 189.675 319.626C190.235 319.215 190.986 319.01 191.929 319.01C192.423 319.01 192.918 319.071 193.413 319.192C193.907 319.313 194.313 319.477 194.631 319.682L194.057 320.746C193.45 320.354 192.736 320.158 191.915 320.158C191.345 320.158 190.911 320.251 190.613 320.438C190.314 320.625 190.165 320.872 190.165 321.18C190.165 321.423 190.249 321.614 190.417 321.754C190.585 321.894 190.79 321.997 191.033 322.062C191.285 322.127 191.635 322.202 192.083 322.286C192.68 322.389 193.161 322.501 193.525 322.622C193.898 322.734 194.215 322.93 194.477 323.21C194.738 323.49 194.869 323.882 194.869 324.386C194.869 325.058 194.579 325.595 194.001 325.996C193.431 326.388 192.652 326.584 191.663 326.584ZM204.326 316.7C205.596 316.7 206.594 317.003 207.322 317.61C208.05 318.217 208.414 319.052 208.414 320.116C208.414 321.18 208.05 322.015 207.322 322.622C206.594 323.229 205.596 323.532 204.326 323.532H201.904V326.5H200.504V316.7H204.326ZM204.284 322.314C205.171 322.314 205.848 322.127 206.314 321.754C206.781 321.371 207.014 320.825 207.014 320.116C207.014 319.407 206.781 318.865 206.314 318.492C205.848 318.109 205.171 317.918 204.284 317.918H201.904V322.314H204.284ZM214.374 319.01C215.316 319.01 216.063 319.285 216.614 319.836C217.174 320.377 217.454 321.175 217.454 322.23V326.5H216.11V322.384C216.11 321.665 215.937 321.124 215.592 320.76C215.246 320.396 214.752 320.214 214.108 320.214C213.38 320.214 212.806 320.429 212.386 320.858C211.966 321.278 211.756 321.885 211.756 322.678V326.5H210.412V316.112H211.756V320.13C212.036 319.775 212.4 319.5 212.848 319.304C213.305 319.108 213.814 319.01 214.374 319.01ZM223.16 326.584C222.423 326.584 221.76 326.421 221.172 326.094C220.584 325.767 220.122 325.319 219.786 324.75C219.459 324.171 219.296 323.518 219.296 322.79C219.296 322.062 219.459 321.413 219.786 320.844C220.122 320.265 220.584 319.817 221.172 319.5C221.76 319.173 222.423 319.01 223.16 319.01C223.897 319.01 224.555 319.173 225.134 319.5C225.722 319.817 226.179 320.265 226.506 320.844C226.842 321.413 227.01 322.062 227.01 322.79C227.01 323.518 226.842 324.171 226.506 324.75C226.179 325.319 225.722 325.767 225.134 326.094C224.555 326.421 223.897 326.584 223.16 326.584ZM223.16 325.408C223.636 325.408 224.061 325.301 224.434 325.086C224.817 324.862 225.115 324.554 225.33 324.162C225.545 323.761 225.652 323.303 225.652 322.79C225.652 322.277 225.545 321.824 225.33 321.432C225.115 321.031 224.817 320.723 224.434 320.508C224.061 320.293 223.636 320.186 223.16 320.186C222.684 320.186 222.255 320.293 221.872 320.508C221.499 320.723 221.2 321.031 220.976 321.432C220.761 321.824 220.654 322.277 220.654 322.79C220.654 323.303 220.761 323.761 220.976 324.162C221.2 324.554 221.499 324.862 221.872 325.086C222.255 325.301 222.684 325.408 223.16 325.408ZM233.041 326.066C232.845 326.234 232.602 326.365 232.313 326.458C232.023 326.542 231.725 326.584 231.417 326.584C230.67 326.584 230.091 326.383 229.681 325.982C229.27 325.581 229.065 325.007 229.065 324.26V320.186H227.805V319.08H229.065V317.456H230.409V319.08H232.537V320.186H230.409V324.204C230.409 324.605 230.507 324.913 230.703 325.128C230.908 325.343 231.197 325.45 231.571 325.45C231.981 325.45 232.331 325.333 232.621 325.1L233.041 326.066ZM237.598 326.584C236.86 326.584 236.198 326.421 235.61 326.094C235.022 325.767 234.56 325.319 234.224 324.75C233.897 324.171 233.734 323.518 233.734 322.79C233.734 322.062 233.897 321.413 234.224 320.844C234.56 320.265 235.022 319.817 235.61 319.5C236.198 319.173 236.86 319.01 237.598 319.01C238.335 319.01 238.993 319.173 239.572 319.5C240.16 319.817 240.617 320.265 240.944 320.844C241.28 321.413 241.448 322.062 241.448 322.79C241.448 323.518 241.28 324.171 240.944 324.75C240.617 325.319 240.16 325.767 239.572 326.094C238.993 326.421 238.335 326.584 237.598 326.584ZM237.598 325.408C238.074 325.408 238.498 325.301 238.872 325.086C239.254 324.862 239.553 324.554 239.768 324.162C239.982 323.761 240.09 323.303 240.09 322.79C240.09 322.277 239.982 321.824 239.768 321.432C239.553 321.031 239.254 320.723 238.872 320.508C238.498 320.293 238.074 320.186 237.598 320.186C237.122 320.186 236.692 320.293 236.31 320.508C235.936 320.723 235.638 321.031 235.414 321.432C235.199 321.824 235.092 322.277 235.092 322.79C235.092 323.303 235.199 323.761 235.414 324.162C235.638 324.554 235.936 324.862 236.31 325.086C236.692 325.301 237.122 325.408 237.598 325.408Z" fill="#6078E0"/>
<path d="M47.5533 413.918C48.1226 414.077 48.5706 414.366 48.8973 414.786C49.2239 415.197 49.3873 415.719 49.3873 416.354C49.3873 417.203 49.0653 417.857 48.4213 418.314C47.7866 418.771 46.8579 419 45.6353 419H40.9593V409.2H45.3553C46.4753 409.2 47.3386 409.424 47.9453 409.872C48.5613 410.32 48.8693 410.941 48.8693 411.734C48.8693 412.247 48.7479 412.691 48.5053 413.064C48.2719 413.437 47.9546 413.722 47.5533 413.918ZM42.3593 410.334V413.47H45.2293C45.9479 413.47 46.4986 413.339 46.8813 413.078C47.2733 412.807 47.4693 412.415 47.4693 411.902C47.4693 411.389 47.2733 411.001 46.8813 410.74C46.4986 410.469 45.9479 410.334 45.2293 410.334H42.3593ZM45.5793 417.866C46.3726 417.866 46.9699 417.735 47.3713 417.474C47.7726 417.213 47.9733 416.802 47.9733 416.242C47.9733 415.15 47.1753 414.604 45.5793 414.604H42.3593V417.866H45.5793ZM54.061 411.51C55.0876 411.51 55.8716 411.762 56.413 412.266C56.9636 412.77 57.239 413.521 57.239 414.52V419H55.965V418.02C55.741 418.365 55.419 418.631 54.999 418.818C54.5883 418.995 54.0983 419.084 53.529 419.084C52.6983 419.084 52.031 418.883 51.527 418.482C51.0323 418.081 50.785 417.553 50.785 416.9C50.785 416.247 51.023 415.724 51.499 415.332C51.975 414.931 52.731 414.73 53.767 414.73H55.895V414.464C55.895 413.885 55.727 413.442 55.391 413.134C55.055 412.826 54.5603 412.672 53.907 412.672C53.4683 412.672 53.039 412.747 52.619 412.896C52.199 413.036 51.8443 413.227 51.555 413.47L50.995 412.462C51.3776 412.154 51.835 411.921 52.367 411.762C52.899 411.594 53.4636 411.51 54.061 411.51ZM53.753 418.048C54.2663 418.048 54.7096 417.936 55.083 417.712C55.4563 417.479 55.727 417.152 55.895 416.732V415.696H53.823C52.6843 415.696 52.115 416.079 52.115 416.844C52.115 417.217 52.2596 417.511 52.549 417.726C52.8383 417.941 53.2396 418.048 53.753 418.048ZM63.6601 411.51C64.3788 411.51 65.0228 411.669 65.5921 411.986C66.1615 412.303 66.6048 412.747 66.9221 413.316C67.2488 413.885 67.4121 414.543 67.4121 415.29C67.4121 416.037 67.2488 416.699 66.9221 417.278C66.6048 417.847 66.1615 418.291 65.5921 418.608C65.0228 418.925 64.3788 419.084 63.6601 419.084C63.1095 419.084 62.6055 418.977 62.1481 418.762C61.6908 418.547 61.3128 418.235 61.0141 417.824V419H59.7261V408.612H61.0701V412.7C61.3688 412.308 61.7421 412.014 62.1901 411.818C62.6381 411.613 63.1281 411.51 63.6601 411.51ZM63.5481 417.908C64.0241 417.908 64.4488 417.801 64.8221 417.586C65.2048 417.362 65.5035 417.054 65.7181 416.662C65.9421 416.261 66.0541 415.803 66.0541 415.29C66.0541 414.777 65.9421 414.324 65.7181 413.932C65.5035 413.531 65.2048 413.223 64.8221 413.008C64.4488 412.793 64.0241 412.686 63.5481 412.686C63.0815 412.686 62.6568 412.793 62.2741 413.008C61.8915 413.223 61.5928 413.531 61.3781 413.932C61.1635 414.324 61.0561 414.777 61.0561 415.29C61.0561 415.803 61.1635 416.261 61.3781 416.662C61.5928 417.054 61.8915 417.362 62.2741 417.586C62.6568 417.801 63.0815 417.908 63.5481 417.908ZM75.63 411.58L72.032 419.742C71.7147 420.498 71.3414 421.03 70.912 421.338C70.492 421.646 69.9834 421.8 69.386 421.8C69.022 421.8 68.6674 421.739 68.322 421.618C67.986 421.506 67.706 421.338 67.482 421.114L68.056 420.106C68.4387 420.47 68.882 420.652 69.386 420.652C69.7127 420.652 69.9834 420.563 70.198 420.386C70.422 420.218 70.6227 419.924 70.8 419.504L71.038 418.986L67.762 411.58H69.162L71.752 417.516L74.314 411.58H75.63ZM77.4528 408.528C77.7141 408.528 77.9288 408.621 78.0968 408.808C78.2741 408.985 78.3628 409.209 78.3628 409.48C78.3628 409.62 78.3488 409.76 78.3208 409.9C78.2928 410.031 78.2321 410.222 78.1388 410.474L77.4668 412.434H76.5848L77.1028 410.348C76.9254 410.283 76.7808 410.175 76.6688 410.026C76.5661 409.867 76.5148 409.685 76.5148 409.48C76.5148 409.2 76.6034 408.971 76.7808 408.794C76.9581 408.617 77.1821 408.528 77.4528 408.528ZM82.1842 419.084C81.5776 419.084 80.9942 419.005 80.4342 418.846C79.8742 418.678 79.4356 418.468 79.1182 418.216L79.6782 417.152C80.0049 417.385 80.4016 417.572 80.8682 417.712C81.3349 417.852 81.8062 417.922 82.2822 417.922C83.4582 417.922 84.0462 417.586 84.0462 416.914C84.0462 416.69 83.9669 416.513 83.8082 416.382C83.6496 416.251 83.4489 416.158 83.2062 416.102C82.9729 416.037 82.6369 415.967 82.1982 415.892C81.6009 415.799 81.1109 415.691 80.7282 415.57C80.3549 415.449 80.0329 415.243 79.7622 414.954C79.4916 414.665 79.3562 414.259 79.3562 413.736C79.3562 413.064 79.6362 412.527 80.1962 412.126C80.7562 411.715 81.5076 411.51 82.4502 411.51C82.9449 411.51 83.4396 411.571 83.9342 411.692C84.4289 411.813 84.8349 411.977 85.1522 412.182L84.5782 413.246C83.9716 412.854 83.2576 412.658 82.4362 412.658C81.8669 412.658 81.4329 412.751 81.1342 412.938C80.8356 413.125 80.6862 413.372 80.6862 413.68C80.6862 413.923 80.7702 414.114 80.9382 414.254C81.1062 414.394 81.3116 414.497 81.5542 414.562C81.8062 414.627 82.1562 414.702 82.6042 414.786C83.2016 414.889 83.6822 415.001 84.0462 415.122C84.4196 415.234 84.7369 415.43 84.9982 415.71C85.2596 415.99 85.3902 416.382 85.3902 416.886C85.3902 417.558 85.1009 418.095 84.5222 418.496C83.9529 418.888 83.1736 419.084 82.1842 419.084ZM99.4537 409.2V419H98.3057L92.4257 411.692V419H91.0257V409.2H92.1737L98.0537 416.508V409.2H99.4537ZM104.893 411.51C105.92 411.51 106.704 411.762 107.245 412.266C107.796 412.77 108.071 413.521 108.071 414.52V419H106.797V418.02C106.573 418.365 106.251 418.631 105.831 418.818C105.42 418.995 104.93 419.084 104.361 419.084C103.53 419.084 102.863 418.883 102.359 418.482C101.864 418.081 101.617 417.553 101.617 416.9C101.617 416.247 101.855 415.724 102.331 415.332C102.807 414.931 103.563 414.73 104.599 414.73H106.727V414.464C106.727 413.885 106.559 413.442 106.223 413.134C105.887 412.826 105.392 412.672 104.739 412.672C104.3 412.672 103.871 412.747 103.451 412.896C103.031 413.036 102.676 413.227 102.387 413.47L101.827 412.462C102.21 412.154 102.667 411.921 103.199 411.762C103.731 411.594 104.296 411.51 104.893 411.51ZM104.585 418.048C105.098 418.048 105.542 417.936 105.915 417.712C106.288 417.479 106.559 417.152 106.727 416.732V415.696H104.655C103.516 415.696 102.947 416.079 102.947 416.844C102.947 417.217 103.092 417.511 103.381 417.726C103.67 417.941 104.072 418.048 104.585 418.048ZM119.84 411.51C120.774 411.51 121.511 411.781 122.052 412.322C122.603 412.863 122.878 413.666 122.878 414.73V419H121.534V414.884C121.534 414.165 121.366 413.624 121.03 413.26C120.704 412.896 120.232 412.714 119.616 412.714C118.935 412.714 118.394 412.929 117.992 413.358C117.591 413.778 117.39 414.385 117.39 415.178V419H116.046V414.884C116.046 414.165 115.878 413.624 115.542 413.26C115.216 412.896 114.744 412.714 114.128 412.714C113.447 412.714 112.906 412.929 112.504 413.358C112.103 413.778 111.902 414.385 111.902 415.178V419H110.558V411.58H111.846V412.686C112.117 412.303 112.472 412.014 112.91 411.818C113.349 411.613 113.848 411.51 114.408 411.51C114.987 411.51 115.5 411.627 115.948 411.86C116.396 412.093 116.742 412.434 116.984 412.882C117.264 412.453 117.652 412.117 118.146 411.874C118.65 411.631 119.215 411.51 119.84 411.51ZM132.098 415.332C132.098 415.435 132.089 415.57 132.07 415.738H126.05C126.134 416.391 126.419 416.919 126.904 417.32C127.399 417.712 128.01 417.908 128.738 417.908C129.625 417.908 130.339 417.609 130.88 417.012L131.622 417.88C131.286 418.272 130.866 418.571 130.362 418.776C129.867 418.981 129.312 419.084 128.696 419.084C127.912 419.084 127.217 418.925 126.61 418.608C126.003 418.281 125.532 417.829 125.196 417.25C124.869 416.671 124.706 416.018 124.706 415.29C124.706 414.571 124.865 413.923 125.182 413.344C125.509 412.765 125.952 412.317 126.512 412C127.081 411.673 127.721 411.51 128.43 411.51C129.139 411.51 129.769 411.673 130.32 412C130.88 412.317 131.314 412.765 131.622 413.344C131.939 413.923 132.098 414.585 132.098 415.332ZM128.43 412.644C127.786 412.644 127.245 412.84 126.806 413.232C126.377 413.624 126.125 414.137 126.05 414.772H130.81C130.735 414.147 130.479 413.638 130.04 413.246C129.611 412.845 129.074 412.644 128.43 412.644ZM139.446 421.716C138.914 420.857 138.504 419.873 138.214 418.762C137.925 417.642 137.78 416.443 137.78 415.164C137.78 413.885 137.925 412.686 138.214 411.566C138.504 410.437 138.914 409.452 139.446 408.612H140.72C140.16 409.592 139.75 410.619 139.488 411.692C139.227 412.765 139.096 413.923 139.096 415.164C139.096 416.405 139.227 417.563 139.488 418.636C139.75 419.709 140.16 420.736 140.72 421.716H139.446ZM151.065 409.2V419H149.917L144.037 411.692V419H142.637V409.2H143.785L149.665 416.508V409.2H151.065ZM153.802 411.58H155.146V419H153.802V411.58ZM154.474 410.152C154.213 410.152 153.994 410.068 153.816 409.9C153.648 409.732 153.564 409.527 153.564 409.284C153.564 409.041 153.648 408.836 153.816 408.668C153.994 408.491 154.213 408.402 154.474 408.402C154.736 408.402 154.95 408.486 155.118 408.654C155.296 408.813 155.384 409.013 155.384 409.256C155.384 409.508 155.296 409.723 155.118 409.9C154.95 410.068 154.736 410.152 154.474 410.152ZM160.946 419.084C160.19 419.084 159.514 418.921 158.916 418.594C158.328 418.267 157.866 417.819 157.53 417.25C157.194 416.671 157.026 416.018 157.026 415.29C157.026 414.562 157.194 413.913 157.53 413.344C157.866 412.765 158.328 412.317 158.916 412C159.514 411.673 160.19 411.51 160.946 411.51C161.618 411.51 162.216 411.645 162.738 411.916C163.27 412.187 163.681 412.579 163.97 413.092L162.948 413.75C162.715 413.395 162.426 413.129 162.08 412.952C161.735 412.775 161.352 412.686 160.932 412.686C160.447 412.686 160.008 412.793 159.616 413.008C159.234 413.223 158.93 413.531 158.706 413.932C158.492 414.324 158.384 414.777 158.384 415.29C158.384 415.813 158.492 416.275 158.706 416.676C158.93 417.068 159.234 417.371 159.616 417.586C160.008 417.801 160.447 417.908 160.932 417.908C161.352 417.908 161.735 417.819 162.08 417.642C162.426 417.465 162.715 417.199 162.948 416.844L163.97 417.488C163.681 418.001 163.27 418.398 162.738 418.678C162.216 418.949 161.618 419.084 160.946 419.084ZM168.499 415.542L166.959 416.97V419H165.615V408.612H166.959V415.276L171.005 411.58H172.629L169.507 414.646L172.937 419H171.285L168.499 415.542ZM178.108 411.51C179.051 411.51 179.797 411.785 180.348 412.336C180.908 412.877 181.188 413.675 181.188 414.73V419H179.844V414.884C179.844 414.165 179.671 413.624 179.326 413.26C178.981 412.896 178.486 412.714 177.842 412.714C177.114 412.714 176.54 412.929 176.12 413.358C175.7 413.778 175.49 414.385 175.49 415.178V419H174.146V411.58H175.434V412.7C175.705 412.317 176.069 412.023 176.526 411.818C176.993 411.613 177.52 411.51 178.108 411.51ZM186.377 411.51C187.404 411.51 188.188 411.762 188.729 412.266C189.28 412.77 189.555 413.521 189.555 414.52V419H188.281V418.02C188.057 418.365 187.735 418.631 187.315 418.818C186.905 418.995 186.415 419.084 185.845 419.084C185.015 419.084 184.347 418.883 183.843 418.482C183.349 418.081 183.101 417.553 183.101 416.9C183.101 416.247 183.339 415.724 183.815 415.332C184.291 414.931 185.047 414.73 186.083 414.73H188.211V414.464C188.211 413.885 188.043 413.442 187.707 413.134C187.371 412.826 186.877 412.672 186.223 412.672C185.785 412.672 185.355 412.747 184.935 412.896C184.515 413.036 184.161 413.227 183.871 413.47L183.311 412.462C183.694 412.154 184.151 411.921 184.683 411.762C185.215 411.594 185.78 411.51 186.377 411.51ZM186.069 418.048C186.583 418.048 187.026 417.936 187.399 417.712C187.773 417.479 188.043 417.152 188.211 416.732V415.696H186.139C185.001 415.696 184.431 416.079 184.431 416.844C184.431 417.217 184.576 417.511 184.865 417.726C185.155 417.941 185.556 418.048 186.069 418.048ZM201.325 411.51C202.258 411.51 202.995 411.781 203.537 412.322C204.087 412.863 204.363 413.666 204.363 414.73V419H203.019V414.884C203.019 414.165 202.851 413.624 202.515 413.26C202.188 412.896 201.717 412.714 201.101 412.714C200.419 412.714 199.878 412.929 199.477 413.358C199.075 413.778 198.875 414.385 198.875 415.178V419H197.531V414.884C197.531 414.165 197.363 413.624 197.027 413.26C196.7 412.896 196.229 412.714 195.613 412.714C194.931 412.714 194.39 412.929 193.989 413.358C193.587 413.778 193.387 414.385 193.387 415.178V419H192.043V411.58H193.331V412.686C193.601 412.303 193.956 412.014 194.395 411.818C194.833 411.613 195.333 411.51 195.893 411.51C196.471 411.51 196.985 411.627 197.433 411.86C197.881 412.093 198.226 412.434 198.469 412.882C198.749 412.453 199.136 412.117 199.631 411.874C200.135 411.631 200.699 411.51 201.325 411.51ZM213.583 415.332C213.583 415.435 213.573 415.57 213.555 415.738H207.535C207.619 416.391 207.903 416.919 208.389 417.32C208.883 417.712 209.495 417.908 210.223 417.908C211.109 417.908 211.823 417.609 212.365 417.012L213.107 417.88C212.771 418.272 212.351 418.571 211.847 418.776C211.352 418.981 210.797 419.084 210.181 419.084C209.397 419.084 208.701 418.925 208.095 418.608C207.488 418.281 207.017 417.829 206.681 417.25C206.354 416.671 206.191 416.018 206.191 415.29C206.191 414.571 206.349 413.923 206.667 413.344C206.993 412.765 207.437 412.317 207.997 412C208.566 411.673 209.205 411.51 209.915 411.51C210.624 411.51 211.254 411.673 211.805 412C212.365 412.317 212.799 412.765 213.107 413.344C213.424 413.923 213.583 414.585 213.583 415.332ZM209.915 412.644C209.271 412.644 208.729 412.84 208.291 413.232C207.861 413.624 207.609 414.137 207.535 414.772H212.295C212.22 414.147 211.963 413.638 211.525 413.246C211.095 412.845 210.559 412.644 209.915 412.644ZM214.623 421.716C215.183 420.736 215.593 419.709 215.855 418.636C216.125 417.563 216.261 416.405 216.261 415.164C216.261 413.923 216.125 412.765 215.855 411.692C215.593 410.619 215.183 409.592 214.623 408.612H215.897C216.438 409.452 216.853 410.432 217.143 411.552C217.432 412.672 217.577 413.876 217.577 415.164C217.577 416.443 217.432 417.642 217.143 418.762C216.853 419.882 216.438 420.867 215.897 421.716H214.623ZM222.573 411.216L224.239 412.154L223.805 412.924L222.111 411.93L222.125 413.834H221.285L221.299 411.93L219.605 412.924L219.171 412.154L220.851 411.216L219.171 410.292L219.605 409.508L221.299 410.502L221.285 408.612H222.125L222.111 410.502L223.805 409.508L224.239 410.292L222.573 411.216Z" fill="#3C3C43"/>
<path d="M47.2661 628.918C47.8355 629.077 48.2835 629.366 48.6101 629.786C48.9368 630.197 49.1001 630.719 49.1001 631.354C49.1001 632.203 48.7781 632.857 48.1341 633.314C47.4995 633.771 46.5708 634 45.3481 634H40.6721V624.2H45.0681C46.1881 624.2 47.0515 624.424 47.6581 624.872C48.2741 625.32 48.5821 625.941 48.5821 626.734C48.5821 627.247 48.4608 627.691 48.2181 628.064C47.9848 628.437 47.6675 628.722 47.2661 628.918ZM42.0721 625.334V628.47H44.9421C45.6608 628.47 46.2115 628.339 46.5941 628.078C46.9861 627.807 47.1821 627.415 47.1821 626.902C47.1821 626.389 46.9861 626.001 46.5941 625.74C46.2115 625.469 45.6608 625.334 44.9421 625.334H42.0721ZM45.2921 632.866C46.0855 632.866 46.6828 632.735 47.0841 632.474C47.4855 632.213 47.6861 631.802 47.6861 631.242C47.6861 630.15 46.8881 629.604 45.2921 629.604H42.0721V632.866H45.2921ZM51.0719 626.58H52.4159V634H51.0719V626.58ZM51.7439 625.152C51.4825 625.152 51.2632 625.068 51.0859 624.9C50.9179 624.732 50.8339 624.527 50.8339 624.284C50.8339 624.041 50.9179 623.836 51.0859 623.668C51.2632 623.491 51.4825 623.402 51.7439 623.402C52.0052 623.402 52.2199 623.486 52.3879 623.654C52.5652 623.813 52.6539 624.013 52.6539 624.256C52.6539 624.508 52.5652 624.723 52.3879 624.9C52.2199 625.068 52.0052 625.152 51.7439 625.152ZM56.27 627.826C56.5033 627.397 56.8487 627.07 57.306 626.846C57.7633 626.622 58.3187 626.51 58.972 626.51V627.812C58.8973 627.803 58.7947 627.798 58.664 627.798C57.936 627.798 57.362 628.017 56.942 628.456C56.5313 628.885 56.326 629.501 56.326 630.304V634H54.982V626.58H56.27V627.826ZM65.1013 633.566C64.9053 633.734 64.6626 633.865 64.3733 633.958C64.0839 634.042 63.7853 634.084 63.4773 634.084C62.7306 634.084 62.1519 633.883 61.7413 633.482C61.3306 633.081 61.1253 632.507 61.1253 631.76V627.686H59.8653V626.58H61.1253V624.956H62.4693V626.58H64.5973V627.686H62.4693V631.704C62.4693 632.105 62.5673 632.413 62.7633 632.628C62.9686 632.843 63.2579 632.95 63.6313 632.95C64.0419 632.95 64.3919 632.833 64.6813 632.6L65.1013 633.566ZM70.6881 626.51C71.6308 626.51 72.3775 626.785 72.9281 627.336C73.4881 627.877 73.7681 628.675 73.7681 629.73V634H72.4241V629.884C72.4241 629.165 72.2515 628.624 71.9061 628.26C71.5608 627.896 71.0661 627.714 70.4221 627.714C69.6941 627.714 69.1201 627.929 68.7001 628.358C68.2801 628.778 68.0701 629.385 68.0701 630.178V634H66.7261V623.612H68.0701V627.63C68.3501 627.275 68.7141 627 69.1621 626.804C69.6195 626.608 70.1281 626.51 70.6881 626.51ZM80.2112 624.2H84.3412C85.3772 624.2 86.2965 624.405 87.0992 624.816C87.9019 625.227 88.5225 625.805 88.9612 626.552C89.4092 627.289 89.6332 628.139 89.6332 629.1C89.6332 630.061 89.4092 630.915 88.9612 631.662C88.5225 632.399 87.9019 632.973 87.0992 633.384C86.2965 633.795 85.3772 634 84.3412 634H80.2112V624.2ZM84.2572 632.782C85.0505 632.782 85.7459 632.628 86.3432 632.32C86.9499 632.012 87.4165 631.583 87.7432 631.032C88.0699 630.472 88.2332 629.828 88.2332 629.1C88.2332 628.372 88.0699 627.733 87.7432 627.182C87.4165 626.622 86.9499 626.188 86.3432 625.88C85.7459 625.572 85.0505 625.418 84.2572 625.418H81.6112V632.782H84.2572ZM94.2836 626.51C95.3103 626.51 96.0943 626.762 96.6356 627.266C97.1863 627.77 97.4616 628.521 97.4616 629.52V634H96.1876V633.02C95.9636 633.365 95.6416 633.631 95.2216 633.818C94.811 633.995 94.321 634.084 93.7516 634.084C92.921 634.084 92.2536 633.883 91.7496 633.482C91.255 633.081 91.0076 632.553 91.0076 631.9C91.0076 631.247 91.2456 630.724 91.7216 630.332C92.1976 629.931 92.9536 629.73 93.9896 629.73H96.1176V629.464C96.1176 628.885 95.9496 628.442 95.6136 628.134C95.2776 627.826 94.783 627.672 94.1296 627.672C93.691 627.672 93.2616 627.747 92.8416 627.896C92.4216 628.036 92.067 628.227 91.7776 628.47L91.2176 627.462C91.6003 627.154 92.0576 626.921 92.5896 626.762C93.1216 626.594 93.6863 626.51 94.2836 626.51ZM93.9756 633.048C94.489 633.048 94.9323 632.936 95.3056 632.712C95.679 632.479 95.9496 632.152 96.1176 631.732V630.696H94.0456C92.907 630.696 92.3376 631.079 92.3376 631.844C92.3376 632.217 92.4823 632.511 92.7716 632.726C93.061 632.941 93.4623 633.048 93.9756 633.048ZM104.121 633.566C103.925 633.734 103.682 633.865 103.393 633.958C103.103 634.042 102.805 634.084 102.497 634.084C101.75 634.084 101.171 633.883 100.761 633.482C100.35 633.081 100.145 632.507 100.145 631.76V627.686H98.8848V626.58H100.145V624.956H101.489V626.58H103.617V627.686H101.489V631.704C101.489 632.105 101.587 632.413 101.783 632.628C101.988 632.843 102.277 632.95 102.651 632.95C103.061 632.95 103.411 632.833 103.701 632.6L104.121 633.566ZM112.206 630.332C112.206 630.435 112.196 630.57 112.178 630.738H106.158C106.242 631.391 106.526 631.919 107.012 632.32C107.506 632.712 108.118 632.908 108.846 632.908C109.732 632.908 110.446 632.609 110.988 632.012L111.73 632.88C111.394 633.272 110.974 633.571 110.47 633.776C109.975 633.981 109.42 634.084 108.804 634.084C108.02 634.084 107.324 633.925 106.718 633.608C106.111 633.281 105.64 632.829 105.304 632.25C104.977 631.671 104.814 631.018 104.814 630.29C104.814 629.571 104.972 628.923 105.29 628.344C105.616 627.765 106.06 627.317 106.62 627C107.189 626.673 107.828 626.51 108.538 626.51C109.247 626.51 109.877 626.673 110.428 627C110.988 627.317 111.422 627.765 111.73 628.344C112.047 628.923 112.206 629.585 112.206 630.332ZM108.538 627.644C107.894 627.644 107.352 627.84 106.914 628.232C106.484 628.624 106.232 629.137 106.158 629.772H110.918C110.843 629.147 110.586 628.638 110.148 628.246C109.718 627.845 109.182 627.644 108.538 627.644Z" fill="#3C3C43"/>
<rect x="39" y="652" width="157" height="41" rx="2" fill="#F5F6FA"/>
<path fill-rule="evenodd" clip-rule="evenodd" d="M56 677.5V670H68V677.5C68 678.328 67.3284 679 66.5 679H57.5C56.6716 679 56 678.328 56 677.5ZM60 672H58V673H60V672ZM60 675H58V676H60V675ZM63 672H61V673H63V672ZM63 675H61V676H63V675ZM66 672H64V673H66V672Z" fill="#6078E0"/>
<path d="M58 667V668H59V667H65V668H66V667H66.5C67.3284 667 68 667.672 68 668.5V669H56V668.5C56 667.672 56.6716 667 57.5 667H58Z" fill="#6078E0"/>
<path fill-rule="evenodd" clip-rule="evenodd" d="M58 665V666H57.5C56.1193 666 55 667.119 55 668.5V677.5C55 678.881 56.1193 680 57.5 680H66.5C67.8807 680 69 678.881 69 677.5V668.5C69 667.119 67.8807 666 66.5 666H66V665H65V666H59V665H58ZM59 667H65H66H66.5C67.3284 667 68 667.672 68 668.5V669V670V677.5C68 678.328 67.3284 679 66.5 679H57.5C56.6716 679 56 678.328 56 677.5V670V669V668.5C56 667.672 56.6716 667 57.5 667H58H59Z" fill="#6078E0"/>
<path d="M81.448 665.48C83.96 665.48 85.288 667.688 85.288 671.336C85.288 675 83.96 677.192 81.448 677.192C78.936 677.192 77.608 674.984 77.608 671.336C77.608 667.688 78.936 665.48 81.448 665.48ZM78.952 671.336C78.952 674.392 79.832 676.04 81.448 676.04C83.064 676.04 83.944 674.408 83.944 671.336C83.944 668.28 83.08 666.632 81.432 666.632C79.864 666.632 78.952 668.216 78.952 671.336ZM90.4506 665.48C92.4666 665.48 93.9066 666.664 93.9066 668.552C93.9066 670.28 93.0426 671.16 91.6986 672.44L88.2106 675.72V675.752H93.9866V677H86.6906V675.464L91.0426 671.224C92.5146 669.8 92.5626 669.176 92.5626 668.552C92.5626 667.416 91.6666 666.632 90.4986 666.632C89.3626 666.632 88.5626 667.336 88.3546 668.44L86.8986 668.312C87.2026 666.504 88.5786 665.48 90.4506 665.48ZM99.6453 665L100.653 665.384L95.8372 677.688L94.8293 677.288L99.6453 665ZM105.263 665.48C107.279 665.48 108.719 666.664 108.719 668.552C108.719 670.28 107.855 671.16 106.511 672.44L103.023 675.72V675.752H108.799V677H101.503V675.464L105.855 671.224C107.327 669.8 107.375 669.176 107.375 668.552C107.375 667.416 106.479 666.632 105.311 666.632C104.175 666.632 103.375 667.336 103.167 668.44L101.711 668.312C102.015 666.504 103.391 665.48 105.263 665.48ZM115.354 665.672V677H114.01V667.4H113.978L111.946 669.112L111.146 668.136L114.186 665.672H115.354ZM123.348 665L124.356 665.384L119.54 677.688L118.532 677.288L123.348 665ZM128.966 665.48C130.982 665.48 132.422 666.664 132.422 668.552C132.422 670.28 131.558 671.16 130.214 672.44L126.726 675.72V675.752H132.502V677H125.206V675.464L129.558 671.224C131.03 669.8 131.078 669.176 131.078 668.552C131.078 667.416 130.182 666.632 129.014 666.632C127.878 666.632 127.078 667.336 126.87 668.44L125.414 668.312C125.718 666.504 127.094 665.48 128.966 665.48ZM137.745 665.48C140.257 665.48 141.585 667.688 141.585 671.336C141.585 675 140.257 677.192 137.745 677.192C135.233 677.192 133.905 674.984 133.905 671.336C133.905 667.688 135.233 665.48 137.745 665.48ZM135.249 671.336C135.249 674.392 136.129 676.04 137.745 676.04C139.361 676.04 140.241 674.408 140.241 671.336C140.241 668.28 139.377 666.632 137.729 666.632C136.161 666.632 135.249 668.216 135.249 671.336ZM146.748 665.48C148.764 665.48 150.204 666.664 150.204 668.552C150.204 670.28 149.34 671.16 147.996 672.44L144.508 675.72V675.752H150.284V677H142.988V675.464L147.34 671.224C148.812 669.8 148.86 669.176 148.86 668.552C148.86 667.416 147.964 666.632 146.796 666.632C145.66 666.632 144.86 667.336 144.652 668.44L143.196 668.312C143.5 666.504 144.876 665.48 146.748 665.48ZM155.302 665.48C157.254 665.48 158.678 666.616 158.678 668.424C158.678 669.592 157.91 670.648 156.742 671.032V671.064C158.166 671.32 159.062 672.488 159.062 673.912C159.062 675.912 157.526 677.192 155.318 677.192C153.462 677.192 152.198 676.344 151.67 674.808L153.03 674.36C153.382 675.496 153.99 676.04 155.318 676.04C156.646 676.04 157.622 675.064 157.622 673.816C157.622 672.456 156.646 671.624 154.678 671.624H154.342V670.472H154.774C156.438 670.472 157.334 669.88 157.334 668.504C157.334 667.4 156.55 666.632 155.398 666.632C154.454 666.632 153.718 667.064 153.318 667.896L152.022 667.4C152.55 666.168 153.782 665.48 155.302 665.48Z" fill="#3C3C43"/>
<path d="M234.558 628.918C235.127 629.077 235.575 629.366 235.902 629.786C236.229 630.197 236.392 630.719 236.392 631.354C236.392 632.203 236.07 632.857 235.426 633.314C234.791 633.771 233.863 634 232.64 634H227.964V624.2H232.36C233.48 624.2 234.343 624.424 234.95 624.872C235.566 625.32 235.874 625.941 235.874 626.734C235.874 627.247 235.753 627.691 235.51 628.064C235.277 628.437 234.959 628.722 234.558 628.918ZM229.364 625.334V628.47H232.234C232.953 628.47 233.503 628.339 233.886 628.078C234.278 627.807 234.474 627.415 234.474 626.902C234.474 626.389 234.278 626.001 233.886 625.74C233.503 625.469 232.953 625.334 232.234 625.334H229.364ZM232.584 632.866C233.377 632.866 233.975 632.735 234.376 632.474C234.777 632.213 234.978 631.802 234.978 631.242C234.978 630.15 234.18 629.604 232.584 629.604H229.364V632.866H232.584ZM238.364 626.58H239.708V634H238.364V626.58ZM239.036 625.152C238.775 625.152 238.555 625.068 238.378 624.9C238.21 624.732 238.126 624.527 238.126 624.284C238.126 624.041 238.21 623.836 238.378 623.668C238.555 623.491 238.775 623.402 239.036 623.402C239.297 623.402 239.512 623.486 239.68 623.654C239.857 623.813 239.946 624.013 239.946 624.256C239.946 624.508 239.857 624.723 239.68 624.9C239.512 625.068 239.297 625.152 239.036 625.152ZM243.562 627.826C243.795 627.397 244.141 627.07 244.598 626.846C245.055 626.622 245.611 626.51 246.264 626.51V627.812C246.189 627.803 246.087 627.798 245.956 627.798C245.228 627.798 244.654 628.017 244.234 628.456C243.823 628.885 243.618 629.501 243.618 630.304V634H242.274V626.58H243.562V627.826ZM252.393 633.566C252.197 633.734 251.955 633.865 251.665 633.958C251.376 634.042 251.077 634.084 250.769 634.084C250.023 634.084 249.444 633.883 249.033 633.482C248.623 633.081 248.417 632.507 248.417 631.76V627.686H247.157V626.58H248.417V624.956H249.761V626.58H251.889V627.686H249.761V631.704C249.761 632.105 249.859 632.413 250.055 632.628C250.261 632.843 250.55 632.95 250.923 632.95C251.334 632.95 251.684 632.833 251.973 632.6L252.393 633.566ZM257.98 626.51C258.923 626.51 259.669 626.785 260.22 627.336C260.78 627.877 261.06 628.675 261.06 629.73V634H259.716V629.884C259.716 629.165 259.543 628.624 259.198 628.26C258.853 627.896 258.358 627.714 257.714 627.714C256.986 627.714 256.412 627.929 255.992 628.358C255.572 628.778 255.362 629.385 255.362 630.178V634H254.018V623.612H255.362V627.63C255.642 627.275 256.006 627 256.454 626.804C256.911 626.608 257.42 626.51 257.98 626.51ZM281.349 624.2L278.073 634H276.603L273.929 626.174L271.255 634H269.757L266.481 624.2H267.923L270.569 632.166L273.327 624.2H274.615L277.317 632.208L280.019 624.2H281.349ZM289.011 630.332C289.011 630.435 289.002 630.57 288.983 630.738H282.963C283.047 631.391 283.332 631.919 283.817 632.32C284.312 632.712 284.923 632.908 285.651 632.908C286.538 632.908 287.252 632.609 287.793 632.012L288.535 632.88C288.199 633.272 287.779 633.571 287.275 633.776C286.781 633.981 286.225 634.084 285.609 634.084C284.825 634.084 284.13 633.925 283.523 633.608C282.917 633.281 282.445 632.829 282.109 632.25C281.783 631.671 281.619 631.018 281.619 630.29C281.619 629.571 281.778 628.923 282.095 628.344C282.422 627.765 282.865 627.317 283.425 627C283.995 626.673 284.634 626.51 285.343 626.51C286.053 626.51 286.683 626.673 287.233 627C287.793 627.317 288.227 627.765 288.535 628.344C288.853 628.923 289.011 629.585 289.011 630.332ZM285.343 627.644C284.699 627.644 284.158 627.84 283.719 628.232C283.29 628.624 283.038 629.137 282.963 629.772H287.723C287.649 629.147 287.392 628.638 286.953 628.246C286.524 627.845 285.987 627.644 285.343 627.644ZM290.878 626.58H292.222V634H290.878V626.58ZM291.55 625.152C291.288 625.152 291.069 625.068 290.892 624.9C290.724 624.732 290.64 624.527 290.64 624.284C290.64 624.041 290.724 623.836 290.892 623.668C291.069 623.491 291.288 623.402 291.55 623.402C291.811 623.402 292.026 623.486 292.194 623.654C292.371 623.813 292.46 624.013 292.46 624.256C292.46 624.508 292.371 624.723 292.194 624.9C292.026 625.068 291.811 625.152 291.55 625.152ZM301.886 626.58V632.992C301.886 634.289 301.564 635.246 300.92 635.862C300.276 636.487 299.314 636.8 298.036 636.8C297.336 636.8 296.668 636.702 296.034 636.506C295.399 636.319 294.886 636.049 294.494 635.694L295.138 634.658C295.483 634.957 295.908 635.19 296.412 635.358C296.925 635.535 297.452 635.624 297.994 635.624C298.862 635.624 299.501 635.419 299.912 635.008C300.332 634.597 300.542 633.972 300.542 633.132V632.544C300.224 632.927 299.832 633.216 299.366 633.412C298.908 633.599 298.409 633.692 297.868 633.692C297.158 633.692 296.514 633.543 295.936 633.244C295.366 632.936 294.918 632.511 294.592 631.97C294.265 631.419 294.102 630.794 294.102 630.094C294.102 629.394 294.265 628.773 294.592 628.232C294.918 627.681 295.366 627.257 295.936 626.958C296.514 626.659 297.158 626.51 297.868 626.51C298.428 626.51 298.946 626.613 299.422 626.818C299.907 627.023 300.304 627.327 300.612 627.728V626.58H301.886ZM298.022 632.516C298.507 632.516 298.941 632.413 299.324 632.208C299.716 632.003 300.019 631.718 300.234 631.354C300.458 630.981 300.57 630.561 300.57 630.094C300.57 629.375 300.332 628.797 299.856 628.358C299.38 627.91 298.768 627.686 298.022 627.686C297.266 627.686 296.65 627.91 296.174 628.358C295.698 628.797 295.46 629.375 295.46 630.094C295.46 630.561 295.567 630.981 295.782 631.354C296.006 631.718 296.309 632.003 296.692 632.208C297.084 632.413 297.527 632.516 298.022 632.516ZM308.416 626.51C309.358 626.51 310.105 626.785 310.656 627.336C311.216 627.877 311.496 628.675 311.496 629.73V634H310.152V629.884C310.152 629.165 309.979 628.624 309.634 628.26C309.288 627.896 308.794 627.714 308.15 627.714C307.422 627.714 306.848 627.929 306.428 628.358C306.008 628.778 305.798 629.385 305.798 630.178V634H304.454V623.612H305.798V627.63C306.078 627.275 306.442 627 306.89 626.804C307.347 626.608 307.856 626.51 308.416 626.51ZM318.155 633.566C317.959 633.734 317.716 633.865 317.427 633.958C317.138 634.042 316.839 634.084 316.531 634.084C315.784 634.084 315.206 633.883 314.795 633.482C314.384 633.081 314.179 632.507 314.179 631.76V627.686H312.919V626.58H314.179V624.956H315.523V626.58H317.651V627.686H315.523V631.704C315.523 632.105 315.621 632.413 315.817 632.628C316.022 632.843 316.312 632.95 316.685 632.95C317.096 632.95 317.446 632.833 317.735 632.6L318.155 633.566Z" fill="#3C3C43"/>
<rect x="226" y="652" width="90" height="41" rx="4" fill="#F5F6FA"/>
<path d="M265.804 665.672L262.764 670.392L262.796 670.424C263.164 670.232 263.756 670.088 264.316 670.088C266.268 670.088 267.74 671.528 267.74 673.64C267.74 675.752 266.172 677.192 263.948 677.192C261.756 677.192 260.156 675.784 260.156 673.64C260.156 672.584 260.428 671.72 261.228 670.456L264.236 665.672H265.804ZM261.5 673.64C261.5 675 262.476 676.04 263.948 676.04C265.42 676.04 266.396 675 266.396 673.64C266.396 672.216 265.34 671.24 263.932 671.24C262.556 671.24 261.5 672.232 261.5 673.64ZM271.575 676.136C271.575 676.648 271.127 677.096 270.615 677.096C270.119 677.096 269.655 676.664 269.655 676.136C269.655 675.608 270.087 675.176 270.615 675.176C271.143 675.176 271.575 675.608 271.575 676.136ZM278.604 665.672V677H277.26V667.4H277.228L275.196 669.112L274.396 668.136L277.436 665.672H278.604Z" fill="#3C3C43"/>
<path d="M323.456 667.628H324.992V679.5H323.456V667.628ZM332.421 670.94C333.242 670.94 333.978 671.121 334.629 671.484C335.279 671.847 335.786 672.353 336.149 673.004C336.522 673.655 336.709 674.407 336.709 675.26C336.709 676.113 336.522 676.871 336.149 677.532C335.786 678.183 335.279 678.689 334.629 679.052C333.978 679.415 333.242 679.596 332.421 679.596C331.791 679.596 331.215 679.473 330.693 679.228C330.17 678.983 329.738 678.625 329.397 678.156V679.5H327.925V667.628H329.461V672.3C329.802 671.852 330.229 671.516 330.741 671.292C331.253 671.057 331.813 670.94 332.421 670.94ZM332.293 678.252C332.837 678.252 333.322 678.129 333.749 677.884C334.186 677.628 334.527 677.276 334.773 676.828C335.029 676.369 335.157 675.847 335.157 675.26C335.157 674.673 335.029 674.156 334.773 673.708C334.527 673.249 334.186 672.897 333.749 672.652C333.322 672.407 332.837 672.284 332.293 672.284C331.759 672.284 331.274 672.407 330.837 672.652C330.399 672.897 330.058 673.249 329.813 673.708C329.567 674.156 329.445 674.673 329.445 675.26C329.445 675.847 329.567 676.369 329.813 676.828C330.058 677.276 330.399 677.628 330.837 677.884C331.274 678.129 331.759 678.252 332.293 678.252ZM341.263 679.596C340.57 679.596 339.903 679.505 339.263 679.324C338.623 679.132 338.122 678.892 337.759 678.604L338.399 677.388C338.772 677.655 339.226 677.868 339.759 678.028C340.292 678.188 340.831 678.268 341.375 678.268C342.719 678.268 343.391 677.884 343.391 677.116C343.391 676.86 343.3 676.657 343.119 676.508C342.938 676.359 342.708 676.252 342.431 676.188C342.164 676.113 341.78 676.033 341.279 675.948C340.596 675.841 340.036 675.719 339.599 675.58C339.172 675.441 338.804 675.207 338.495 674.876C338.186 674.545 338.031 674.081 338.031 673.484C338.031 672.716 338.351 672.103 338.991 671.644C339.631 671.175 340.49 670.94 341.567 670.94C342.132 670.94 342.698 671.009 343.263 671.148C343.828 671.287 344.292 671.473 344.655 671.708L343.999 672.924C343.306 672.476 342.49 672.252 341.551 672.252C340.9 672.252 340.404 672.359 340.063 672.572C339.722 672.785 339.551 673.068 339.551 673.42C339.551 673.697 339.647 673.916 339.839 674.076C340.031 674.236 340.266 674.353 340.543 674.428C340.831 674.503 341.231 674.588 341.743 674.684C342.426 674.801 342.975 674.929 343.391 675.068C343.818 675.196 344.18 675.42 344.479 675.74C344.778 676.06 344.927 676.508 344.927 677.084C344.927 677.852 344.596 678.465 343.935 678.924C343.284 679.372 342.394 679.596 341.263 679.596Z" fill="#3C3C43"/>
<path d="M47.1089 518.918C47.6783 519.077 48.1263 519.366 48.4529 519.786C48.7796 520.197 48.9429 520.719 48.9429 521.354C48.9429 522.203 48.6209 522.857 47.9769 523.314C47.3423 523.771 46.4136 524 45.1909 524H40.5149V514.2H44.9109C46.0309 514.2 46.8943 514.424 47.5009 514.872C48.1169 515.32 48.4249 515.941 48.4249 516.734C48.4249 517.247 48.3036 517.691 48.0609 518.064C47.8276 518.437 47.5103 518.722 47.1089 518.918ZM41.9149 515.334V518.47H44.7849C45.5036 518.47 46.0543 518.339 46.4369 518.078C46.8289 517.807 47.0249 517.415 47.0249 516.902C47.0249 516.389 46.8289 516.001 46.4369 515.74C46.0543 515.469 45.5036 515.334 44.7849 515.334H41.9149ZM45.1349 522.866C45.9283 522.866 46.5256 522.735 46.9269 522.474C47.3283 522.213 47.5289 521.802 47.5289 521.242C47.5289 520.15 46.7309 519.604 45.1349 519.604H41.9149V522.866H45.1349ZM53.6166 516.51C54.6433 516.51 55.4273 516.762 55.9686 517.266C56.5193 517.77 56.7946 518.521 56.7946 519.52V524H55.5206V523.02C55.2966 523.365 54.9746 523.631 54.5546 523.818C54.144 523.995 53.654 524.084 53.0846 524.084C52.254 524.084 51.5866 523.883 51.0826 523.482C50.588 523.081 50.3406 522.553 50.3406 521.9C50.3406 521.247 50.5786 520.724 51.0546 520.332C51.5306 519.931 52.2866 519.73 53.3226 519.73H55.4506V519.464C55.4506 518.885 55.2826 518.442 54.9466 518.134C54.6106 517.826 54.116 517.672 53.4626 517.672C53.024 517.672 52.5946 517.747 52.1746 517.896C51.7546 518.036 51.4 518.227 51.1106 518.47L50.5506 517.462C50.9333 517.154 51.3906 516.921 51.9226 516.762C52.4546 516.594 53.0193 516.51 53.6166 516.51ZM53.3086 523.048C53.822 523.048 54.2653 522.936 54.6386 522.712C55.012 522.479 55.2826 522.152 55.4506 521.732V520.696H53.3786C52.24 520.696 51.6706 521.079 51.6706 521.844C51.6706 522.217 51.8153 522.511 52.1046 522.726C52.394 522.941 52.7953 523.048 53.3086 523.048ZM63.2158 516.51C63.9345 516.51 64.5785 516.669 65.1478 516.986C65.7171 517.303 66.1605 517.747 66.4778 518.316C66.8045 518.885 66.9678 519.543 66.9678 520.29C66.9678 521.037 66.8045 521.699 66.4778 522.278C66.1605 522.847 65.7171 523.291 65.1478 523.608C64.5785 523.925 63.9345 524.084 63.2158 524.084C62.6651 524.084 62.1611 523.977 61.7038 523.762C61.2465 523.547 60.8685 523.235 60.5698 522.824V524H59.2818V513.612H60.6258V517.7C60.9245 517.308 61.2978 517.014 61.7458 516.818C62.1938 516.613 62.6838 516.51 63.2158 516.51ZM63.1038 522.908C63.5798 522.908 64.0045 522.801 64.3778 522.586C64.7605 522.362 65.0591 522.054 65.2738 521.662C65.4978 521.261 65.6098 520.803 65.6098 520.29C65.6098 519.777 65.4978 519.324 65.2738 518.932C65.0591 518.531 64.7605 518.223 64.3778 518.008C64.0045 517.793 63.5798 517.686 63.1038 517.686C62.6371 517.686 62.2125 517.793 61.8298 518.008C61.4471 518.223 61.1485 518.531 60.9338 518.932C60.7191 519.324 60.6118 519.777 60.6118 520.29C60.6118 520.803 60.7191 521.261 60.9338 521.662C61.1485 522.054 61.4471 522.362 61.8298 522.586C62.2125 522.801 62.6371 522.908 63.1038 522.908ZM75.1857 516.58L71.5877 524.742C71.2704 525.498 70.897 526.03 70.4677 526.338C70.0477 526.646 69.539 526.8 68.9417 526.8C68.5777 526.8 68.223 526.739 67.8777 526.618C67.5417 526.506 67.2617 526.338 67.0377 526.114L67.6117 525.106C67.9944 525.47 68.4377 525.652 68.9417 525.652C69.2684 525.652 69.539 525.563 69.7537 525.386C69.9777 525.218 70.1784 524.924 70.3557 524.504L70.5937 523.986L67.3177 516.58H68.7177L71.3077 522.516L73.8697 516.58H75.1857ZM77.0084 513.528C77.2698 513.528 77.4844 513.621 77.6524 513.808C77.8298 513.985 77.9184 514.209 77.9184 514.48C77.9184 514.62 77.9044 514.76 77.8764 514.9C77.8484 515.031 77.7878 515.222 77.6944 515.474L77.0224 517.434H76.1404L76.6584 515.348C76.4811 515.283 76.3364 515.175 76.2244 515.026C76.1218 514.867 76.0704 514.685 76.0704 514.48C76.0704 514.2 76.1591 513.971 76.3364 513.794C76.5138 513.617 76.7378 513.528 77.0084 513.528ZM81.7399 524.084C81.1332 524.084 80.5499 524.005 79.9899 523.846C79.4299 523.678 78.9912 523.468 78.6739 523.216L79.2339 522.152C79.5606 522.385 79.9572 522.572 80.4239 522.712C80.8906 522.852 81.3619 522.922 81.8379 522.922C83.0139 522.922 83.6019 522.586 83.6019 521.914C83.6019 521.69 83.5226 521.513 83.3639 521.382C83.2052 521.251 83.0046 521.158 82.7619 521.102C82.5286 521.037 82.1926 520.967 81.7539 520.892C81.1566 520.799 80.6666 520.691 80.2839 520.57C79.9106 520.449 79.5886 520.243 79.3179 519.954C79.0472 519.665 78.9119 519.259 78.9119 518.736C78.9119 518.064 79.1919 517.527 79.7519 517.126C80.3119 516.715 81.0632 516.51 82.0059 516.51C82.5006 516.51 82.9952 516.571 83.4899 516.692C83.9846 516.813 84.3906 516.977 84.7079 517.182L84.1339 518.246C83.5272 517.854 82.8132 517.658 81.9919 517.658C81.4226 517.658 80.9886 517.751 80.6899 517.938C80.3912 518.125 80.2419 518.372 80.2419 518.68C80.2419 518.923 80.3259 519.114 80.4939 519.254C80.6619 519.394 80.8672 519.497 81.1099 519.562C81.3619 519.627 81.7119 519.702 82.1599 519.786C82.7572 519.889 83.2379 520.001 83.6019 520.122C83.9752 520.234 84.2926 520.43 84.5539 520.71C84.8152 520.99 84.9459 521.382 84.9459 521.886C84.9459 522.558 84.6566 523.095 84.0779 523.496C83.5086 523.888 82.7292 524.084 81.7399 524.084ZM97.3713 519.044H98.7153V522.866C98.23 523.267 97.6653 523.575 97.0213 523.79C96.3773 524.005 95.7053 524.112 95.0053 524.112C94.016 524.112 93.1247 523.897 92.3313 523.468C91.538 523.029 90.9127 522.432 90.4553 521.676C90.0073 520.911 89.7833 520.052 89.7833 519.1C89.7833 518.148 90.0073 517.289 90.4553 516.524C90.9127 515.759 91.538 515.161 92.3313 514.732C93.134 514.303 94.0347 514.088 95.0333 514.088C95.8173 514.088 96.5267 514.219 97.1613 514.48C97.8053 514.732 98.3513 515.105 98.7993 515.6L97.9313 516.468C97.1473 515.712 96.2 515.334 95.0893 515.334C94.3427 515.334 93.6707 515.497 93.0733 515.824C92.4853 516.141 92.0233 516.589 91.6873 517.168C91.3513 517.737 91.1833 518.381 91.1833 519.1C91.1833 519.809 91.3513 520.453 91.6873 521.032C92.0233 521.601 92.4853 522.049 93.0733 522.376C93.6707 522.703 94.338 522.866 95.0753 522.866C95.9527 522.866 96.718 522.656 97.3713 522.236V519.044ZM107.906 520.332C107.906 520.435 107.896 520.57 107.878 520.738H101.858C101.942 521.391 102.226 521.919 102.712 522.32C103.206 522.712 103.818 522.908 104.546 522.908C105.432 522.908 106.146 522.609 106.688 522.012L107.43 522.88C107.094 523.272 106.674 523.571 106.17 523.776C105.675 523.981 105.12 524.084 104.504 524.084C103.72 524.084 103.024 523.925 102.418 523.608C101.811 523.281 101.34 522.829 101.004 522.25C100.677 521.671 100.514 521.018 100.514 520.29C100.514 519.571 100.672 518.923 100.99 518.344C101.316 517.765 101.76 517.317 102.32 517C102.889 516.673 103.528 516.51 104.238 516.51C104.947 516.51 105.577 516.673 106.128 517C106.688 517.317 107.122 517.765 107.43 518.344C107.747 518.923 107.906 519.585 107.906 520.332ZM104.238 517.644C103.594 517.644 103.052 517.84 102.614 518.232C102.184 518.624 101.932 519.137 101.858 519.772H106.618C106.543 519.147 106.286 518.638 105.848 518.246C105.418 517.845 104.882 517.644 104.238 517.644ZM113.734 516.51C114.677 516.51 115.423 516.785 115.974 517.336C116.534 517.877 116.814 518.675 116.814 519.73V524H115.47V519.884C115.47 519.165 115.297 518.624 114.952 518.26C114.607 517.896 114.112 517.714 113.468 517.714C112.74 517.714 112.166 517.929 111.746 518.358C111.326 518.778 111.116 519.385 111.116 520.178V524H109.772V516.58H111.06V517.7C111.331 517.317 111.695 517.023 112.152 516.818C112.619 516.613 113.146 516.51 113.734 516.51ZM126.342 513.612V524H125.054V522.824C124.756 523.235 124.378 523.547 123.92 523.762C123.463 523.977 122.959 524.084 122.408 524.084C121.69 524.084 121.046 523.925 120.476 523.608C119.907 523.291 119.459 522.847 119.132 522.278C118.815 521.699 118.656 521.037 118.656 520.29C118.656 519.543 118.815 518.885 119.132 518.316C119.459 517.747 119.907 517.303 120.476 516.986C121.046 516.669 121.69 516.51 122.408 516.51C122.94 516.51 123.43 516.613 123.878 516.818C124.326 517.014 124.7 517.308 124.998 517.7V513.612H126.342ZM122.52 522.908C122.987 522.908 123.412 522.801 123.794 522.586C124.177 522.362 124.476 522.054 124.69 521.662C124.905 521.261 125.012 520.803 125.012 520.29C125.012 519.777 124.905 519.324 124.69 518.932C124.476 518.531 124.177 518.223 123.794 518.008C123.412 517.793 122.987 517.686 122.52 517.686C122.044 517.686 121.615 517.793 121.232 518.008C120.859 518.223 120.56 518.531 120.336 518.932C120.122 519.324 120.014 519.777 120.014 520.29C120.014 520.803 120.122 521.261 120.336 521.662C120.56 522.054 120.859 522.362 121.232 522.586C121.615 522.801 122.044 522.908 122.52 522.908ZM135.591 520.332C135.591 520.435 135.582 520.57 135.563 520.738H129.543C129.627 521.391 129.912 521.919 130.397 522.32C130.892 522.712 131.503 522.908 132.231 522.908C133.118 522.908 133.832 522.609 134.373 522.012L135.115 522.88C134.779 523.272 134.359 523.571 133.855 523.776C133.361 523.981 132.805 524.084 132.189 524.084C131.405 524.084 130.71 523.925 130.103 523.608C129.497 523.281 129.025 522.829 128.689 522.25C128.363 521.671 128.199 521.018 128.199 520.29C128.199 519.571 128.358 518.923 128.675 518.344C129.002 517.765 129.445 517.317 130.005 517C130.575 516.673 131.214 516.51 131.923 516.51C132.633 516.51 133.263 516.673 133.813 517C134.373 517.317 134.807 517.765 135.115 518.344C135.433 518.923 135.591 519.585 135.591 520.332ZM131.923 517.644C131.279 517.644 130.738 517.84 130.299 518.232C129.87 518.624 129.618 519.137 129.543 519.772H134.303C134.229 519.147 133.972 518.638 133.533 518.246C133.104 517.845 132.567 517.644 131.923 517.644ZM138.746 517.826C138.979 517.397 139.324 517.07 139.782 516.846C140.239 516.622 140.794 516.51 141.448 516.51V517.812C141.373 517.803 141.27 517.798 141.14 517.798C140.412 517.798 139.838 518.017 139.418 518.456C139.007 518.885 138.802 519.501 138.802 520.304V524H137.458V516.58H138.746V517.826ZM146.018 516.216L147.684 517.154L147.25 517.924L145.556 516.93L145.57 518.834H144.73L144.744 516.93L143.05 517.924L142.616 517.154L144.296 516.216L142.616 515.292L143.05 514.508L144.744 515.502L144.73 513.612H145.57L145.556 515.502L147.25 514.508L147.684 515.292L146.018 516.216Z" fill="#3C3C43"/>
<path d="M207 565C207 552.297 217.297 542 230 542H329C341.703 542 352 552.297 352 565V565C352 577.703 341.703 588 329 588H230C217.297 588 207 577.703 207 565V565Z" fill="#6078E0" fill-opacity="0.5"/>
<rect x="211.028" y="546.107" width="135.938" height="37.7857" rx="18.8929" fill="#6078E0"/>
<rect x="212.028" y="547.107" width="133.938" height="35.7857" rx="17.8929" stroke="white" stroke-opacity="0.8" stroke-width="2"/>
<path d="M274.527 565.058H276.495V569.522C275.919 569.98 275.247 570.332 274.479 570.578C273.711 570.823 272.922 570.946 272.111 570.946C270.97 570.946 269.94 570.7 269.023 570.21C268.106 569.708 267.386 569.02 266.863 568.146C266.34 567.271 266.079 566.284 266.079 565.186C266.079 564.087 266.34 563.1 266.863 562.226C267.386 561.351 268.106 560.668 269.023 560.178C269.951 559.676 270.991 559.426 272.143 559.426C273.082 559.426 273.935 559.58 274.703 559.89C275.471 560.199 276.116 560.652 276.639 561.25L275.327 562.53C274.474 561.676 273.444 561.25 272.239 561.25C271.45 561.25 270.746 561.415 270.127 561.746C269.519 562.076 269.039 562.54 268.687 563.138C268.346 563.735 268.175 564.418 268.175 565.186C268.175 565.932 268.346 566.604 268.687 567.202C269.039 567.799 269.519 568.268 270.127 568.61C270.746 568.951 271.444 569.122 272.223 569.122C273.098 569.122 273.866 568.93 274.527 568.546V565.058ZM279.047 562.242H281.047V570.786H279.047V562.242ZM280.055 560.834C279.692 560.834 279.388 560.722 279.143 560.498C278.897 560.263 278.775 559.975 278.775 559.634C278.775 559.292 278.897 559.01 279.143 558.786C279.388 558.551 279.692 558.434 280.055 558.434C280.417 558.434 280.721 558.546 280.967 558.77C281.212 558.983 281.335 559.255 281.335 559.586C281.335 559.938 281.212 560.236 280.967 560.482C280.732 560.716 280.428 560.834 280.055 560.834ZM285.576 563.49C286.152 562.594 287.165 562.146 288.616 562.146V564.05C288.445 564.018 288.29 564.002 288.152 564.002C287.373 564.002 286.765 564.231 286.328 564.69C285.89 565.138 285.672 565.788 285.672 566.642V570.786H283.672V562.242H285.576V563.49ZM290.312 558.914H292.312V570.786H290.312V558.914Z" fill="white"/>
<path d="M39 565C39 552.297 49.2975 542 62 542H161C173.703 542 184 552.297 184 565V565C184 577.703 173.703 588 161 588H62C49.2975 588 39 577.703 39 565V565Z" fill="#F5F6FA"/>
<rect x="44.0278" y="547.107" width="133.938" height="35.7857" rx="17.8929" fill="#F5F6FA" stroke="white" stroke-width="2"/>
<path d="M105.19 564.962C105.809 565.164 106.299 565.506 106.662 565.986C107.025 566.455 107.206 567.042 107.206 567.746C107.206 568.716 106.833 569.468 106.086 570.002C105.339 570.524 104.251 570.786 102.822 570.786H97.2542V559.586H102.502C103.825 559.586 104.843 559.847 105.558 560.37C106.273 560.882 106.63 561.591 106.63 562.498C106.63 563.052 106.502 563.543 106.246 563.97C105.99 564.396 105.638 564.727 105.19 564.962ZM99.3342 561.218V564.306H102.278C103.003 564.306 103.558 564.178 103.942 563.922C104.337 563.655 104.534 563.271 104.534 562.77C104.534 562.258 104.337 561.874 103.942 561.618C103.558 561.351 103.003 561.218 102.278 561.218H99.3342ZM102.694 569.154C104.305 569.154 105.11 568.615 105.11 567.538C105.11 566.46 104.305 565.922 102.694 565.922H99.3342V569.154H102.694ZM113.074 570.898C112.21 570.898 111.431 570.711 110.738 570.338C110.045 569.964 109.501 569.447 109.106 568.786C108.722 568.114 108.53 567.356 108.53 566.514C108.53 565.671 108.722 564.919 109.106 564.258C109.501 563.596 110.045 563.079 110.738 562.706C111.431 562.332 112.21 562.146 113.074 562.146C113.949 562.146 114.733 562.332 115.426 562.706C116.119 563.079 116.658 563.596 117.042 564.258C117.437 564.919 117.634 565.671 117.634 566.514C117.634 567.356 117.437 568.114 117.042 568.786C116.658 569.447 116.119 569.964 115.426 570.338C114.733 570.711 113.949 570.898 113.074 570.898ZM113.074 569.186C113.81 569.186 114.418 568.94 114.898 568.45C115.378 567.959 115.618 567.314 115.618 566.514C115.618 565.714 115.378 565.068 114.898 564.578C114.418 564.087 113.81 563.842 113.074 563.842C112.338 563.842 111.73 564.087 111.25 564.578C110.781 565.068 110.546 565.714 110.546 566.514C110.546 567.314 110.781 567.959 111.25 568.45C111.73 568.94 112.338 569.186 113.074 569.186ZM127.312 562.242L123.312 571.474C122.939 572.402 122.485 573.052 121.952 573.426C121.419 573.81 120.773 574.002 120.016 574.002C119.589 574.002 119.168 573.932 118.752 573.794C118.336 573.655 117.995 573.463 117.728 573.218L118.528 571.746C118.72 571.927 118.944 572.071 119.2 572.178C119.467 572.284 119.733 572.338 120 572.338C120.352 572.338 120.64 572.247 120.864 572.066C121.099 571.884 121.312 571.58 121.504 571.154L121.648 570.818L117.92 562.242H120L122.688 568.562L125.392 562.242H127.312Z" fill="#3C3C43" fill-opacity="0.6"/>
<path d="M153.301 788.2C151.888 788.2 150.608 787.893 149.461 787.28C148.328 786.653 147.435 785.793 146.781 784.7C146.141 783.607 145.821 782.373 145.821 781C145.821 779.627 146.148 778.393 146.801 777.3C147.455 776.207 148.348 775.353 149.481 774.74C150.628 774.113 151.908 773.8 153.321 773.8C154.468 773.8 155.515 774 156.461 774.4C157.408 774.8 158.208 775.38 158.861 776.14L157.181 777.72C156.168 776.627 154.921 776.08 153.441 776.08C152.481 776.08 151.621 776.293 150.861 776.72C150.101 777.133 149.508 777.713 149.081 778.46C148.655 779.207 148.441 780.053 148.441 781C148.441 781.947 148.655 782.793 149.081 783.54C149.508 784.287 150.101 784.873 150.861 785.3C151.621 785.713 152.481 785.92 153.441 785.92C154.921 785.92 156.168 785.367 157.181 784.26L158.861 785.86C158.208 786.62 157.401 787.2 156.441 787.6C155.495 788 154.448 788.2 153.301 788.2ZM167.6 788.2C166.173 788.2 164.886 787.893 163.74 787.28C162.593 786.653 161.693 785.793 161.04 784.7C160.386 783.593 160.06 782.36 160.06 781C160.06 779.64 160.386 778.413 161.04 777.32C161.693 776.213 162.593 775.353 163.74 774.74C164.886 774.113 166.173 773.8 167.6 773.8C169.026 773.8 170.313 774.113 171.46 774.74C172.606 775.353 173.506 776.207 174.16 777.3C174.813 778.393 175.14 779.627 175.14 781C175.14 782.373 174.813 783.607 174.16 784.7C173.506 785.793 172.606 786.653 171.46 787.28C170.313 787.893 169.026 788.2 167.6 788.2ZM167.6 785.92C168.533 785.92 169.373 785.713 170.12 785.3C170.866 784.873 171.453 784.287 171.88 783.54C172.306 782.78 172.52 781.933 172.52 781C172.52 780.067 172.306 779.227 171.88 778.48C171.453 777.72 170.866 777.133 170.12 776.72C169.373 776.293 168.533 776.08 167.6 776.08C166.666 776.08 165.826 776.293 165.08 776.72C164.333 777.133 163.746 777.72 163.32 778.48C162.893 779.227 162.68 780.067 162.68 781C162.68 781.933 162.893 782.78 163.32 783.54C163.746 784.287 164.333 784.873 165.08 785.3C165.826 785.713 166.666 785.92 167.6 785.92ZM190.336 774V788H188.196L180.476 778.52V788H177.896V774H180.036L187.756 783.48V774H190.336ZM196.687 776.18V780.44H203.447V782.64H196.687V788H194.087V774H204.307V776.18H196.687ZM206.821 774H209.421V788H206.821V774ZM222.368 788L219.508 783.9C219.388 783.913 219.208 783.92 218.968 783.92H215.808V788H213.208V774H218.968C220.181 774 221.235 774.2 222.128 774.6C223.035 775 223.728 775.573 224.208 776.32C224.688 777.067 224.928 777.953 224.928 778.98C224.928 780.033 224.668 780.94 224.148 781.7C223.641 782.46 222.908 783.027 221.948 783.4L225.168 788H222.368ZM222.308 778.98C222.308 778.087 222.015 777.4 221.428 776.92C220.841 776.44 219.981 776.2 218.848 776.2H215.808V781.78H218.848C219.981 781.78 220.841 781.54 221.428 781.06C222.015 780.567 222.308 779.873 222.308 778.98ZM240.697 788L240.677 778.72L236.077 786.4H234.917L230.317 778.84V788H227.837V774H229.977L235.537 783.28L240.997 774H243.137L243.157 788H240.697Z" fill="white"/>
</g>
<defs>
<filter id="filter0_b_215_391" x="238" y="-56" width="208" height="156" filterUnits="userSpaceOnUse" color-interpolation-filters="sRGB">
<feFlood flood-opacity="0" result="BackgroundImageFix"/>
<feGaussianBlur in="BackgroundImageFix" stdDeviation="28"/>
<feComposite in2="SourceAlpha" operator="in" result="effect1_backgroundBlur_215_391"/>
<feBlend mode="normal" in="SourceGraphic" in2="effect1_backgroundBlur_215_391" result="shape"/>
</filter>
<filter id="filter1_b_215_391" x="238" y="-56" width="208" height="156" filterUnits="userSpaceOnUse" color-interpolation-filters="sRGB">
<feFlood flood-opacity="0" result="BackgroundImageFix"/>
<feGaussianBlur in="BackgroundImageFix" stdDeviation="28"/>
<feComposite in2="SourceAlpha" operator="in" result="effect1_backgroundBlur_215_391"/>
<feBlend mode="normal" in="SourceGraphic" in2="effect1_backgroundBlur_215_391" result="shape"/>
</filter>
<clipPath id="clip0_215_391">
<rect width="390" height="852" fill="white"/>
</clipPath>
<clipPath id="clip1_215_391">
<rect width="72" height="16" fill="white" transform="translate(302 16)"/>
</clipPath>
<clipPath id="clip2_215_391">
<rect width="16" height="8.5" fill="white" transform="translate(348 20.5)"/>
</clipPath>
<clipPath id="clip3_215_391">
<rect width="72" height="16" fill="white" transform="translate(302 16)"/>
</clipPath>
<clipPath id="clip4_215_391">
<rect width="16" height="8.5" fill="white" transform="translate(348 20.5)"/>
</clipPath>
</defs>
</svg>
