<svg width="390" height="852" viewBox="0 0 390 852" fill="none" xmlns="http://www.w3.org/2000/svg">
<g clip-path="url(#clip0_195_197)">
<rect width="390" height="852" fill="white"/>
<path d="M45.376 111.218C43.0933 111.218 41.024 110.727 39.168 109.746C37.3333 108.743 35.8827 107.367 34.816 105.618C33.7707 103.847 33.248 101.853 33.248 99.6341C33.248 97.4154 33.7707 95.4314 34.816 93.6821C35.8827 91.9114 37.3333 90.5354 39.168 89.5541C41.024 88.5514 43.104 88.0501 45.408 88.0501C47.3493 88.0501 49.0987 88.3914 50.656 89.0741C52.2347 89.7568 53.5573 90.7381 54.624 92.0181L51.296 95.0901C49.7813 93.3408 47.904 92.4661 45.664 92.4661C44.2773 92.4661 43.04 92.7754 41.952 93.3941C40.864 93.9914 40.0107 94.8341 39.392 95.9221C38.7947 97.0101 38.496 98.2474 38.496 99.6341C38.496 101.021 38.7947 102.258 39.392 103.346C40.0107 104.434 40.864 105.287 41.952 105.906C43.04 106.503 44.2773 106.802 45.664 106.802C47.904 106.802 49.7813 105.917 51.296 104.146L54.624 107.218C53.5573 108.519 52.2347 109.511 50.656 110.194C49.0773 110.877 47.3173 111.218 45.376 111.218ZM62.1327 95.8901C62.7301 95.0581 63.5301 94.4288 64.5327 94.0021C65.5567 93.5754 66.7301 93.3621 68.0527 93.3621V97.9701C67.4981 97.9274 67.1247 97.9061 66.9327 97.9061C65.5034 97.9061 64.3834 98.3114 63.5727 99.1221C62.7621 99.9114 62.3567 101.106 62.3567 102.706V110.834H57.3647V93.6181H62.1327V95.8901ZM87.3207 102.29C87.3207 102.354 87.2887 102.802 87.2247 103.634H74.2007C74.4354 104.701 74.9901 105.543 75.8647 106.162C76.7394 106.781 77.8274 107.09 79.1287 107.09C80.0247 107.09 80.8141 106.962 81.4967 106.706C82.2007 106.429 82.8514 106.002 83.4487 105.426L86.1047 108.306C84.4834 110.162 82.1154 111.09 79.0007 111.09C77.0594 111.09 75.3421 110.717 73.8487 109.97C72.3554 109.202 71.2034 108.146 70.3927 106.802C69.5821 105.458 69.1767 103.933 69.1767 102.226C69.1767 100.541 69.5714 99.0261 70.3607 97.6821C71.1714 96.3168 72.2701 95.2608 73.6567 94.5141C75.0647 93.7461 76.6327 93.3621 78.3607 93.3621C80.0461 93.3621 81.5714 93.7248 82.9367 94.4501C84.3021 95.1754 85.3687 96.2208 86.1367 97.5861C86.9261 98.9301 87.3207 100.498 87.3207 102.29ZM78.3927 97.1381C77.2621 97.1381 76.3127 97.4581 75.5447 98.0981C74.7767 98.7381 74.3074 99.6128 74.1367 100.722H82.6167C82.4461 99.6341 81.9767 98.7701 81.2087 98.1301C80.4407 97.4688 79.5021 97.1381 78.3927 97.1381ZM96.7115 93.3621C99.3782 93.3621 101.426 94.0021 102.856 95.2821C104.285 96.5408 105 98.4501 105 101.01V110.834H100.328V108.69C99.3888 110.29 97.6395 111.09 95.0795 111.09C93.7568 111.09 92.6048 110.866 91.6235 110.418C90.6635 109.97 89.9275 109.351 89.4155 108.562C88.9035 107.773 88.6475 106.877 88.6475 105.874C88.6475 104.274 89.2448 103.015 90.4395 102.098C91.6555 101.181 93.5222 100.722 96.0395 100.722H100.008C100.008 99.6341 99.6768 98.8021 99.0155 98.2261C98.3542 97.6288 97.3622 97.3301 96.0395 97.3301C95.1222 97.3301 94.2155 97.4794 93.3195 97.7781C92.4448 98.0554 91.6982 98.4394 91.0795 98.9301L89.2875 95.4421C90.2262 94.7808 91.3462 94.2688 92.6475 93.9061C93.9702 93.5434 95.3248 93.3621 96.7115 93.3621ZM96.3275 107.73C97.1808 107.73 97.9382 107.538 98.5995 107.154C99.2608 106.749 99.7302 106.162 100.008 105.394V103.634H96.5835C94.5355 103.634 93.5115 104.306 93.5115 105.65C93.5115 106.29 93.7568 106.802 94.2475 107.186C94.7595 107.549 95.4528 107.73 96.3275 107.73ZM120.213 110.002C119.723 110.365 119.115 110.642 118.389 110.834C117.685 111.005 116.939 111.09 116.149 111.09C114.101 111.09 112.512 110.567 111.381 109.522C110.272 108.477 109.717 106.941 109.717 104.914V97.8421H107.061V94.0021H109.717V89.8101H114.709V94.0021H118.997V97.8421H114.709V104.85C114.709 105.575 114.891 106.141 115.253 106.546C115.637 106.93 116.171 107.122 116.853 107.122C117.643 107.122 118.315 106.909 118.869 106.482L120.213 110.002ZM138.941 102.29C138.941 102.354 138.909 102.802 138.844 103.634H125.82C126.055 104.701 126.61 105.543 127.484 106.162C128.359 106.781 129.447 107.09 130.748 107.09C131.644 107.09 132.434 106.962 133.116 106.706C133.82 106.429 134.471 106.002 135.068 105.426L137.725 108.306C136.103 110.162 133.735 111.09 130.62 111.09C128.679 111.09 126.962 110.717 125.468 109.97C123.975 109.202 122.823 108.146 122.012 106.802C121.202 105.458 120.796 103.933 120.796 102.226C120.796 100.541 121.191 99.0261 121.98 97.6821C122.791 96.3168 123.89 95.2608 125.276 94.5141C126.684 93.7461 128.252 93.3621 129.98 93.3621C131.666 93.3621 133.191 93.7248 134.556 94.4501C135.922 95.1754 136.988 96.2208 137.757 97.5861C138.546 98.9301 138.941 100.498 138.941 102.29ZM130.012 97.1381C128.882 97.1381 127.932 97.4581 127.164 98.0981C126.396 98.7381 125.927 99.6128 125.756 100.722H134.236C134.066 99.6341 133.597 98.7701 132.828 98.1301C132.06 97.4688 131.122 97.1381 130.012 97.1381ZM165.614 106.034H155.214L153.23 110.834H147.918L157.902 88.4341H163.022L173.038 110.834H167.598L165.614 106.034ZM163.982 102.098L160.43 93.5221L156.878 102.098H163.982ZM185.066 93.3621C187.2 93.3621 188.917 94.0021 190.218 95.2821C191.541 96.5621 192.202 98.4608 192.202 100.978V110.834H187.21V101.746C187.21 100.381 186.912 99.3674 186.314 98.7061C185.717 98.0234 184.853 97.6821 183.722 97.6821C182.464 97.6821 181.461 98.0768 180.714 98.8661C179.968 99.6341 179.594 100.786 179.594 102.322V110.834H174.602V93.6181H179.37V95.6341C180.032 94.9088 180.853 94.3541 181.834 93.9701C182.816 93.5648 183.893 93.3621 185.066 93.3621ZM220.078 106.034H209.678L207.694 110.834H202.382L212.366 88.4341H217.486L227.502 110.834H222.062L220.078 106.034ZM218.446 102.098L214.894 93.5221L211.342 102.098H218.446ZM237.23 111.09C235.395 111.09 233.742 110.717 232.27 109.97C230.819 109.202 229.678 108.146 228.846 106.802C228.035 105.458 227.63 103.933 227.63 102.226C227.63 100.519 228.035 98.9941 228.846 97.6501C229.678 96.3061 230.819 95.2608 232.27 94.5141C233.742 93.7461 235.395 93.3621 237.23 93.3621C239.043 93.3621 240.622 93.7461 241.966 94.5141C243.331 95.2608 244.323 96.3381 244.942 97.7461L241.07 99.8261C240.174 98.2474 238.883 97.4581 237.198 97.4581C235.896 97.4581 234.819 97.8848 233.966 98.7381C233.112 99.5914 232.686 100.754 232.686 102.226C232.686 103.698 233.112 104.861 233.966 105.714C234.819 106.567 235.896 106.994 237.198 106.994C238.904 106.994 240.195 106.205 241.07 104.626L244.942 106.738C244.323 108.103 243.331 109.17 241.966 109.938C240.622 110.706 239.043 111.09 237.23 111.09ZM255.509 111.09C253.675 111.09 252.021 110.717 250.549 109.97C249.099 109.202 247.957 108.146 247.125 106.802C246.315 105.458 245.909 103.933 245.909 102.226C245.909 100.519 246.315 98.9941 247.125 97.6501C247.957 96.3061 249.099 95.2608 250.549 94.5141C252.021 93.7461 253.675 93.3621 255.509 93.3621C257.323 93.3621 258.901 93.7461 260.245 94.5141C261.611 95.2608 262.603 96.3381 263.221 97.7461L259.349 99.8261C258.453 98.2474 257.163 97.4581 255.477 97.4581C254.176 97.4581 253.099 97.8848 252.245 98.7381C251.392 99.5914 250.965 100.754 250.965 102.226C250.965 103.698 251.392 104.861 252.245 105.714C253.099 106.567 254.176 106.994 255.477 106.994C257.184 106.994 258.475 106.205 259.349 104.626L263.221 106.738C262.603 108.103 261.611 109.17 260.245 109.938C258.901 110.706 257.323 111.09 255.509 111.09ZM273.661 111.09C271.847 111.09 270.215 110.717 268.765 109.97C267.335 109.202 266.215 108.146 265.405 106.802C264.594 105.458 264.189 103.933 264.189 102.226C264.189 100.519 264.594 98.9941 265.405 97.6501C266.215 96.3061 267.335 95.2608 268.765 94.5141C270.215 93.7461 271.847 93.3621 273.661 93.3621C275.474 93.3621 277.095 93.7461 278.525 94.5141C279.954 95.2608 281.074 96.3061 281.885 97.6501C282.695 98.9941 283.101 100.519 283.101 102.226C283.101 103.933 282.695 105.458 281.885 106.802C281.074 108.146 279.954 109.202 278.525 109.97C277.095 110.717 275.474 111.09 273.661 111.09ZM273.661 106.994C274.941 106.994 275.986 106.567 276.797 105.714C277.629 104.839 278.045 103.677 278.045 102.226C278.045 100.775 277.629 99.6234 276.797 98.7701C275.986 97.8954 274.941 97.4581 273.661 97.4581C272.381 97.4581 271.325 97.8954 270.493 98.7701C269.661 99.6234 269.245 100.775 269.245 102.226C269.245 103.677 269.661 104.839 270.493 105.714C271.325 106.567 272.381 106.994 273.661 106.994ZM303.373 93.6181V110.834H298.637V108.786C297.976 109.533 297.187 110.109 296.269 110.514C295.352 110.898 294.36 111.09 293.293 111.09C291.032 111.09 289.24 110.439 287.917 109.138C286.595 107.837 285.933 105.906 285.933 103.346V93.6181H290.925V102.61C290.925 105.383 292.088 106.77 294.413 106.77C295.608 106.77 296.568 106.386 297.293 105.618C298.019 104.829 298.381 103.666 298.381 102.13V93.6181H303.373ZM318.054 93.3621C320.188 93.3621 321.905 94.0021 323.206 95.2821C324.529 96.5621 325.19 98.4608 325.19 100.978V110.834H320.198V101.746C320.198 100.381 319.9 99.3674 319.302 98.7061C318.705 98.0234 317.841 97.6821 316.71 97.6821C315.452 97.6821 314.449 98.0768 313.702 98.8661C312.956 99.6341 312.582 100.786 312.582 102.322V110.834H307.59V93.6181H312.358V95.6341C313.02 94.9088 313.841 94.3541 314.822 93.9701C315.804 93.5648 316.881 93.3621 318.054 93.3621ZM340.411 110.002C339.921 110.365 339.313 110.642 338.587 110.834C337.883 111.005 337.137 111.09 336.347 111.09C334.299 111.09 332.71 110.567 331.579 109.522C330.47 108.477 329.915 106.941 329.915 104.914V97.8421H327.259V94.0021H329.915V89.8101H334.907V94.0021H339.195V97.8421H334.907V104.85C334.907 105.575 335.089 106.141 335.451 106.546C335.835 106.93 336.369 107.122 337.051 107.122C337.841 107.122 338.513 106.909 339.067 106.482L340.411 110.002Z" fill="#6078E0"/>
<path d="M240.981 469.908V472.464H245.037V473.784H240.981V477H239.421V468.6H245.553V469.908H240.981ZM249.622 477.084C248.974 477.084 248.39 476.944 247.87 476.664C247.35 476.384 246.942 475.996 246.646 475.5C246.358 474.996 246.214 474.428 246.214 473.796C246.214 473.164 246.358 472.6 246.646 472.104C246.942 471.608 247.35 471.22 247.87 470.94C248.39 470.66 248.974 470.52 249.622 470.52C250.278 470.52 250.866 470.66 251.386 470.94C251.906 471.22 252.31 471.608 252.598 472.104C252.894 472.6 253.042 473.164 253.042 473.796C253.042 474.428 252.894 474.996 252.598 475.5C252.31 475.996 251.906 476.384 251.386 476.664C250.866 476.944 250.278 477.084 249.622 477.084ZM249.622 475.8C250.174 475.8 250.63 475.616 250.99 475.248C251.35 474.88 251.53 474.396 251.53 473.796C251.53 473.196 251.35 472.712 250.99 472.344C250.63 471.976 250.174 471.792 249.622 471.792C249.07 471.792 248.614 471.976 248.254 472.344C247.902 472.712 247.726 473.196 247.726 473.796C247.726 474.396 247.902 474.88 248.254 475.248C248.614 475.616 249.07 475.8 249.622 475.8ZM255.904 471.528C256.336 470.856 257.096 470.52 258.184 470.52V471.948C258.056 471.924 257.94 471.912 257.836 471.912C257.252 471.912 256.796 472.084 256.468 472.428C256.14 472.764 255.976 473.252 255.976 473.892V477H254.476V470.592H255.904V471.528ZM265.758 470.592V476.028C265.758 478.284 264.606 479.412 262.302 479.412C261.686 479.412 261.102 479.332 260.55 479.172C259.998 479.02 259.542 478.796 259.182 478.5L259.854 477.372C260.134 477.604 260.486 477.788 260.91 477.924C261.342 478.068 261.778 478.14 262.218 478.14C262.922 478.14 263.438 477.98 263.766 477.66C264.094 477.34 264.258 476.852 264.258 476.196V475.86C264.002 476.14 263.69 476.352 263.322 476.496C262.954 476.64 262.55 476.712 262.11 476.712C261.502 476.712 260.95 476.584 260.454 476.328C259.966 476.064 259.578 475.696 259.29 475.224C259.01 474.752 258.87 474.212 258.87 473.604C258.87 472.996 259.01 472.46 259.29 471.996C259.578 471.524 259.966 471.16 260.454 470.904C260.95 470.648 261.502 470.52 262.11 470.52C262.574 470.52 262.994 470.596 263.37 470.748C263.754 470.9 264.074 471.132 264.33 471.444V470.592H265.758ZM262.338 475.44C262.906 475.44 263.37 475.272 263.73 474.936C264.098 474.592 264.282 474.148 264.282 473.604C264.282 473.068 264.098 472.632 263.73 472.296C263.37 471.96 262.906 471.792 262.338 471.792C261.762 471.792 261.29 471.96 260.922 472.296C260.562 472.632 260.382 473.068 260.382 473.604C260.382 474.148 260.562 474.592 260.922 474.936C261.29 475.272 261.762 475.44 262.338 475.44ZM273.754 473.832C273.754 473.936 273.746 474.084 273.73 474.276H268.702C268.79 474.748 269.018 475.124 269.386 475.404C269.762 475.676 270.226 475.812 270.778 475.812C271.482 475.812 272.062 475.58 272.518 475.116L273.322 476.04C273.034 476.384 272.67 476.644 272.23 476.82C271.79 476.996 271.294 477.084 270.742 477.084C270.038 477.084 269.418 476.944 268.882 476.664C268.346 476.384 267.93 475.996 267.634 475.5C267.346 474.996 267.202 474.428 267.202 473.796C267.202 473.172 267.342 472.612 267.622 472.116C267.91 471.612 268.306 471.22 268.81 470.94C269.314 470.66 269.882 470.52 270.514 470.52C271.138 470.52 271.694 470.66 272.182 470.94C272.678 471.212 273.062 471.6 273.334 472.104C273.614 472.6 273.754 473.176 273.754 473.832ZM270.514 471.72C270.034 471.72 269.626 471.864 269.29 472.152C268.962 472.432 268.762 472.808 268.69 473.28H272.326C272.262 472.816 272.066 472.44 271.738 472.152C271.41 471.864 271.002 471.72 270.514 471.72ZM279.047 476.652C278.871 476.796 278.655 476.904 278.399 476.976C278.151 477.048 277.887 477.084 277.607 477.084C276.903 477.084 276.359 476.9 275.975 476.532C275.591 476.164 275.399 475.628 275.399 474.924V471.84H274.343V470.64H275.399V469.176H276.899V470.64H278.615V471.84H276.899V474.888C276.899 475.2 276.975 475.44 277.127 475.608C277.279 475.768 277.499 475.848 277.787 475.848C278.123 475.848 278.403 475.76 278.627 475.584L279.047 476.652ZM287.149 470.52C287.773 470.52 288.329 470.656 288.817 470.928C289.313 471.2 289.701 471.584 289.981 472.08C290.261 472.576 290.401 473.148 290.401 473.796C290.401 474.444 290.261 475.02 289.981 475.524C289.701 476.02 289.313 476.404 288.817 476.676C288.329 476.948 287.773 477.084 287.149 477.084C286.285 477.084 285.601 476.796 285.097 476.22V479.328H283.597V470.592H285.025V471.432C285.273 471.128 285.577 470.9 285.937 470.748C286.305 470.596 286.709 470.52 287.149 470.52ZM286.981 475.8C287.533 475.8 287.985 475.616 288.337 475.248C288.697 474.88 288.877 474.396 288.877 473.796C288.877 473.196 288.697 472.712 288.337 472.344C287.985 471.976 287.533 471.792 286.981 471.792C286.621 471.792 286.297 471.876 286.009 472.044C285.721 472.204 285.493 472.436 285.325 472.74C285.157 473.044 285.073 473.396 285.073 473.796C285.073 474.196 285.157 474.548 285.325 474.852C285.493 475.156 285.721 475.392 286.009 475.56C286.297 475.72 286.621 475.8 286.981 475.8ZM294.19 470.52C295.134 470.52 295.854 470.748 296.35 471.204C296.854 471.652 297.106 472.332 297.106 473.244V477H295.69V476.22C295.506 476.5 295.242 476.716 294.898 476.868C294.562 477.012 294.154 477.084 293.674 477.084C293.194 477.084 292.774 477.004 292.414 476.844C292.054 476.676 291.774 476.448 291.574 476.16C291.382 475.864 291.286 475.532 291.286 475.164C291.286 474.588 291.498 474.128 291.922 473.784C292.354 473.432 293.03 473.256 293.95 473.256H295.606V473.16C295.606 472.712 295.47 472.368 295.198 472.128C294.934 471.888 294.538 471.768 294.01 471.768C293.65 471.768 293.294 471.824 292.942 471.936C292.598 472.048 292.306 472.204 292.066 472.404L291.478 471.312C291.814 471.056 292.218 470.86 292.69 470.724C293.162 470.588 293.662 470.52 294.19 470.52ZM293.986 475.992C294.362 475.992 294.694 475.908 294.982 475.74C295.278 475.564 295.486 475.316 295.606 474.996V474.252H294.058C293.194 474.252 292.762 474.536 292.762 475.104C292.762 475.376 292.87 475.592 293.086 475.752C293.302 475.912 293.602 475.992 293.986 475.992ZM301.011 477.084C300.491 477.084 299.983 477.016 299.487 476.88C298.991 476.744 298.595 476.572 298.299 476.364L298.875 475.224C299.163 475.416 299.507 475.572 299.907 475.692C300.315 475.804 300.715 475.86 301.107 475.86C302.003 475.86 302.451 475.624 302.451 475.152C302.451 474.928 302.335 474.772 302.103 474.684C301.879 474.596 301.515 474.512 301.011 474.432C300.483 474.352 300.051 474.26 299.715 474.156C299.387 474.052 299.099 473.872 298.851 473.616C298.611 473.352 298.491 472.988 298.491 472.524C298.491 471.916 298.743 471.432 299.247 471.072C299.759 470.704 300.447 470.52 301.311 470.52C301.751 470.52 302.191 470.572 302.631 470.676C303.071 470.772 303.431 470.904 303.711 471.072L303.135 472.212C302.591 471.892 301.979 471.732 301.299 471.732C300.859 471.732 300.523 471.8 300.291 471.936C300.067 472.064 299.955 472.236 299.955 472.452C299.955 472.692 300.075 472.864 300.315 472.968C300.563 473.064 300.943 473.156 301.455 473.244C301.967 473.324 302.387 473.416 302.715 473.52C303.043 473.624 303.323 473.8 303.555 474.048C303.795 474.296 303.915 474.648 303.915 475.104C303.915 475.704 303.655 476.184 303.135 476.544C302.615 476.904 301.907 477.084 301.011 477.084ZM307.187 477.084C306.667 477.084 306.159 477.016 305.663 476.88C305.167 476.744 304.771 476.572 304.475 476.364L305.051 475.224C305.339 475.416 305.683 475.572 306.083 475.692C306.491 475.804 306.891 475.86 307.283 475.86C308.179 475.86 308.627 475.624 308.627 475.152C308.627 474.928 308.511 474.772 308.279 474.684C308.055 474.596 307.691 474.512 307.187 474.432C306.659 474.352 306.227 474.26 305.891 474.156C305.563 474.052 305.275 473.872 305.027 473.616C304.787 473.352 304.667 472.988 304.667 472.524C304.667 471.916 304.919 471.432 305.423 471.072C305.935 470.704 306.623 470.52 307.487 470.52C307.927 470.52 308.367 470.572 308.807 470.676C309.247 470.772 309.607 470.904 309.887 471.072L309.311 472.212C308.767 471.892 308.155 471.732 307.475 471.732C307.035 471.732 306.699 471.8 306.467 471.936C306.243 472.064 306.131 472.236 306.131 472.452C306.131 472.692 306.251 472.864 306.491 472.968C306.739 473.064 307.119 473.156 307.631 473.244C308.143 473.324 308.563 473.416 308.891 473.52C309.219 473.624 309.499 473.8 309.731 474.048C309.971 474.296 310.091 474.648 310.091 475.104C310.091 475.704 309.831 476.184 309.311 476.544C308.791 476.904 308.083 477.084 307.187 477.084ZM321.261 470.592L318.897 477H317.457L315.801 472.584L314.121 477H312.681L310.329 470.592H311.745L313.437 475.32L315.201 470.592H316.461L318.189 475.344L319.929 470.592H321.261ZM324.997 477.084C324.349 477.084 323.765 476.944 323.245 476.664C322.725 476.384 322.317 475.996 322.021 475.5C321.733 474.996 321.589 474.428 321.589 473.796C321.589 473.164 321.733 472.6 322.021 472.104C322.317 471.608 322.725 471.22 323.245 470.94C323.765 470.66 324.349 470.52 324.997 470.52C325.653 470.52 326.241 470.66 326.761 470.94C327.281 471.22 327.685 471.608 327.973 472.104C328.269 472.6 328.417 473.164 328.417 473.796C328.417 474.428 328.269 474.996 327.973 475.5C327.685 475.996 327.281 476.384 326.761 476.664C326.241 476.944 325.653 477.084 324.997 477.084ZM324.997 475.8C325.549 475.8 326.005 475.616 326.365 475.248C326.725 474.88 326.905 474.396 326.905 473.796C326.905 473.196 326.725 472.712 326.365 472.344C326.005 471.976 325.549 471.792 324.997 471.792C324.445 471.792 323.989 471.976 323.629 472.344C323.277 472.712 323.101 473.196 323.101 473.796C323.101 474.396 323.277 474.88 323.629 475.248C323.989 475.616 324.445 475.8 324.997 475.8ZM331.279 471.528C331.711 470.856 332.471 470.52 333.559 470.52V471.948C333.431 471.924 333.315 471.912 333.211 471.912C332.627 471.912 332.171 472.084 331.843 472.428C331.515 472.764 331.351 473.252 331.351 473.892V477H329.851V470.592H331.279V471.528ZM341.049 468.096V477H339.609V476.172C339.361 476.476 339.053 476.704 338.685 476.856C338.325 477.008 337.925 477.084 337.485 477.084C336.869 477.084 336.313 476.948 335.817 476.676C335.329 476.404 334.945 476.02 334.665 475.524C334.385 475.02 334.245 474.444 334.245 473.796C334.245 473.148 334.385 472.576 334.665 472.08C334.945 471.584 335.329 471.2 335.817 470.928C336.313 470.656 336.869 470.52 337.485 470.52C337.909 470.52 338.297 470.592 338.649 470.736C339.001 470.88 339.301 471.096 339.549 471.384V468.096H341.049ZM337.665 475.8C338.025 475.8 338.349 475.72 338.637 475.56C338.925 475.392 339.153 475.156 339.321 474.852C339.489 474.548 339.573 474.196 339.573 473.796C339.573 473.396 339.489 473.044 339.321 472.74C339.153 472.436 338.925 472.204 338.637 472.044C338.349 471.876 338.025 471.792 337.665 471.792C337.305 471.792 336.981 471.876 336.693 472.044C336.405 472.204 336.177 472.436 336.009 472.74C335.841 473.044 335.757 473.396 335.757 473.796C335.757 474.196 335.841 474.548 336.009 474.852C336.177 475.156 336.405 475.392 336.693 475.56C336.981 475.72 337.305 475.8 337.665 475.8ZM344.691 474.216C344.691 473.784 344.787 473.428 344.979 473.148C345.179 472.86 345.467 472.548 345.843 472.212C346.131 471.956 346.343 471.736 346.479 471.552C346.623 471.36 346.695 471.144 346.695 470.904C346.695 470.568 346.559 470.296 346.287 470.088C346.015 469.88 345.651 469.776 345.195 469.776C344.331 469.776 343.679 470.084 343.239 470.7L342.075 469.944C342.419 469.472 342.863 469.112 343.407 468.864C343.951 468.608 344.591 468.48 345.327 468.48C346.223 468.48 346.935 468.676 347.463 469.068C347.999 469.452 348.267 469.984 348.267 470.664C348.267 470.992 348.211 471.28 348.099 471.528C347.995 471.776 347.867 471.988 347.715 472.164C347.563 472.332 347.363 472.528 347.115 472.752C346.811 473.024 346.583 473.264 346.431 473.472C346.287 473.68 346.215 473.928 346.215 474.216H344.691ZM345.459 477.084C345.179 477.084 344.947 476.996 344.763 476.82C344.587 476.636 344.499 476.412 344.499 476.148C344.499 475.884 344.587 475.664 344.763 475.488C344.947 475.312 345.179 475.224 345.459 475.224C345.731 475.224 345.955 475.312 346.131 475.488C346.315 475.664 346.407 475.884 346.407 476.148C346.407 476.412 346.315 476.636 346.131 476.82C345.955 476.996 345.731 477.084 345.459 477.084Z" fill="#6078E0"/>
<path d="M23.4034 27.792L27.9634 20.672H30.1394V27.968H31.7874V29.696H30.1394V32H28.2194V29.696H23.4034V27.792ZM28.1874 23.392L25.3554 27.968H28.2194V23.392H28.1874ZM34.6961 24.208C35.3521 24.208 35.9761 24.704 35.9761 25.424C35.9761 26.128 35.4001 26.672 34.6961 26.672C34.0241 26.672 33.4161 26.128 33.4161 25.456C33.4161 24.768 34.0081 24.208 34.6961 24.208ZM34.6961 29.632C35.3681 29.632 35.9761 30.144 35.9761 30.848C35.9761 31.568 35.3841 32.096 34.6961 32.096C34.0241 32.096 33.4161 31.568 33.4161 30.88C33.4161 30.192 34.0081 29.632 34.6961 29.632ZM41.9265 20.48C44.1185 20.48 45.5905 21.648 45.5905 23.696C45.5905 24.88 45.0945 25.872 43.8625 27.008L40.3425 30.272H45.5905V32H38.0065V29.968L42.4065 25.712C43.3505 24.8 43.5745 24.336 43.5745 23.792C43.5745 22.864 42.8225 22.304 41.9265 22.304C40.9985 22.304 40.3105 22.912 40.1825 23.84L38.1665 23.68C38.3745 21.584 39.8465 20.48 41.9265 20.48ZM51.2673 20.48C53.8433 20.48 55.3633 22.464 55.3633 26.336C55.3633 30.192 53.8593 32.192 51.2673 32.192C48.6753 32.192 47.1713 30.192 47.1713 26.336C47.1713 22.464 48.6913 20.48 51.2673 20.48ZM49.0913 26.336C49.0913 28.768 49.7953 30.368 51.2673 30.368C52.7073 30.368 53.4433 28.848 53.4433 26.336C53.4433 23.792 52.7073 22.304 51.2513 22.304C49.8593 22.304 49.0913 23.776 49.0913 26.336Z" fill="#3C3C43"/>
<g filter="url(#filter0_b_195_197)">
<g clip-path="url(#clip1_195_197)">
<rect opacity="0.2" x="319.5" y="22.5" width="3.5" height="11.5" rx="1" fill="#3C3C43"/>
<path d="M314.5 26C314.5 25.4477 314.948 25 315.5 25H317C317.552 25 318 25.4477 318 26V33C318 33.5523 317.552 34 317 34H315.5C314.948 34 314.5 33.5523 314.5 33V26Z" fill="#3C3C43"/>
<path d="M309.5 28.5C309.5 27.9477 309.948 27.5 310.5 27.5H312C312.552 27.5 313 27.9477 313 28.5V33C313 33.5523 312.552 34 312 34H310.5C309.948 34 309.5 33.5523 309.5 33V28.5Z" fill="#3C3C43"/>
<path d="M304.5 30.5C304.5 29.9477 304.948 29.5 305.5 29.5H307C307.552 29.5 308 29.9477 308 30.5V33C308 33.5523 307.552 34 307 34H305.5C304.948 34 304.5 33.5523 304.5 33V30.5Z" fill="#3C3C43"/>
<path d="M338.325 31.7891C338.39 31.7255 338.426 31.638 338.424 31.5473C338.422 31.4566 338.383 31.3707 338.316 31.3098C336.979 30.1784 335.022 30.1784 333.686 31.3098C333.618 31.3706 333.579 31.4565 333.577 31.5472C333.575 31.638 333.611 31.7254 333.676 31.7891L335.768 33.9029C335.83 33.965 335.913 34 336.001 34C336.088 34 336.171 33.965 336.233 33.9029L338.325 31.7891Z" fill="#3C3C43"/>
<path d="M336 28.869C337.276 28.869 338.506 29.3435 339.451 30.2006C339.579 30.3222 339.781 30.3195 339.905 30.1946L341.115 28.9711C341.179 28.9069 341.214 28.8199 341.213 28.7294C341.212 28.6389 341.175 28.5526 341.11 28.4898C338.231 25.8088 333.772 25.8088 330.893 28.4898C330.828 28.5526 330.791 28.639 330.79 28.7295C330.789 28.82 330.825 28.907 330.889 28.9711L332.098 30.1946C332.222 30.3195 332.424 30.3222 332.552 30.2006C333.497 29.3441 334.726 28.8696 336 28.869Z" fill="#3C3C43"/>
<path opacity="0.2" d="M336 24.8883C338.322 24.8884 340.555 25.7813 342.237 27.3825C342.364 27.5061 342.566 27.5045 342.691 27.379L343.902 26.1555C343.965 26.0918 344.001 26.0055 344 25.9158C343.999 25.826 343.963 25.7402 343.899 25.6772C339.483 21.4409 332.517 21.4409 328.101 25.6772C328.037 25.7401 328.001 25.826 328 25.9157C327.999 26.0055 328.035 26.0917 328.098 26.1555L329.309 27.379C329.434 27.5047 329.637 27.5063 329.763 27.3825C331.446 25.7812 333.679 24.8883 336 24.8883Z" fill="#3C3C43"/>
<g clip-path="url(#clip2_195_197)">
<path d="M350 25.25C350 24.5596 350.56 24 351.25 24H352V32.5H351.25C350.56 32.5 350 31.9404 350 31.25V25.25Z" fill="#3C3C43"/>
<path d="M352 24H354V32.5H352V24Z" fill="#3C3C43"/>
<path d="M354 24H356V32.5H354V24Z" fill="#3C3C43"/>
<path d="M356 24H358V32.5H356V24Z" fill="#3C3C43"/>
<path d="M358 24H360V32.5H358V24Z" fill="#3C3C43"/>
<path d="M360 24H362V32.5H360V24Z" fill="#3C3C43"/>
<path d="M362 24H364V32.5H362V24Z" fill="#3C3C43"/>
<path d="M366 25.25C366 24.5596 365.44 24 364.75 24H364V32.5H364.75C365.44 32.5 366 31.9404 366 31.25V25.25Z" fill="#3C3C43"/>
</g>
<g opacity="0.5">
<path fill-rule="evenodd" clip-rule="evenodd" d="M348 25C348 23.3431 349.343 22 351 22H369C370.657 22 372 23.3431 372 25V31.5C372 33.1569 370.657 34.5 369 34.5H351C349.343 34.5 348 33.1569 348 31.5V25ZM351 23C349.895 23 349 23.8954 349 25V31.5C349 32.6046 349.895 33.5 351 33.5H369C370.105 33.5 371 32.6046 371 31.5V25C371 23.8954 370.105 23 369 23H351Z" fill="#3C3C43"/>
<path d="M373 30.542C373.883 30.1562 374.5 29.2751 374.5 28.25C374.5 27.2248 373.883 26.3438 373 25.958V30.542Z" fill="#3C3C43"/>
</g>
</g>
</g>
<path d="M136.5 843L252.5 843" stroke="black" stroke-width="4" stroke-linecap="round"/>
</g>
<defs>
<filter id="filter0_b_195_197" x="248" y="-36.5" width="184" height="128" filterUnits="userSpaceOnUse" color-interpolation-filters="sRGB">
<feFlood flood-opacity="0" result="BackgroundImageFix"/>
<feGaussianBlur in="BackgroundImageFix" stdDeviation="28"/>
<feComposite in2="SourceAlpha" operator="in" result="effect1_backgroundBlur_195_197"/>
<feBlend mode="normal" in="SourceGraphic" in2="effect1_backgroundBlur_195_197" result="shape"/>
</filter>
<clipPath id="clip0_195_197">
<rect width="390" height="852" fill="white"/>
</clipPath>
<clipPath id="clip1_195_197">
<rect width="72" height="16" fill="white" transform="translate(304 19.5)"/>
</clipPath>
<clipPath id="clip2_195_197">
<rect width="16" height="8.5" fill="white" transform="translate(350 24)"/>
</clipPath>
</defs>
</svg>
