<svg width="73" height="73" viewBox="0 0 73 73" fill="none" xmlns="http://www.w3.org/2000/svg">
<path fill-rule="evenodd" clip-rule="evenodd" d="M14.5876 59.2357C2.30599 46.954 2.35611 26.9195 14.6379 14.6377C26.9195 2.35607 46.9039 2.35608 59.1856 14.6377C71.4672 26.9194 71.4672 46.9039 59.1856 59.1855C46.904 71.4671 26.8693 71.5173 14.5876 59.2357ZM40.0936 36.9117L49.6395 46.4576C50.5178 47.3359 50.5178 48.7614 49.6395 49.6396C48.7613 50.5178 47.3358 50.5178 46.4576 49.6396L36.9116 40.0937L27.3657 49.6396C26.4875 50.5178 25.0619 50.5178 24.1837 49.6396C23.3055 48.7614 23.3055 47.3359 24.1837 46.4576L33.7296 36.9117L24.1837 27.3657C23.3055 26.4875 23.3055 25.062 24.1837 24.1838C25.0619 23.3055 26.4875 23.3055 27.3657 24.1838L36.9116 33.7297L46.4576 24.1838C47.3358 23.3055 48.7613 23.3055 49.6395 24.1838C50.5178 25.062 50.5178 26.4875 49.6395 27.3657L40.0936 36.9117Z" fill="#3C3C43" fill-opacity="0.3"/>
<path fill-rule="evenodd" clip-rule="evenodd" d="M11.4558 11.4558C25.5146 -2.60294 48.3087 -2.60294 62.3675 11.4558C76.427 25.5154 76.4263 48.3087 62.3675 62.3675C48.3079 76.4271 25.5154 76.4271 11.4558 62.3675C-2.60301 48.3087 -2.6038 25.5154 11.4558 11.4558ZM14.6379 14.6377C2.35611 26.9195 2.30599 46.954 14.5876 59.2357C26.8693 71.5173 46.904 71.4671 59.1856 59.1855C71.4672 46.9039 71.4672 26.9194 59.1856 14.6377C46.9039 2.35608 26.9195 2.35607 14.6379 14.6377Z" fill="#3C3C43" fill-opacity="0.3"/>
</svg>
