<svg width="393" height="852" viewBox="0 0 393 852" fill="none" xmlns="http://www.w3.org/2000/svg">
<g clip-path="url(#clip0_170_35)">
<rect width="393" height="852" fill="#6078E0"/>
<path d="M23.4034 26.792L27.9634 19.672H30.1394V26.968H31.7874V28.696H30.1394V31H28.2194V28.696H23.4034V26.792ZM28.1874 22.392L25.3554 26.968H28.2194V22.392H28.1874ZM34.6961 23.208C35.3521 23.208 35.9761 23.704 35.9761 24.424C35.9761 25.128 35.4001 25.672 34.6961 25.672C34.0241 25.672 33.4161 25.128 33.4161 24.456C33.4161 23.768 34.0081 23.208 34.6961 23.208ZM34.6961 28.632C35.3681 28.632 35.9761 29.144 35.9761 29.848C35.9761 30.568 35.3841 31.096 34.6961 31.096C34.0241 31.096 33.4161 30.568 33.4161 29.88C33.4161 29.192 34.0081 28.632 34.6961 28.632ZM41.9265 19.48C44.1185 19.48 45.5905 20.648 45.5905 22.696C45.5905 23.88 45.0945 24.872 43.8625 26.008L40.3425 29.272H45.5905V31H38.0065V28.968L42.4065 24.712C43.3505 23.8 43.5745 23.336 43.5745 22.792C43.5745 21.864 42.8225 21.304 41.9265 21.304C40.9985 21.304 40.3105 21.912 40.1825 22.84L38.1665 22.68C38.3745 20.584 39.8465 19.48 41.9265 19.48ZM51.2673 19.48C53.8433 19.48 55.3633 21.464 55.3633 25.336C55.3633 29.192 53.8593 31.192 51.2673 31.192C48.6753 31.192 47.1713 29.192 47.1713 25.336C47.1713 21.464 48.6913 19.48 51.2673 19.48ZM49.0913 25.336C49.0913 27.768 49.7953 29.368 51.2673 29.368C52.7073 29.368 53.4433 27.848 53.4433 25.336C53.4433 22.792 52.7073 21.304 51.2513 21.304C49.8593 21.304 49.0913 22.776 49.0913 25.336Z" fill="white"/>
<g filter="url(#filter0_b_170_35)">
<g clip-path="url(#clip1_170_35)">
<rect opacity="0.2" x="319.5" y="21.5" width="3.5" height="11.5" rx="1" fill="white"/>
<path d="M314.5 25C314.5 24.4477 314.948 24 315.5 24H317C317.552 24 318 24.4477 318 25V32C318 32.5523 317.552 33 317 33H315.5C314.948 33 314.5 32.5523 314.5 32V25Z" fill="white"/>
<path d="M309.5 27.5C309.5 26.9477 309.948 26.5 310.5 26.5H312C312.552 26.5 313 26.9477 313 27.5V32C313 32.5523 312.552 33 312 33H310.5C309.948 33 309.5 32.5523 309.5 32V27.5Z" fill="white"/>
<path d="M304.5 29.5C304.5 28.9477 304.948 28.5 305.5 28.5H307C307.552 28.5 308 28.9477 308 29.5V32C308 32.5523 307.552 33 307 33H305.5C304.948 33 304.5 32.5523 304.5 32V29.5Z" fill="white"/>
<path d="M338.325 30.789C338.39 30.7255 338.426 30.638 338.424 30.5473C338.422 30.4566 338.383 30.3706 338.316 30.3098C336.979 29.1783 335.022 29.1783 333.686 30.3098C333.618 30.3706 333.579 30.4565 333.577 30.5472C333.575 30.6379 333.611 30.7254 333.676 30.789L335.768 32.9029C335.83 32.965 335.913 33 336.001 33C336.088 33 336.171 32.965 336.233 32.9029L338.325 30.789Z" fill="white"/>
<path d="M336 27.869C337.276 27.869 338.506 28.3435 339.451 29.2006C339.579 29.3222 339.781 29.3195 339.905 29.1946L341.115 27.9711C341.179 27.9069 341.214 27.8199 341.213 27.7294C341.212 27.6389 341.175 27.5526 341.11 27.4898C338.231 24.8088 333.772 24.8088 330.893 27.4898C330.828 27.5526 330.791 27.639 330.79 27.7295C330.789 27.82 330.825 27.907 330.889 27.9711L332.098 29.1946C332.222 29.3195 332.424 29.3222 332.552 29.2006C333.497 28.3441 334.726 27.8696 336 27.869Z" fill="white"/>
<path opacity="0.2" d="M336 23.8883C338.322 23.8884 340.555 24.7813 342.237 26.3825C342.364 26.5061 342.566 26.5045 342.691 26.379L343.902 25.1555C343.965 25.0918 344.001 25.0055 344 24.9158C343.999 24.826 343.963 24.7402 343.899 24.6772C339.483 20.4409 332.517 20.4409 328.101 24.6772C328.037 24.7401 328.001 24.826 328 24.9157C327.999 25.0055 328.035 25.0917 328.098 25.1555L329.309 26.379C329.434 26.5047 329.637 26.5063 329.763 26.3825C331.446 24.7812 333.679 23.8883 336 23.8883Z" fill="white"/>
<g clip-path="url(#clip2_170_35)">
<path d="M350 24.25C350 23.5596 350.56 23 351.25 23H352V31.5H351.25C350.56 31.5 350 30.9404 350 30.25V24.25Z" fill="white"/>
<path d="M352 23H354V31.5H352V23Z" fill="white"/>
<path d="M354 23H356V31.5H354V23Z" fill="white"/>
<path d="M356 23H358V31.5H356V23Z" fill="white"/>
<path d="M358 23H360V31.5H358V23Z" fill="white"/>
<path d="M360 23H362V31.5H360V23Z" fill="white"/>
<path d="M362 23H364V31.5H362V23Z" fill="white"/>
<path d="M366 24.25C366 23.5596 365.44 23 364.75 23H364V31.5H364.75C365.44 31.5 366 30.9404 366 30.25V24.25Z" fill="white"/>
</g>
<g opacity="0.5">
<path fill-rule="evenodd" clip-rule="evenodd" d="M348 24C348 22.3431 349.343 21 351 21H369C370.657 21 372 22.3431 372 24V30.5C372 32.1569 370.657 33.5 369 33.5H351C349.343 33.5 348 32.1569 348 30.5V24ZM351 22C349.895 22 349 22.8954 349 24V30.5C349 31.6046 349.895 32.5 351 32.5H369C370.105 32.5 371 31.6046 371 30.5V24C371 22.8954 370.105 22 369 22H351Z" fill="white"/>
<path d="M373 29.542C373.883 29.1562 374.5 28.2751 374.5 27.25C374.5 26.2248 373.883 25.3438 373 24.958V29.542Z" fill="white"/>
</g>
</g>
</g>
<path d="M15 233.773C15 203.523 39.5229 179 69.7735 179H322.449C352.699 179 377.222 203.523 377.222 233.773V477.903C377.222 508.154 352.699 532.677 322.449 532.677H69.7734C39.5229 532.677 15 508.154 15 477.903V233.773Z" fill="#6078E0"/>
<path d="M306.489 411.288C300.376 411.288 294.882 409.978 290.007 407.358C285.131 404.738 281.274 401.191 278.436 396.716C275.635 392.24 274.234 387.183 274.234 381.543C274.234 377.359 275.034 373.484 276.635 369.918C278.236 366.316 280.474 363.169 283.348 360.476C286.223 357.747 289.57 355.637 293.39 354.145C297.247 352.654 301.413 351.908 305.889 351.908C311.71 351.908 316.804 353.127 321.17 355.564C325.573 357.966 329.011 361.331 331.485 365.661C333.96 369.955 335.197 374.939 335.197 380.615C335.197 381.088 335.178 381.525 335.142 381.925V381.925C335.142 383.289 333.934 384.327 332.571 384.327H298.406C296.39 384.327 294.671 386.003 295.277 387.926C295.535 388.744 295.889 389.509 296.338 390.221C297.393 391.895 298.885 393.204 300.813 394.15C302.741 395.06 305.015 395.515 307.635 395.515C310.073 395.515 312.201 395.06 314.021 394.15C315.254 393.509 316.537 392.592 317.87 391.4C319.067 390.329 320.788 390.002 322.225 390.721L330.653 394.935C332.528 395.872 333.248 398.212 331.961 399.867C329.561 402.95 326.51 405.466 322.808 407.413C317.932 409.996 312.493 411.288 306.489 411.288ZM296.39 370.488C295.396 372.376 297.183 374.284 299.317 374.284H311.46C313.678 374.284 315.476 372.231 314.332 370.331C314.201 370.113 314.06 369.902 313.912 369.7C313.002 368.463 311.838 367.535 310.419 366.916C309 366.262 307.344 365.934 305.452 365.934C303.487 365.934 301.759 366.262 300.267 366.916C298.812 367.571 297.666 368.517 296.829 369.754C296.67 369.989 296.524 370.234 296.39 370.488Z" fill="white" stroke="white" stroke-width="0.912892"/>
<path d="M226.733 409.541C224.716 409.541 223.082 407.906 223.082 405.89V357.306C223.082 355.289 224.716 353.654 226.733 353.654H241.062C242.134 353.654 243.002 354.523 243.002 355.594V355.594C243.002 357.474 245.598 358.394 247.024 357.169C248.236 356.129 249.533 355.23 250.916 354.473C253.972 352.763 257.192 351.908 260.576 351.908C262.65 351.908 264.815 352.235 267.071 352.89C268.12 353.195 269.087 353.543 269.971 353.934C271.615 354.662 272.104 356.642 271.307 358.254L266.275 368.417C265.285 370.415 262.729 371.058 260.631 370.302C260.364 370.206 260.091 370.114 259.812 370.027C258.066 369.445 256.446 369.154 254.955 369.154C252.917 369.154 250.97 369.682 249.115 370.737C247.296 371.792 245.822 373.175 244.694 374.885C243.566 376.558 243.002 378.378 243.002 380.342V405.89C243.002 407.906 241.367 409.541 239.351 409.541H226.733Z" fill="white" stroke="white" stroke-width="0.912892"/>
<path d="M166.649 411.288C161.519 411.288 156.862 410.014 152.677 407.467C148.493 404.884 145.164 401.355 142.69 396.879C140.216 392.368 138.979 387.237 138.979 381.489C138.979 375.922 140.161 370.919 142.526 366.48C144.891 362.004 148.147 358.457 152.295 355.837C156.443 353.218 161.228 351.908 166.649 351.908C170.178 351.908 173.526 352.508 176.691 353.709C178.661 354.447 180.444 355.372 182.042 356.482C183.146 357.249 184.823 356.513 184.823 355.169V355.169C184.823 354.332 185.502 353.654 186.338 353.654H201.092C203.109 353.654 204.744 355.289 204.744 357.306V405.89C204.744 407.906 203.109 409.541 201.092 409.541H186.566C185.604 409.541 184.823 408.761 184.823 407.799V407.799C184.823 406.27 182.954 405.441 181.715 406.336C179.996 407.578 178.194 408.592 176.309 409.378C173.289 410.651 170.069 411.288 166.649 411.288ZM172.653 394.423C175.127 394.423 177.31 393.878 179.202 392.786C181.094 391.658 182.568 390.13 183.623 388.202C184.678 386.273 185.205 384.072 185.205 381.598C185.205 379.124 184.66 376.922 183.568 374.994C182.513 373.065 181.039 371.556 179.147 370.464C177.255 369.336 175.09 368.772 172.653 368.772C170.251 368.772 168.086 369.336 166.158 370.464C164.266 371.556 162.756 373.065 161.628 374.994C160.537 376.922 159.991 379.124 159.991 381.598C159.991 384.035 160.537 386.237 161.628 388.202C162.72 390.13 164.211 391.658 166.103 392.786C168.032 393.878 170.215 394.423 172.653 394.423Z" fill="white" stroke="white" stroke-width="0.912892"/>
<path d="M104.707 411.289C97.903 411.289 91.4811 410.088 85.4412 407.687C79.4013 405.249 74.071 401.902 69.4501 397.645C64.8292 393.351 61.2089 388.385 58.5892 382.745C55.9695 377.106 54.6597 371.066 54.6597 364.626C54.6597 358.149 55.9695 352.091 58.5892 346.451C61.2453 340.775 64.8656 335.809 69.4501 331.552C74.071 327.258 79.3831 323.911 85.3866 321.51C91.4265 319.072 97.8302 317.853 104.598 317.853C110.092 317.853 115.35 318.617 120.371 320.145C124.179 321.304 127.548 322.725 130.477 324.407C132.048 325.31 132.541 327.295 131.731 328.916L126.153 340.072C125.132 342.113 122.498 342.722 120.444 341.727C119.089 341.07 117.61 340.498 116.004 340.011C112.766 339.029 109.419 338.538 105.962 338.538C101.96 338.538 98.2305 339.193 94.7739 340.502C91.3174 341.812 88.2792 343.65 85.6595 346.015C83.0762 348.38 81.0568 351.145 79.6015 354.311C78.1824 357.44 77.4729 360.86 77.4729 364.571C77.4729 368.282 78.1824 371.721 79.6015 374.886C81.0568 378.015 83.0762 380.762 85.6595 383.127C88.2792 385.492 91.3174 387.33 94.7739 388.64C98.2305 389.949 101.96 390.604 105.962 390.604C109.419 390.604 112.766 390.113 116.004 389.131C117.61 388.644 119.089 388.072 120.444 387.415C122.498 386.42 125.132 387.029 126.153 389.07L131.729 400.222C132.54 401.844 132.044 403.832 130.469 404.731C127.653 406.339 124.378 407.743 120.644 408.942C115.659 410.507 110.347 411.289 104.707 411.289Z" fill="white" stroke="white" stroke-width="0.912892"/>
<path d="M190.596 308.067L186.453 320.434C185.032 324.674 188.622 328.906 193.037 328.196L196.142 327.697C198.324 327.346 200.132 325.814 200.836 323.719L213.346 286.5C214.771 282.259 211.18 278.022 206.763 278.732L203.757 279.215C201.473 279.583 199.61 281.24 198.978 283.465L197.387 289.073C197.084 290.14 195.697 290.411 195.015 289.536L191.002 284.388C189.668 282.677 187.508 281.828 185.366 282.172L182.416 282.646C177.916 283.37 175.868 288.679 178.717 292.237L190.369 306.79C190.657 307.149 190.743 307.631 190.596 308.067Z" fill="#6078E0" stroke="white" stroke-width="4.59342"/>
<path d="M160.911 318.722L160.92 318.724C162.879 319.189 164.867 319.26 166.866 318.938C169.739 318.476 172.29 317.323 174.467 315.476C176.634 313.637 178.212 311.313 179.205 308.558C180.238 305.738 180.461 302.7 179.946 299.498C179.446 296.386 178.319 293.626 176.527 291.277C174.75 288.948 172.515 287.215 169.846 286.117C167.132 284.984 164.226 284.688 161.189 285.176C159.187 285.498 157.324 286.148 155.621 287.137L156.774 289.123L155.614 287.141C155.584 287.158 155.499 287.195 155.352 287.206C155.205 287.216 155.049 287.196 154.915 287.151C154.854 287.131 154.806 287.108 154.772 287.088L152.707 274.242C152.185 270.999 149.133 268.792 145.89 269.314L143.282 269.733C140.039 270.254 137.832 273.307 138.354 276.55L144.633 315.605C145.154 318.849 148.206 321.055 151.45 320.534L156.809 319.672C157.78 319.516 158.576 318.933 159.037 318.146C159.648 318.376 160.272 318.568 160.911 318.722ZM157.304 300.987C157.568 300.314 157.959 299.77 158.493 299.321C159.014 298.894 159.649 298.603 160.457 298.473C161.296 298.338 161.966 298.425 162.534 298.656L162.544 298.66L162.553 298.663C163.19 298.917 163.72 299.31 164.169 299.881L164.185 299.901L164.201 299.92C164.62 300.429 164.925 301.087 165.068 301.973C165.201 302.799 165.126 303.505 164.89 304.139L164.888 304.146L164.885 304.153C164.656 304.781 164.29 305.306 163.754 305.756C163.287 306.141 162.661 306.435 161.788 306.576C160.924 306.715 160.209 306.64 159.591 306.416C158.954 306.158 158.43 305.768 157.992 305.221C157.57 304.692 157.277 304.045 157.145 303.219C157.001 302.328 157.079 301.602 157.304 300.987Z" fill="#6078E0" stroke="white" stroke-width="4.59342"/>
<path d="M105.042 320.388L105.047 320.395C106.854 322.702 109.089 324.427 111.735 325.526L111.742 325.529L111.749 325.532C114.422 326.622 117.246 326.919 120.17 326.449C122.143 326.131 123.97 325.46 125.628 324.425C126.194 324.074 126.736 323.686 127.255 323.263C127.94 323.863 128.878 324.166 129.847 324.01L135.201 323.149C138.445 322.628 140.651 319.575 140.13 316.332L136.861 295.998C136.339 292.755 133.287 290.548 130.044 291.07L124.578 291.948C123.708 292.088 122.983 292.583 122.527 293.261C121.922 293.055 121.296 292.887 120.651 292.757C118.713 292.358 116.736 292.326 114.735 292.648C111.681 293.139 109.014 294.33 106.818 296.267L108.337 297.989L106.818 296.267C104.671 298.16 103.127 300.509 102.192 303.268C101.244 306.035 101.045 308.978 101.539 312.052C102.048 315.221 103.201 318.022 105.042 320.388L105.042 320.388ZM123.454 306.361L123.464 306.374L123.474 306.387C123.889 306.906 124.19 307.568 124.331 308.442C124.473 309.33 124.4 310.062 124.177 310.689C123.949 311.331 123.587 311.855 123.064 312.296C122.572 312.692 121.931 312.987 121.063 313.126C120.224 313.261 119.517 313.188 118.894 312.962C118.259 312.705 117.737 312.317 117.301 311.774C116.872 311.226 116.575 310.557 116.439 309.711C116.299 308.844 116.375 308.126 116.602 307.506C116.864 306.837 117.252 306.309 117.777 305.882L117.777 305.882L117.788 305.873C118.311 305.443 118.947 305.15 119.76 305.019C120.597 304.884 121.285 304.968 121.882 305.205L121.897 305.211L121.913 305.217C122.535 305.454 123.037 305.825 123.454 306.361Z" fill="#6078E0" stroke="white" stroke-width="4.59342"/>
<path d="M96.7676 327.566L96.7745 327.562C99.1296 325.963 100.885 323.905 101.953 321.392C103.047 318.834 103.297 316.02 102.816 313.031C102.262 309.585 100.851 306.719 98.4234 304.682C97.8683 304.217 97.0773 303.003 96.4538 301.368C95.833 299.739 95.6021 298.28 95.6964 297.531C95.8757 296.108 95.8279 294.622 95.5809 293.085C94.895 288.819 92.9 285.512 89.3885 283.645C86.0692 281.879 82.0342 281.513 77.4938 282.243L67.1386 283.908C63.8952 284.429 61.6885 287.481 62.21 290.725L68.1863 327.897C68.7078 331.141 71.7599 333.347 75.0034 332.826L88.3981 330.672C91.6097 330.156 94.4254 329.144 96.7676 327.566ZM80.8151 298.632L80.8085 298.639L80.8021 298.645C80.4878 298.982 79.9223 299.349 78.9453 299.63L78.2064 295.034C79.3202 294.97 79.9873 295.132 80.3536 295.325L80.3622 295.329L80.3709 295.334C80.7314 295.519 81.0819 295.86 81.2374 296.826C81.3875 297.76 81.1736 298.254 80.8151 298.632ZM86.0619 313.304L86.0717 313.309L86.0816 313.314C86.7035 313.62 87.1359 314.12 87.3085 315.193C87.4766 316.239 87.226 316.78 86.7909 317.195C86.2181 317.74 85.0023 318.343 82.722 318.71C82.3402 318.771 81.981 318.511 81.9196 318.129L81.232 313.853C81.1706 313.471 81.4303 313.111 81.8121 313.05C83.969 312.703 85.2938 312.916 86.0619 313.304Z" fill="#6078E0" stroke="white" stroke-width="4.59342"/>
<path d="M231.538 308.957L231.535 308.954C226.412 302.974 222.34 298.207 219.649 293.909C216.981 289.648 215.895 286.188 216.324 282.812C217.023 277.315 221.837 273.603 227.333 274.302C229.279 274.55 231.132 275.363 232.667 276.576C235.151 278.54 238.766 279 241.663 277.721C243.453 276.93 245.45 276.607 247.397 276.855C252.892 277.554 256.623 282.352 255.924 287.849C255.495 291.225 253.576 294.303 249.927 297.76C246.246 301.248 241.109 304.844 234.653 309.35L234.649 309.353L233.761 309.975C233.281 310.312 232.623 310.228 232.242 309.782L231.538 308.957Z" fill="#6078E0" stroke="white" stroke-width="5.02635"/>
<path d="M138.5 843L254.5 843" stroke="white" stroke-width="4" stroke-linecap="round"/>
</g>
<defs>
<filter id="filter0_b_170_35" x="248" y="-37.5" width="184" height="128" filterUnits="userSpaceOnUse" color-interpolation-filters="sRGB">
<feFlood flood-opacity="0" result="BackgroundImageFix"/>
<feGaussianBlur in="BackgroundImageFix" stdDeviation="28"/>
<feComposite in2="SourceAlpha" operator="in" result="effect1_backgroundBlur_170_35"/>
<feBlend mode="normal" in="SourceGraphic" in2="effect1_backgroundBlur_170_35" result="shape"/>
</filter>
<clipPath id="clip0_170_35">
<rect width="393" height="852" fill="white"/>
</clipPath>
<clipPath id="clip1_170_35">
<rect width="72" height="16" fill="white" transform="translate(304 18.5)"/>
</clipPath>
<clipPath id="clip2_170_35">
<rect width="16" height="8.5" fill="white" transform="translate(350 23)"/>
</clipPath>
</defs>
</svg>
